<svg width="1000" height="300" xmlns="http://www.w3.org/2000/svg" xmlns:xlink="http://www.w3.org/1999/xlink" version="1.1" baseProfile="full" viewBox="0 0 1000 300">
<rect width="1000" height="300" x="0" y="0" id="0" fill="#ffffff"></rect>
<path d="M58.2 271.5L931.8 271.5" fill="none" stroke="#E0E6F1"></path>
<path d="M58.2 226.5L931.8 226.5" fill="none" stroke="#E0E6F1"></path>
<path d="M58.2 180.5L931.8 180.5" fill="none" stroke="#E0E6F1"></path>
<path d="M58.2 135.5L931.8 135.5" fill="none" stroke="#E0E6F1"></path>
<path d="M58.2 90.5L931.8 90.5" fill="none" stroke="#E0E6F1"></path>
<path d="M58.2 60.5L931.8 60.5" fill="none" stroke="#E0E6F1"></path>
<path d="M58.2 271.5L931.8 271.5" fill="none" stroke="#6E7079" stroke-linecap="round"></path>
<path d="M60.5 271L60.5 276" fill="none" stroke="#6E7079"></path>
<path d="M109.5 271L109.5 276" fill="none" stroke="#6E7079"></path>
<path d="M158.5 271L158.5 276" fill="none" stroke="#6E7079"></path>
<path d="M208.5 271L208.5 276" fill="none" stroke="#6E7079"></path>
<path d="M257.5 271L257.5 276" fill="none" stroke="#6E7079"></path>
<path d="M306.5 271L306.5 276" fill="none" stroke="#6E7079"></path>
<path d="M356.5 271L356.5 276" fill="none" stroke="#6E7079"></path>
<path d="M405.5 271L405.5 276" fill="none" stroke="#6E7079"></path>
<path d="M454.5 271L454.5 276" fill="none" stroke="#6E7079"></path>
<path d="M504.5 271L504.5 276" fill="none" stroke="#6E7079"></path>
<path d="M553.5 271L553.5 276" fill="none" stroke="#6E7079"></path>
<path d="M602.5 271L602.5 276" fill="none" stroke="#6E7079"></path>
<path d="M652.5 271L652.5 276" fill="none" stroke="#6E7079"></path>
<path d="M701.5 271L701.5 276" fill="none" stroke="#6E7079"></path>
<path d="M750.5 271L750.5 276" fill="none" stroke="#6E7079"></path>
<path d="M799.5 271L799.5 276" fill="none" stroke="#6E7079"></path>
<path d="M849.5 271L849.5 276" fill="none" stroke="#6E7079"></path>
<path d="M898.5 271L898.5 276" fill="none" stroke="#6E7079"></path>
<text dominant-baseline="central" text-anchor="end" style="font-size:12px;font-family:sans-serif;" transform="translate(50.16 271)" fill="#6E7079">0</text>
<text dominant-baseline="central" text-anchor="end" style="font-size:12px;font-family:sans-serif;" transform="translate(50.16 225.7857)" fill="#6E7079">180</text>
<text dominant-baseline="central" text-anchor="end" style="font-size:12px;font-family:sans-serif;" transform="translate(50.16 180.5714)" fill="#6E7079">360</text>
<text dominant-baseline="central" text-anchor="end" style="font-size:12px;font-family:sans-serif;" transform="translate(50.16 135.3571)" fill="#6E7079">540</text>
<text dominant-baseline="central" text-anchor="end" style="font-size:12px;font-family:sans-serif;" transform="translate(50.16 90.1429)" fill="#6E7079">720</text>
<text dominant-baseline="central" text-anchor="end" style="font-size:12px;font-family:sans-serif;" transform="translate(50.16 60)" fill="#6E7079">840</text>
<text dominant-baseline="central" text-anchor="start" style="font-size:12px;font-family:sans-serif;" transform="translate(939.84 271)" fill="#6E7079">0</text>
<text dominant-baseline="central" text-anchor="start" style="font-size:12px;font-family:sans-serif;" transform="translate(939.84 225.7857)" fill="#6E7079">180</text>
<text dominant-baseline="central" text-anchor="start" style="font-size:12px;font-family:sans-serif;" transform="translate(939.84 180.5714)" fill="#6E7079">360</text>
<text dominant-baseline="central" text-anchor="start" style="font-size:12px;font-family:sans-serif;" transform="translate(939.84 135.3571)" fill="#6E7079">540</text>
<text dominant-baseline="central" text-anchor="start" style="font-size:12px;font-family:sans-serif;" transform="translate(939.84 90.1429)" fill="#6E7079">720</text>
<text dominant-baseline="central" text-anchor="start" style="font-size:12px;font-family:sans-serif;" transform="translate(939.84 60)" fill="#6E7079">840</text>
<text dominant-baseline="central" text-anchor="middle" style="font-size:12px;font-family:sans-serif;" y="6" transform="translate(59.9215 279)" fill="#6E7079">1km</text>
<text dominant-baseline="central" text-anchor="middle" style="font-size:12px;font-family:sans-serif;" y="6" transform="translate(109.2421 279)" fill="#6E7079">15km</text>
<text dominant-baseline="central" text-anchor="middle" style="font-size:12px;font-family:sans-serif;" y="6" transform="translate(158.5627 279)" fill="#6E7079">29km</text>
<text dominant-baseline="central" text-anchor="middle" style="font-size:12px;font-family:sans-serif;" y="6" transform="translate(207.8834 279)" fill="#6E7079">43km</text>
<text dominant-baseline="central" text-anchor="middle" style="font-size:12px;font-family:sans-serif;" y="6" transform="translate(257.204 279)" fill="#6E7079">57km</text>
<text dominant-baseline="central" text-anchor="middle" style="font-size:12px;font-family:sans-serif;" y="6" transform="translate(306.5247 279)" fill="#6E7079">71km</text>
<text dominant-baseline="central" text-anchor="middle" style="font-size:12px;font-family:sans-serif;" y="6" transform="translate(355.8453 279)" fill="#6E7079">85km</text>
<text dominant-baseline="central" text-anchor="middle" style="font-size:12px;font-family:sans-serif;" y="6" transform="translate(405.166 279)" fill="#6E7079">99km</text>
<text dominant-baseline="central" text-anchor="middle" style="font-size:12px;font-family:sans-serif;" y="6" transform="translate(454.4866 279)" fill="#6E7079">113km</text>
<text dominant-baseline="central" text-anchor="middle" style="font-size:12px;font-family:sans-serif;" y="6" transform="translate(503.8073 279)" fill="#6E7079">127km</text>
<text dominant-baseline="central" text-anchor="middle" style="font-size:12px;font-family:sans-serif;" y="6" transform="translate(553.1279 279)" fill="#6E7079">141km</text>
<text dominant-baseline="central" text-anchor="middle" style="font-size:12px;font-family:sans-serif;" y="6" transform="translate(602.4485 279)" fill="#6E7079">155km</text>
<text dominant-baseline="central" text-anchor="middle" style="font-size:12px;font-family:sans-serif;" y="6" transform="translate(651.7692 279)" fill="#6E7079">169km</text>
<text dominant-baseline="central" text-anchor="middle" style="font-size:12px;font-family:sans-serif;" y="6" transform="translate(701.0898 279)" fill="#6E7079">183km</text>
<text dominant-baseline="central" text-anchor="middle" style="font-size:12px;font-family:sans-serif;" y="6" transform="translate(750.4105 279)" fill="#6E7079">197km</text>
<text dominant-baseline="central" text-anchor="middle" style="font-size:12px;font-family:sans-serif;" y="6" transform="translate(799.7311 279)" fill="#6E7079">211km</text>
<text dominant-baseline="central" text-anchor="middle" style="font-size:12px;font-family:sans-serif;" y="6" transform="translate(849.0518 279)" fill="#6E7079">225km</text>
<text dominant-baseline="central" text-anchor="middle" style="font-size:12px;font-family:sans-serif;" y="6" transform="translate(898.3724 279)" fill="#6E7079">239km</text>
<path d="M58.7 271l2.4 0l0 -206l-2.4 0Z" fill="rgb(227,73,2)" fill-opacity="0.3"></path>
<path d="M62.2 271l2.4 0l0 -206l-2.4 0Z" fill="rgb(227,73,2)" fill-opacity="0.3"></path>
<path d="M65.8 271l2.4 0l0 -205.7l-2.4 0Z" fill="rgb(227,73,2)" fill-opacity="0.3"></path>
<path d="M69.3 271l2.4 0l0 -205l-2.4 0Z" fill="rgb(227,73,2)" fill-opacity="0.3"></path>
<path d="M72.8 271l2.4 0l0 -204.5l-2.4 0Z" fill="rgb(227,73,2)" fill-opacity="0.3"></path>
<path d="M76.3 271l2.4 0l0 -203.2l-2.4 0Z" fill="rgb(227,73,2)" fill-opacity="0.3"></path>
<path d="M79.8 271l2.4 0l0 -203l-2.4 0Z" fill="rgb(227,73,2)" fill-opacity="0.3"></path>
<path d="M83.4 271l2.4 0l0 -200.4l-2.4 0Z" fill="rgb(227,73,2)" fill-opacity="0.3"></path>
<path d="M86.9 271l2.4 0l0 -198.2l-2.4 0Z" fill="rgb(227,73,2)" fill-opacity="0.3"></path>
<path d="M90.4 271l2.4 0l0 -195.2l-2.4 0Z" fill="rgb(227,73,2)" fill-opacity="0.3"></path>
<path d="M93.9 271l2.4 0l0 -180.4l-2.4 0Z" fill="rgb(227,73,2)" fill-opacity="0.3"></path>
<path d="M97.5 271l2.4 0l0 -173.3l-2.4 0Z" fill="rgb(227,73,2)" fill-opacity="0.3"></path>
<path d="M101 271l2.4 0l0 -167.5l-2.4 0Z" fill="rgb(227,73,2)" fill-opacity="0.3"></path>
<path d="M104.5 271l2.4 0l0 -161.5l-2.4 0Z" fill="rgb(227,73,2)" fill-opacity="0.3"></path>
<path d="M108 271l2.4 0l0 -157.7l-2.4 0Z" fill="rgb(227,73,2)" fill-opacity="0.3"></path>
<path d="M111.5 271l2.4 0l0 -151.5l-2.4 0Z" fill="rgb(227,73,2)" fill-opacity="0.3"></path>
<path d="M115.1 271l2.4 0l0 -145.7l-2.4 0Z" fill="rgb(227,73,2)" fill-opacity="0.3"></path>
<path d="M118.6 271l2.4 0l0 -142.4l-2.4 0Z" fill="rgb(227,73,2)" fill-opacity="0.3"></path>
<path d="M122.1 271l2.4 0l0 -139.2l-2.4 0Z" fill="rgb(227,73,2)" fill-opacity="0.3"></path>
<path d="M125.6 271l2.4 0l0 -136.6l-2.4 0Z" fill="rgb(227,73,2)" fill-opacity="0.3"></path>
<path d="M129.2 271l2.4 0l0 -128.6l-2.4 0Z" fill="rgb(227,73,2)" fill-opacity="0.3"></path>
<path d="M132.7 271l2.4 0l0 -121.8l-2.4 0Z" fill="rgb(227,73,2)" fill-opacity="0.3"></path>
<path d="M136.2 271l2.4 0l0 -117.6l-2.4 0Z" fill="rgb(227,73,2)" fill-opacity="0.3"></path>
<path d="M139.7 271l2.4 0l0 -112.3l-2.4 0Z" fill="rgb(227,73,2)" fill-opacity="0.3"></path>
<path d="M143.3 271l2.4 0l0 -108l-2.4 0Z" fill="rgb(227,73,2)" fill-opacity="0.3"></path>
<path d="M146.8 271l2.4 0l0 -98.5l-2.4 0Z" fill="rgb(227,73,2)" fill-opacity="0.3"></path>
<path d="M150.3 271l2.4 0l0 -94.2l-2.4 0Z" fill="rgb(227,73,2)" fill-opacity="0.3"></path>
<path d="M153.8 271l2.4 0l0 -90.7l-2.4 0Z" fill="rgb(227,73,2)" fill-opacity="0.3"></path>
<path d="M157.3 271l2.4 0l0 -87.4l-2.4 0Z" fill="rgb(227,73,2)" fill-opacity="0.3"></path>
<path d="M160.9 271l2.4 0l0 -84.7l-2.4 0Z" fill="rgb(227,73,2)" fill-opacity="0.3"></path>
<path d="M164.4 271l2.4 0l0 -79.1l-2.4 0Z" fill="rgb(227,73,2)" fill-opacity="0.3"></path>
<path d="M167.9 271l2.4 0l0 -76.6l-2.4 0Z" fill="rgb(227,73,2)" fill-opacity="0.3"></path>
<path d="M171.4 271l2.4 0l0 -73.6l-2.4 0Z" fill="rgb(227,73,2)" fill-opacity="0.3"></path>
<path d="M175 271l2.4 0l0 -72.1l-2.4 0Z" fill="rgb(227,73,2)" fill-opacity="0.3"></path>
<path d="M178.5 271l2.4 0l0 -70.8l-2.4 0Z" fill="rgb(227,73,2)" fill-opacity="0.3"></path>
<path d="M182 271l2.4 0l0 -68.8l-2.4 0Z" fill="rgb(227,73,2)" fill-opacity="0.3"></path>
<path d="M185.5 271l2.4 0l0 -67.1l-2.4 0Z" fill="rgb(227,73,2)" fill-opacity="0.3"></path>
<path d="M189.1 271l2.4 0l0 -65.6l-2.4 0Z" fill="rgb(227,73,2)" fill-opacity="0.3"></path>
<path d="M192.6 271l2.4 0l0 -64.1l-2.4 0Z" fill="rgb(227,73,2)" fill-opacity="0.3"></path>
<path d="M196.1 271l2.4 0l0 -63.3l-2.4 0Z" fill="rgb(227,73,2)" fill-opacity="0.3"></path>
<path d="M199.6 271l2.4 0l0 -57.5l-2.4 0Z" fill="rgb(227,73,2)" fill-opacity="0.3"></path>
<path d="M203.1 271l2.4 0l0 -56.3l-2.4 0Z" fill="rgb(227,73,2)" fill-opacity="0.3"></path>
<path d="M206.7 271l2.4 0l0 -54.3l-2.4 0Z" fill="rgb(227,73,2)" fill-opacity="0.3"></path>
<path d="M210.2 271l2.4 0l0 -52.7l-2.4 0Z" fill="rgb(227,73,2)" fill-opacity="0.3"></path>
<path d="M213.7 271l2.4 0l0 -50.5l-2.4 0Z" fill="rgb(227,73,2)" fill-opacity="0.3"></path>
<path d="M217.2 271l2.4 0l0 -49.2l-2.4 0Z" fill="rgb(227,73,2)" fill-opacity="0.3"></path>
<path d="M220.8 271l2.4 0l0 -48.5l-2.4 0Z" fill="rgb(227,73,2)" fill-opacity="0.3"></path>
<path d="M224.3 271l2.4 0l0 -47l-2.4 0Z" fill="rgb(227,73,2)" fill-opacity="0.3"></path>
<path d="M227.8 271l2.4 0l0 -46.7l-2.4 0Z" fill="rgb(227,73,2)" fill-opacity="0.3"></path>
<path d="M231.3 271l2.4 0l0 -46.5l-2.4 0Z" fill="rgb(227,73,2)" fill-opacity="0.3"></path>
<path d="M234.9 271l2.4 0l0 -43.2l-2.4 0Z" fill="rgb(227,73,2)" fill-opacity="0.3"></path>
<path d="M238.4 271l2.4 0l0 -42.5l-2.4 0Z" fill="rgb(227,73,2)" fill-opacity="0.3"></path>
<path d="M241.9 271l2.4 0l0 -39.9l-2.4 0Z" fill="rgb(227,73,2)" fill-opacity="0.3"></path>
<path d="M245.4 271l2.4 0l0 -38.2l-2.4 0Z" fill="rgb(227,73,2)" fill-opacity="0.3"></path>
<path d="M248.9 271l2.4 0l0 -37.7l-2.4 0Z" fill="rgb(227,73,2)" fill-opacity="0.3"></path>
<path d="M252.5 271l2.4 0l0 -34.9l-2.4 0Z" fill="rgb(227,73,2)" fill-opacity="0.3"></path>
<path d="M256 271l2.4 0l0 -34.2l-2.4 0Z" fill="rgb(227,73,2)" fill-opacity="0.3"></path>
<path d="M259.5 271l2.4 0l0 -33.7l-2.4 0Z" fill="rgb(227,73,2)" fill-opacity="0.3"></path>
<path d="M263 271l2.4 0l0 -32.9l-2.4 0Z" fill="rgb(227,73,2)" fill-opacity="0.3"></path>
<path d="M266.6 271l2.4 0l0 -32.4l-2.4 0Z" fill="rgb(227,73,2)" fill-opacity="0.3"></path>
<path d="M270.1 271l2.4 0l0 -31.1l-2.4 0Z" fill="rgb(227,73,2)" fill-opacity="0.3"></path>
<path d="M273.6 271l2.4 0l0 -30.4l-2.4 0Z" fill="rgb(227,73,2)" fill-opacity="0.3"></path>
<path d="M277.1 271l2.4 0l0 -30.1l-2.4 0Z" fill="rgb(227,73,2)" fill-opacity="0.3"></path>
<path d="M280.6 271l2.4 0l0 -29.6l-2.4 0Z" fill="rgb(227,73,2)" fill-opacity="0.3"></path>
<path d="M284.2 271l2.4 0l0 -28.6l-2.4 0Z" fill="rgb(227,73,2)" fill-opacity="0.3"></path>
<path d="M287.7 271l2.4 0l0 -27.9l-2.4 0Z" fill="rgb(227,73,2)" fill-opacity="0.3"></path>
<path d="M291.2 271l2.4 0l0 -27.9l-2.4 0Z" fill="rgb(227,73,2)" fill-opacity="0.3"></path>
<path d="M294.7 271l2.4 0l0 -27.1l-2.4 0Z" fill="rgb(227,73,2)" fill-opacity="0.3"></path>
<path d="M298.3 271l2.4 0l0 -26.4l-2.4 0Z" fill="rgb(227,73,2)" fill-opacity="0.3"></path>
<path d="M301.8 271l2.4 0l0 -25.6l-2.4 0Z" fill="rgb(227,73,2)" fill-opacity="0.3"></path>
<path d="M305.3 271l2.4 0l0 -24.4l-2.4 0Z" fill="rgb(227,73,2)" fill-opacity="0.3"></path>
<path d="M308.8 271l2.4 0l0 -23.9l-2.4 0Z" fill="rgb(227,73,2)" fill-opacity="0.3"></path>
<path d="M312.4 271l2.4 0l0 -23.4l-2.4 0Z" fill="rgb(227,73,2)" fill-opacity="0.3"></path>
<path d="M315.9 271l2.4 0l0 -22.9l-2.4 0Z" fill="rgb(227,73,2)" fill-opacity="0.3"></path>
<path d="M319.4 271l2.4 0l0 -22.6l-2.4 0Z" fill="rgb(227,73,2)" fill-opacity="0.3"></path>
<path d="M322.9 271l2.4 0l0 -21.9l-2.4 0Z" fill="rgb(227,73,2)" fill-opacity="0.3"></path>
<path d="M326.4 271l2.4 0l0 -21.1l-2.4 0Z" fill="rgb(227,73,2)" fill-opacity="0.3"></path>
<path d="M330 271l2.4 0l0 -20.1l-2.4 0Z" fill="rgb(227,73,2)" fill-opacity="0.8"></path>
<path d="M333.5 271l2.4 0l0 -19.6l-2.4 0Z" fill="rgb(227,73,2)" fill-opacity="0.3"></path>
<path d="M337 271l2.4 0l0 -19.3l-2.4 0Z" fill="rgb(227,73,2)" fill-opacity="0.3"></path>
<path d="M340.5 271l2.4 0l0 -18.1l-2.4 0Z" fill="rgb(227,73,2)" fill-opacity="0.3"></path>
<path d="M344.1 271l2.4 0l0 -16.8l-2.4 0Z" fill="rgb(227,73,2)" fill-opacity="0.3"></path>
<path d="M347.6 271l2.4 0l0 -16.1l-2.4 0Z" fill="rgb(227,73,2)" fill-opacity="0.3"></path>
<path d="M351.1 271l2.4 0l0 -14.8l-2.4 0Z" fill="rgb(227,73,2)" fill-opacity="0.3"></path>
<path d="M354.6 271l2.4 0l0 -14.6l-2.4 0Z" fill="rgb(227,73,2)" fill-opacity="0.3"></path>
<path d="M358.2 271l2.4 0l0 -13.6l-2.4 0Z" fill="rgb(227,73,2)" fill-opacity="0.3"></path>
<path d="M361.7 271l2.4 0l0 -13.3l-2.4 0Z" fill="rgb(227,73,2)" fill-opacity="0.3"></path>
<path d="M365.2 271l2.4 0l0 -13.3l-2.4 0Z" fill="rgb(227,73,2)" fill-opacity="0.3"></path>
<path d="M368.7 271l2.4 0l0 -13.3l-2.4 0Z" fill="rgb(227,73,2)" fill-opacity="0.3"></path>
<path d="M372.2 271l2.4 0l0 -12.8l-2.4 0Z" fill="rgb(227,73,2)" fill-opacity="0.3"></path>
<path d="M375.8 271l2.4 0l0 -12.6l-2.4 0Z" fill="rgb(227,73,2)" fill-opacity="0.3"></path>
<path d="M379.3 271l2.4 0l0 -12.3l-2.4 0Z" fill="rgb(227,73,2)" fill-opacity="0.3"></path>
<path d="M382.8 271l2.4 0l0 -12.1l-2.4 0Z" fill="rgb(227,73,2)" fill-opacity="0.3"></path>
<path d="M386.3 271l2.4 0l0 -12.1l-2.4 0Z" fill="rgb(227,73,2)" fill-opacity="0.3"></path>
<path d="M389.9 271l2.4 0l0 -12.1l-2.4 0Z" fill="rgb(227,73,2)" fill-opacity="0.3"></path>
<path d="M393.4 271l2.4 0l0 -12.1l-2.4 0Z" fill="rgb(227,73,2)" fill-opacity="0.3"></path>
<path d="M396.9 271l2.4 0l0 -12.1l-2.4 0Z" fill="rgb(227,73,2)" fill-opacity="0.3"></path>
<path d="M400.4 271l2.4 0l0 -11.8l-2.4 0Z" fill="rgb(227,73,2)" fill-opacity="0.3"></path>
<path d="M404 271l2.4 0l0 -11.8l-2.4 0Z" fill="rgb(227,73,2)" fill-opacity="0.3"></path>
<path d="M407.5 271l2.4 0l0 -11.8l-2.4 0Z" fill="rgb(227,73,2)" fill-opacity="0.3"></path>
<path d="M411 271l2.4 0l0 -9.8l-2.4 0Z" fill="rgb(227,73,2)" fill-opacity="0.3"></path>
<path d="M414.5 271l2.4 0l0 -9.3l-2.4 0Z" fill="rgb(227,73,2)" fill-opacity="0.3"></path>
<path d="M418 271l2.4 0l0 -8.8l-2.4 0Z" fill="rgb(227,73,2)" fill-opacity="0.3"></path>
<path d="M421.6 271l2.4 0l0 -8.5l-2.4 0Z" fill="rgb(227,73,2)" fill-opacity="0.3"></path>
<path d="M425.1 271l2.4 0l0 -8.5l-2.4 0Z" fill="rgb(227,73,2)" fill-opacity="0.3"></path>
<path d="M428.6 271l2.4 0l0 -8.3l-2.4 0Z" fill="rgb(227,73,2)" fill-opacity="0.3"></path>
<path d="M432.1 271l2.4 0l0 -7.5l-2.4 0Z" fill="rgb(227,73,2)" fill-opacity="0.3"></path>
<path d="M435.7 271l2.4 0l0 -7.3l-2.4 0Z" fill="rgb(227,73,2)" fill-opacity="0.3"></path>
<path d="M439.2 271l2.4 0l0 -7l-2.4 0Z" fill="rgb(227,73,2)" fill-opacity="0.3"></path>
<path d="M442.7 271l2.4 0l0 -6.8l-2.4 0Z" fill="rgb(227,73,2)" fill-opacity="0.3"></path>
<path d="M446.2 271l2.4 0l0 -6.3l-2.4 0Z" fill="rgb(227,73,2)" fill-opacity="0.3"></path>
<path d="M449.7 271l2.4 0l0 -5.5l-2.4 0Z" fill="rgb(227,73,2)" fill-opacity="0.3"></path>
<path d="M453.3 271l2.4 0l0 -5l-2.4 0Z" fill="rgb(227,73,2)" fill-opacity="0.3"></path>
<path d="M456.8 271l2.4 0l0 -5l-2.4 0Z" fill="rgb(227,73,2)" fill-opacity="0.3"></path>
<path d="M460.3 271l2.4 0l0 -4.8l-2.4 0Z" fill="rgb(227,73,2)" fill-opacity="0.3"></path>
<path d="M463.8 271l2.4 0l0 -4.8l-2.4 0Z" fill="rgb(227,73,2)" fill-opacity="0.3"></path>
<path d="M467.4 271l2.4 0l0 -4.8l-2.4 0Z" fill="rgb(227,73,2)" fill-opacity="0.3"></path>
<path d="M470.9 271l2.4 0l0 -4l-2.4 0Z" fill="rgb(227,73,2)" fill-opacity="0.3"></path>
<path d="M474.4 271l2.4 0l0 -3.8l-2.4 0Z" fill="rgb(227,73,2)" fill-opacity="0.3"></path>
<path d="M477.9 271l2.4 0l0 -3.5l-2.4 0Z" fill="rgb(227,73,2)" fill-opacity="0.3"></path>
<path d="M481.5 271l2.4 0l0 -3l-2.4 0Z" fill="rgb(227,73,2)" fill-opacity="0.3"></path>
<path d="M485 271l2.4 0l0 -2.8l-2.4 0Z" fill="rgb(227,73,2)" fill-opacity="0.3"></path>
<path d="M488.5 271l2.4 0l0 -2.5l-2.4 0Z" fill="rgb(227,73,2)" fill-opacity="0.3"></path>
<path d="M492 271l2.4 0l0 -2.5l-2.4 0Z" fill="rgb(227,73,2)" fill-opacity="0.3"></path>
<path d="M495.5 271l2.4 0l0 -2.3l-2.4 0Z" fill="rgb(227,73,2)" fill-opacity="0.3"></path>
<path d="M499.1 271l2.4 0l0 -2.3l-2.4 0Z" fill="rgb(227,73,2)" fill-opacity="0.3"></path>
<path d="M502.6 271l2.4 0l0 -2.3l-2.4 0Z" fill="rgb(227,73,2)" fill-opacity="0.3"></path>
<path d="M506.1 271l2.4 0l0 -2.3l-2.4 0Z" fill="rgb(227,73,2)" fill-opacity="0.3"></path>
<path d="M509.6 271l2.4 0l0 -2.3l-2.4 0Z" fill="rgb(227,73,2)" fill-opacity="0.3"></path>
<path d="M513.2 271l2.4 0l0 -2.3l-2.4 0Z" fill="rgb(227,73,2)" fill-opacity="0.3"></path>
<path d="M516.7 271l2.4 0l0 -2l-2.4 0Z" fill="rgb(227,73,2)" fill-opacity="0.3"></path>
<path d="M520.2 271l2.4 0l0 -2l-2.4 0Z" fill="rgb(227,73,2)" fill-opacity="0.3"></path>
<path d="M523.7 271l2.4 0l0 -2l-2.4 0Z" fill="rgb(227,73,2)" fill-opacity="0.3"></path>
<path d="M527.3 271l2.4 0l0 -2l-2.4 0Z" fill="rgb(227,73,2)" fill-opacity="0.3"></path>
<path d="M530.8 271l2.4 0l0 -2l-2.4 0Z" fill="rgb(227,73,2)" fill-opacity="0.3"></path>
<path d="M534.3 271l2.4 0l0 -2l-2.4 0Z" fill="rgb(227,73,2)" fill-opacity="0.3"></path>
<path d="M537.8 271l2.4 0l0 -2l-2.4 0Z" fill="rgb(227,73,2)" fill-opacity="0.3"></path>
<path d="M541.3 271l2.4 0l0 -2l-2.4 0Z" fill="rgb(227,73,2)" fill-opacity="0.3"></path>
<path d="M544.9 271l2.4 0l0 -2l-2.4 0Z" fill="rgb(227,73,2)" fill-opacity="0.3"></path>
<path d="M548.4 271l2.4 0l0 -2l-2.4 0Z" fill="rgb(227,73,2)" fill-opacity="0.3"></path>
<path d="M551.9 271l2.4 0l0 -2l-2.4 0Z" fill="rgb(227,73,2)" fill-opacity="0.3"></path>
<path d="M555.4 271l2.4 0l0 -1.8l-2.4 0Z" fill="rgb(227,73,2)" fill-opacity="0.3"></path>
<path d="M559 271l2.4 0l0 -1.8l-2.4 0Z" fill="rgb(227,73,2)" fill-opacity="0.3"></path>
<path d="M562.5 271l2.4 0l0 -1.8l-2.4 0Z" fill="rgb(227,73,2)" fill-opacity="0.3"></path>
<path d="M566 271l2.4 0l0 -1.8l-2.4 0Z" fill="rgb(227,73,2)" fill-opacity="0.3"></path>
<path d="M569.5 271l2.4 0l0 -1.8l-2.4 0Z" fill="rgb(227,73,2)" fill-opacity="0.3"></path>
<path d="M573 271l2.4 0l0 -1.5l-2.4 0Z" fill="rgb(227,73,2)" fill-opacity="0.3"></path>
<path d="M576.6 271l2.4 0l0 -1.5l-2.4 0Z" fill="rgb(227,73,2)" fill-opacity="0.3"></path>
<path d="M580.1 271l2.4 0l0 -1.5l-2.4 0Z" fill="rgb(227,73,2)" fill-opacity="0.3"></path>
<path d="M583.6 271l2.4 0l0 -1.3l-2.4 0Z" fill="rgb(227,73,2)" fill-opacity="0.3"></path>
<path d="M587.1 271l2.4 0l0 -1.3l-2.4 0Z" fill="rgb(227,73,2)" fill-opacity="0.3"></path>
<path d="M590.7 271l2.4 0l0 -1.3l-2.4 0Z" fill="rgb(227,73,2)" fill-opacity="0.3"></path>
<path d="M594.2 271l2.4 0l0 -1.3l-2.4 0Z" fill="rgb(227,73,2)" fill-opacity="0.3"></path>
<path d="M597.7 271l2.4 0l0 -1.3l-2.4 0Z" fill="rgb(227,73,2)" fill-opacity="0.3"></path>
<path d="M601.2 271l2.4 0l0 -1l-2.4 0Z" fill="rgb(227,73,2)" fill-opacity="0.3"></path>
<path d="M604.8 271l2.4 0l0 -1l-2.4 0Z" fill="rgb(227,73,2)" fill-opacity="0.3"></path>
<path d="M608.3 271l2.4 0l0 -0.8l-2.4 0Z" fill="rgb(227,73,2)" fill-opacity="0.3"></path>
<path d="M611.8 271l2.4 0l0 -0.8l-2.4 0Z" fill="rgb(227,73,2)" fill-opacity="0.3"></path>
<path d="M615.3 271l2.4 0l0 -0.5l-2.4 0Z" fill="rgb(227,73,2)" fill-opacity="0.3"></path>
<path d="M618.8 271l2.4 0l0 -0.5l-2.4 0Z" fill="rgb(227,73,2)" fill-opacity="0.3"></path>
<path d="M622.4 271l2.4 0l0 -0.5l-2.4 0Z" fill="rgb(227,73,2)" fill-opacity="0.3"></path>
<path d="M625.9 271l2.4 0l0 -0.3l-2.4 0Z" fill="rgb(227,73,2)" fill-opacity="0.3"></path>
<path d="M629.4 271l2.4 0l0 -0.3l-2.4 0Z" fill="rgb(227,73,2)" fill-opacity="0.3"></path>
<path d="M632.9 271l2.4 0l0 -0.3l-2.4 0Z" fill="rgb(227,73,2)" fill-opacity="0.3"></path>
<path d="M636.5 271l2.4 0l0 -0.3l-2.4 0Z" fill="rgb(227,73,2)" fill-opacity="0.3"></path>
<path d="M640 271l2.4 0l0 -0.3l-2.4 0Z" fill="rgb(227,73,2)" fill-opacity="0.3"></path>
<path d="M643.5 271l2.4 0l0 -0.3l-2.4 0Z" fill="rgb(227,73,2)" fill-opacity="0.3"></path>
<path d="M647 271l2.4 0l0 -0.3l-2.4 0Z" fill="rgb(227,73,2)" fill-opacity="0.3"></path>
<path d="M650.6 271l2.4 0l0 -0.3l-2.4 0Z" fill="rgb(227,73,2)" fill-opacity="0.3"></path>
<path d="M654.1 271l2.4 0l0 -0.3l-2.4 0Z" fill="rgb(227,73,2)" fill-opacity="0.3"></path>
<path d="M657.6 271l2.4 0l0 -0.3l-2.4 0Z" fill="rgb(227,73,2)" fill-opacity="0.3"></path>
<path d="M661.1 271l2.4 0l0 -0.3l-2.4 0Z" fill="rgb(227,73,2)" fill-opacity="0.3"></path>
<path d="M664.6 271l2.4 0l0 -0.3l-2.4 0Z" fill="rgb(227,73,2)" fill-opacity="0.3"></path>
<path d="M668.2 271l2.4 0l0 -0.3l-2.4 0Z" fill="rgb(227,73,2)" fill-opacity="0.3"></path>
<path d="M671.7 271l2.4 0l0 -0.3l-2.4 0Z" fill="rgb(227,73,2)" fill-opacity="0.3"></path>
<path d="M675.2 271l2.4 0l0 -0.3l-2.4 0Z" fill="rgb(227,73,2)" fill-opacity="0.3"></path>
<path d="M678.7 271l2.4 0l0 -0.3l-2.4 0Z" fill="rgb(227,73,2)" fill-opacity="0.3"></path>
<path d="M682.3 271l2.4 0l0 -0.3l-2.4 0Z" fill="rgb(227,73,2)" fill-opacity="0.3"></path>
<path d="M685.8 271l2.4 0l0 -0.3l-2.4 0Z" fill="rgb(227,73,2)" fill-opacity="0.3"></path>
<path d="M689.3 271l2.4 0l0 -0.3l-2.4 0Z" fill="rgb(227,73,2)" fill-opacity="0.3"></path>
<path d="M692.8 271l2.4 0l0 -0.3l-2.4 0Z" fill="rgb(227,73,2)" fill-opacity="0.3"></path>
<path d="M696.4 271l2.4 0l0 -0.3l-2.4 0Z" fill="rgb(227,73,2)" fill-opacity="0.3"></path>
<path d="M699.9 271l2.4 0l0 -0.3l-2.4 0Z" fill="rgb(227,73,2)" fill-opacity="0.3"></path>
<path d="M703.4 271l2.4 0l0 -0.3l-2.4 0Z" fill="rgb(227,73,2)" fill-opacity="0.3"></path>
<path d="M706.9 271l2.4 0l0 -0.3l-2.4 0Z" fill="rgb(227,73,2)" fill-opacity="0.3"></path>
<path d="M710.4 271l2.4 0l0 -0.3l-2.4 0Z" fill="rgb(227,73,2)" fill-opacity="0.3"></path>
<path d="M714 271l2.4 0l0 -0.3l-2.4 0Z" fill="rgb(227,73,2)" fill-opacity="0.3"></path>
<path d="M717.5 271l2.4 0l0 -0.3l-2.4 0Z" fill="rgb(227,73,2)" fill-opacity="0.3"></path>
<path d="M721 271l2.4 0l0 -0.3l-2.4 0Z" fill="rgb(227,73,2)" fill-opacity="0.3"></path>
<path d="M724.5 271l2.4 0l0 -0.3l-2.4 0Z" fill="rgb(227,73,2)" fill-opacity="0.3"></path>
<path d="M728.1 271l2.4 0l0 -0.3l-2.4 0Z" fill="rgb(227,73,2)" fill-opacity="0.3"></path>
<path d="M731.6 271l2.4 0l0 -0.3l-2.4 0Z" fill="rgb(227,73,2)" fill-opacity="0.3"></path>
<path d="M735.1 271l2.4 0l0 -0.3l-2.4 0Z" fill="rgb(227,73,2)" fill-opacity="0.3"></path>
<path d="M738.6 271l2.4 0l0 -0.3l-2.4 0Z" fill="rgb(227,73,2)" fill-opacity="0.3"></path>
<path d="M742.1 271l2.4 0l0 -0.3l-2.4 0Z" fill="rgb(227,73,2)" fill-opacity="0.3"></path>
<path d="M745.7 271l2.4 0l0 -0.3l-2.4 0Z" fill="rgb(227,73,2)" fill-opacity="0.3"></path>
<path d="M749.2 271l2.4 0l0 -0.3l-2.4 0Z" fill="rgb(227,73,2)" fill-opacity="0.3"></path>
<path d="M752.7 271l2.4 0l0 -0.3l-2.4 0Z" fill="rgb(227,73,2)" fill-opacity="0.3"></path>
<path d="M756.2 271l2.4 0l0 -0.3l-2.4 0Z" fill="rgb(227,73,2)" fill-opacity="0.3"></path>
<path d="M759.8 271l2.4 0l0 -0.3l-2.4 0Z" fill="rgb(227,73,2)" fill-opacity="0.3"></path>
<path d="M763.3 271l2.4 0l0 -0.3l-2.4 0Z" fill="rgb(227,73,2)" fill-opacity="0.3"></path>
<path d="M766.8 271l2.4 0l0 -0.3l-2.4 0Z" fill="rgb(227,73,2)" fill-opacity="0.3"></path>
<path d="M770.3 271l2.4 0l0 -0.3l-2.4 0Z" fill="rgb(227,73,2)" fill-opacity="0.3"></path>
<path d="M773.9 271l2.4 0l0 -0.3l-2.4 0Z" fill="rgb(227,73,2)" fill-opacity="0.3"></path>
<path d="M777.4 271l2.4 0l0 -0.3l-2.4 0Z" fill="rgb(227,73,2)" fill-opacity="0.3"></path>
<path d="M780.9 271l2.4 0l0 -0.3l-2.4 0Z" fill="rgb(227,73,2)" fill-opacity="0.3"></path>
<path d="M784.4 271l2.4 0l0 -0.3l-2.4 0Z" fill="rgb(227,73,2)" fill-opacity="0.3"></path>
<path d="M787.9 271l2.4 0l0 -0.3l-2.4 0Z" fill="rgb(227,73,2)" fill-opacity="0.3"></path>
<path d="M791.5 271l2.4 0l0 -0.3l-2.4 0Z" fill="rgb(227,73,2)" fill-opacity="0.3"></path>
<path d="M795 271l2.4 0l0 -0.3l-2.4 0Z" fill="rgb(227,73,2)" fill-opacity="0.3"></path>
<path d="M798.5 271l2.4 0l0 -0.3l-2.4 0Z" fill="rgb(227,73,2)" fill-opacity="0.3"></path>
<path d="M802 271l2.4 0l0 -0.3l-2.4 0Z" fill="rgb(227,73,2)" fill-opacity="0.3"></path>
<path d="M805.6 271l2.4 0l0 -0.3l-2.4 0Z" fill="rgb(227,73,2)" fill-opacity="0.3"></path>
<path d="M809.1 271l2.4 0l0 -0.3l-2.4 0Z" fill="rgb(227,73,2)" fill-opacity="0.3"></path>
<path d="M812.6 271l2.4 0l0 -0.3l-2.4 0Z" fill="rgb(227,73,2)" fill-opacity="0.3"></path>
<path d="M816.1 271l2.4 0l0 -0.3l-2.4 0Z" fill="rgb(227,73,2)" fill-opacity="0.3"></path>
<path d="M819.7 271l2.4 0l0 -0.3l-2.4 0Z" fill="rgb(227,73,2)" fill-opacity="0.3"></path>
<path d="M823.2 271l2.4 0l0 -0.3l-2.4 0Z" fill="rgb(227,73,2)" fill-opacity="0.3"></path>
<path d="M826.7 271l2.4 0l0 -0.3l-2.4 0Z" fill="rgb(227,73,2)" fill-opacity="0.3"></path>
<path d="M830.2 271l2.4 0l0 -0.3l-2.4 0Z" fill="rgb(227,73,2)" fill-opacity="0.3"></path>
<path d="M833.7 271l2.4 0l0 -0.3l-2.4 0Z" fill="rgb(227,73,2)" fill-opacity="0.3"></path>
<path d="M837.3 271l2.4 0l0 -0.3l-2.4 0Z" fill="rgb(227,73,2)" fill-opacity="0.3"></path>
<path d="M840.8 271l2.4 0l0 -0.3l-2.4 0Z" fill="rgb(227,73,2)" fill-opacity="0.3"></path>
<path d="M844.3 271l2.4 0l0 -0.3l-2.4 0Z" fill="rgb(227,73,2)" fill-opacity="0.3"></path>
<path d="M847.8 271l2.4 0l0 -0.3l-2.4 0Z" fill="rgb(227,73,2)" fill-opacity="0.3"></path>
<path d="M851.4 271l2.4 0l0 -0.3l-2.4 0Z" fill="rgb(227,73,2)" fill-opacity="0.3"></path>
<path d="M854.9 271l2.4 0l0 -0.3l-2.4 0Z" fill="rgb(227,73,2)" fill-opacity="0.3"></path>
<path d="M858.4 271l2.4 0l0 -0.3l-2.4 0Z" fill="rgb(227,73,2)" fill-opacity="0.3"></path>
<path d="M861.9 271l2.4 0l0 -0.3l-2.4 0Z" fill="rgb(227,73,2)" fill-opacity="0.3"></path>
<path d="M865.5 271l2.4 0l0 -0.3l-2.4 0Z" fill="rgb(227,73,2)" fill-opacity="0.3"></path>
<path d="M869 271l2.4 0l0 -0.3l-2.4 0Z" fill="rgb(227,73,2)" fill-opacity="0.3"></path>
<path d="M872.5 271l2.4 0l0 -0.3l-2.4 0Z" fill="rgb(227,73,2)" fill-opacity="0.3"></path>
<path d="M876 271l2.4 0l0 -0.3l-2.4 0Z" fill="rgb(227,73,2)" fill-opacity="0.3"></path>
<path d="M879.5 271l2.4 0l0 -0.3l-2.4 0Z" fill="rgb(227,73,2)" fill-opacity="0.3"></path>
<path d="M883.1 271l2.4 0l0 -0.3l-2.4 0Z" fill="rgb(227,73,2)" fill-opacity="0.3"></path>
<path d="M886.6 271l2.4 0l0 -0.3l-2.4 0Z" fill="rgb(227,73,2)" fill-opacity="0.3"></path>
<path d="M890.1 271l2.4 0l0 -0.3l-2.4 0Z" fill="rgb(227,73,2)" fill-opacity="0.3"></path>
<path d="M893.6 271l2.4 0l0 -0.3l-2.4 0Z" fill="rgb(227,73,2)" fill-opacity="0.3"></path>
<path d="M897.2 271l2.4 0l0 -0.3l-2.4 0Z" fill="rgb(227,73,2)" fill-opacity="0.3"></path>
<path d="M900.7 271l2.4 0l0 -0.3l-2.4 0Z" fill="rgb(227,73,2)" fill-opacity="0.3"></path>
<path d="M904.2 271l2.4 0l0 -0.3l-2.4 0Z" fill="rgb(227,73,2)" fill-opacity="0.3"></path>
<path d="M907.7 271l2.4 0l0 -0.3l-2.4 0Z" fill="rgb(227,73,2)" fill-opacity="0.3"></path>
<path d="M911.2 271l2.4 0l0 -0.3l-2.4 0Z" fill="rgb(227,73,2)" fill-opacity="0.3"></path>
<path d="M914.8 271l2.4 0l0 -0.3l-2.4 0Z" fill="rgb(227,73,2)" fill-opacity="0.3"></path>
<path d="M918.3 271l2.4 0l0 -0.3l-2.4 0Z" fill="rgb(227,73,2)" fill-opacity="0.3"></path>
<path d="M921.8 271l2.4 0l0 -0.3l-2.4 0Z" fill="rgb(227,73,2)" fill-opacity="0.3"></path>
<path d="M925.3 271l2.4 0l0 -0.3l-2.4 0Z" fill="rgb(227,73,2)" fill-opacity="0.3"></path>
<path d="M928.9 271l2.4 0l0 -0.3l-2.4 0Z" fill="rgb(227,73,2)" fill-opacity="0.3"></path>
<path d="M-5 -5l226.9 0l0 24l-226.9 0Z" transform="translate(391.54 5)" fill="rgb(0,0,0)" fill-opacity="0" stroke="#ccc" stroke-width="0"></path>
<path d="M3.5 0L21.5 0A3.5 3.5 0 0 1 25 3.5L25 10.5A3.5 3.5 0 0 1 21.5 14L3.5 14A3.5 3.5 0 0 1 0 10.5L0 3.5A3.5 3.5 0 0 1 3.5 0" transform="translate(391.54 5)" fill="rgb(227,73,2)" fill-opacity="0.3"></path>
<text dominant-baseline="central" text-anchor="start" style="font-size:12px;font-family:sans-serif;" xml:space="preserve" x="30" y="7" transform="translate(391.54 5)" fill="#333">Times completed</text>
<path d="M0 7L25 7" transform="translate(524.1 5)" fill="#000" stroke="#E34902" stroke-width="2" stroke-linecap="butt" stroke-miterlimit="10"></path>
<path d="M18.1 7A5.6 5.6 0 1 1 18.1 6.4A5.6 5.6 0 0 1 18.1 7" transform="translate(524.1 5)" fill="#fff" stroke="#E34902" stroke-width="2" stroke-linecap="butt" stroke-miterlimit="10"></path>
<text dominant-baseline="central" text-anchor="start" style="font-size:12px;font-family:sans-serif;" x="30" y="7" transform="translate(524.1 5)" fill="#333">Eddington</text>
<path d="M-0.54 -0.89A0.6 0.6 0 1 1 0.54 -0.89C0.39 -0.56 0 -0.42 0 0C0 -0.42 -0.39 -0.56 -0.54 -0.89Z" transform="matrix(25,0,0,25,331.185,246.156)" fill="rgb(227,73,2)" fill-opacity="0.8"></path>
<text dominant-baseline="central" text-anchor="middle" style="font-size:12px;font-family:sans-serif;" transform="translate(331.185 220.0131)" fill="#eee" stroke="rgb(227,73,2)" stroke-width="2" paint-order="stroke" stroke-opacity="0.8" stroke-miterlimit="2">78</text>
<g clip-path="url(#zr0-c0)">
<path d="M59.9 270.7L63.4 270.5L67 270.2L70.5 270L74 269.7L77.5 269.5L81.1 269.2L84.6 269L88.1 268.7L91.6 268.5L95.2 268.2L98.7 268L102.2 267.7L105.7 267.5L109.2 267.2L112.8 267L116.3 266.7L119.8 266.5L123.3 266.2L126.9 266L130.4 265.7L133.9 265.5L137.4 265.2L140.9 265L144.5 264.7L148 264.5L151.5 264.2L155 264L158.6 263.7L162.1 263.5L165.6 263.2L169.1 263L172.7 262.7L176.2 262.5L179.7 262.2L183.2 262L186.7 261.7L190.3 261.5L193.8 261.2L197.3 261L200.8 260.7L204.4 260.5L207.9 260.2L211.4 259.9L214.9 259.7L218.5 259.4L222 259.2L225.5 258.9L229 258.7L232.5 258.4L236.1 258.2L239.6 257.9L243.1 257.7L246.6 257.4L250.2 257.2L253.7 256.9L257.2 256.7L260.7 256.4L264.2 256.2L267.8 255.9L271.3 255.7L274.8 255.4L278.3 255.2L281.9 254.9L285.4 254.7L288.9 254.4L292.4 254.2L296 253.9L299.5 253.7L303 253.4L306.5 253.2L310 252.9L313.6 252.7L317.1 252.4L320.6 252.2L324.1 251.9L327.7 251.7L331.2 251.4L334.7 251.2L338.2 250.9L341.8 250.7L345.3 250.4L348.8 250.2L352.3 249.9L355.8 249.6L359.4 249.4L362.9 249.1L366.4 248.9L369.9 248.6L373.5 248.4L377 248.1L380.5 247.9L384 247.6L387.6 247.4L391.1 247.1L394.6 246.9L398.1 246.6L401.6 246.4L405.2 246.1L408.7 245.9L412.2 245.6L415.7 245.4L419.3 245.1L422.8 244.9L426.3 244.6L429.8 244.4L433.3 244.1L436.9 243.9L440.4 243.6L443.9 243.4L447.4 243.1L451 242.9L454.5 242.6L458 242.4L461.5 242.1L465.1 241.9L468.6 241.6L472.1 241.4L475.6 241.1L479.1 240.9L482.7 240.6L486.2 240.4L489.7 240.1L493.2 239.9L496.8 239.6L500.3 239.4L503.8 239.1L507.3 238.8L510.9 238.6L514.4 238.3L517.9 238.1L521.4 237.8L524.9 237.6L528.5 237.3L532 237.1L535.5 236.8L539 236.6L542.6 236.3L546.1 236.1L549.6 235.8L553.1 235.6L556.7 235.3L560.2 235.1L563.7 234.8L567.2 234.6L570.7 234.3L574.3 234.1L577.8 233.8L581.3 233.6L584.8 233.3L588.4 233.1L591.9 232.8L595.4 232.6L598.9 232.3L602.4 232.1L606 231.8L609.5 231.6L613 231.3L616.5 231.1L620.1 230.8L623.6 230.6L627.1 230.3L630.6 230.1L634.2 229.8L637.7 229.6L641.2 229.3L644.7 229.1L648.2 228.8L651.8 228.5L655.3 228.3L658.8 228L662.3 227.8L665.9 227.5L669.4 227.3L672.9 227L676.4 226.8L680 226.5L683.5 226.3L687 226L690.5 225.8L694 225.5L697.6 225.3L701.1 225L704.6 224.8L708.1 224.5L711.7 224.3L715.2 224L718.7 223.8L722.2 223.5L725.8 223.3L729.3 223L732.8 222.8L736.3 222.5L739.8 222.3L743.4 222L746.9 221.8L750.4 221.5L753.9 221.3L757.5 221L761 220.8L764.5 220.5L768 220.3L771.5 220L775.1 219.8L778.6 219.5L782.1 219.3L785.6 219L789.2 218.8L792.7 218.5L796.2 218.3L799.7 218L803.3 217.7L806.8 217.5L810.3 217.2L813.8 217L817.3 216.7L820.9 216.5L824.4 216.2L827.9 216L831.4 215.7L835 215.5L838.5 215.2L842 215L845.5 214.7L849.1 214.5L852.6 214.2L856.1 214L859.6 213.7L863.1 213.5L866.7 213.2L870.2 213L873.7 212.7L877.2 212.5L880.8 212.2L884.3 212L887.8 211.7L891.3 211.5L894.8 211.2L898.4 211L901.9 210.7L905.4 210.5L908.9 210.2L912.5 210L916 209.7L919.5 209.5L923 209.2L926.6 209L930.1 208.7" fill="none" stroke="#E34902" stroke-width="2" stroke-linejoin="bevel"></path>
</g>
<defs >
<clipPath id="zr0-c0">
<path d="M57 59l876 0l0 213l-876 0Z" fill="#000"></path>
</clipPath>
</defs>
</svg>