<svg width="1000" height="300" xmlns="http://www.w3.org/2000/svg" xmlns:xlink="http://www.w3.org/1999/xlink" version="1.1" baseProfile="full" viewBox="0 0 1000 300">
<rect width="1000" height="300" x="0" y="0" id="0" fill="#ffffff"></rect>
<path d="M58.2 271.5L931.8 271.5" fill="none" stroke="#E0E6F1"></path>
<path d="M58.2 224.5L931.8 224.5" fill="none" stroke="#E0E6F1"></path>
<path d="M58.2 177.5L931.8 177.5" fill="none" stroke="#E0E6F1"></path>
<path d="M58.2 130.5L931.8 130.5" fill="none" stroke="#E0E6F1"></path>
<path d="M58.2 83.5L931.8 83.5" fill="none" stroke="#E0E6F1"></path>
<path d="M58.2 60.5L931.8 60.5" fill="none" stroke="#E0E6F1"></path>
<path d="M58.2 271.5L931.8 271.5" fill="none" stroke="#6E7079" stroke-linecap="round"></path>
<path d="M60.5 271L60.5 276" fill="none" stroke="#6E7079"></path>
<path d="M109.5 271L109.5 276" fill="none" stroke="#6E7079"></path>
<path d="M158.5 271L158.5 276" fill="none" stroke="#6E7079"></path>
<path d="M208.5 271L208.5 276" fill="none" stroke="#6E7079"></path>
<path d="M257.5 271L257.5 276" fill="none" stroke="#6E7079"></path>
<path d="M306.5 271L306.5 276" fill="none" stroke="#6E7079"></path>
<path d="M356.5 271L356.5 276" fill="none" stroke="#6E7079"></path>
<path d="M405.5 271L405.5 276" fill="none" stroke="#6E7079"></path>
<path d="M454.5 271L454.5 276" fill="none" stroke="#6E7079"></path>
<path d="M504.5 271L504.5 276" fill="none" stroke="#6E7079"></path>
<path d="M553.5 271L553.5 276" fill="none" stroke="#6E7079"></path>
<path d="M602.5 271L602.5 276" fill="none" stroke="#6E7079"></path>
<path d="M652.5 271L652.5 276" fill="none" stroke="#6E7079"></path>
<path d="M701.5 271L701.5 276" fill="none" stroke="#6E7079"></path>
<path d="M750.5 271L750.5 276" fill="none" stroke="#6E7079"></path>
<path d="M799.5 271L799.5 276" fill="none" stroke="#6E7079"></path>
<path d="M849.5 271L849.5 276" fill="none" stroke="#6E7079"></path>
<path d="M898.5 271L898.5 276" fill="none" stroke="#6E7079"></path>
<text dominant-baseline="central" text-anchor="end" style="font-size:12px;font-family:sans-serif;" transform="translate(50.16 271)" fill="#6E7079">0</text>
<text dominant-baseline="central" text-anchor="end" style="font-size:12px;font-family:sans-serif;" transform="translate(50.16 224.1111)" fill="#6E7079">180</text>
<text dominant-baseline="central" text-anchor="end" style="font-size:12px;font-family:sans-serif;" transform="translate(50.16 177.2222)" fill="#6E7079">360</text>
<text dominant-baseline="central" text-anchor="end" style="font-size:12px;font-family:sans-serif;" transform="translate(50.16 130.3333)" fill="#6E7079">540</text>
<text dominant-baseline="central" text-anchor="end" style="font-size:12px;font-family:sans-serif;" transform="translate(50.16 83.4444)" fill="#6E7079">720</text>
<text dominant-baseline="central" text-anchor="end" style="font-size:12px;font-family:sans-serif;" transform="translate(50.16 60)" fill="#6E7079">810</text>
<text dominant-baseline="central" text-anchor="start" style="font-size:12px;font-family:sans-serif;" transform="translate(939.84 271)" fill="#6E7079">0</text>
<text dominant-baseline="central" text-anchor="start" style="font-size:12px;font-family:sans-serif;" transform="translate(939.84 224.1111)" fill="#6E7079">180</text>
<text dominant-baseline="central" text-anchor="start" style="font-size:12px;font-family:sans-serif;" transform="translate(939.84 177.2222)" fill="#6E7079">360</text>
<text dominant-baseline="central" text-anchor="start" style="font-size:12px;font-family:sans-serif;" transform="translate(939.84 130.3333)" fill="#6E7079">540</text>
<text dominant-baseline="central" text-anchor="start" style="font-size:12px;font-family:sans-serif;" transform="translate(939.84 83.4444)" fill="#6E7079">720</text>
<text dominant-baseline="central" text-anchor="start" style="font-size:12px;font-family:sans-serif;" transform="translate(939.84 60)" fill="#6E7079">810</text>
<text dominant-baseline="central" text-anchor="middle" style="font-size:12px;font-family:sans-serif;" y="6" transform="translate(59.9215 279)" fill="#6E7079">1km</text>
<text dominant-baseline="central" text-anchor="middle" style="font-size:12px;font-family:sans-serif;" y="6" transform="translate(109.2421 279)" fill="#6E7079">15km</text>
<text dominant-baseline="central" text-anchor="middle" style="font-size:12px;font-family:sans-serif;" y="6" transform="translate(158.5627 279)" fill="#6E7079">29km</text>
<text dominant-baseline="central" text-anchor="middle" style="font-size:12px;font-family:sans-serif;" y="6" transform="translate(207.8834 279)" fill="#6E7079">43km</text>
<text dominant-baseline="central" text-anchor="middle" style="font-size:12px;font-family:sans-serif;" y="6" transform="translate(257.204 279)" fill="#6E7079">57km</text>
<text dominant-baseline="central" text-anchor="middle" style="font-size:12px;font-family:sans-serif;" y="6" transform="translate(306.5247 279)" fill="#6E7079">71km</text>
<text dominant-baseline="central" text-anchor="middle" style="font-size:12px;font-family:sans-serif;" y="6" transform="translate(355.8453 279)" fill="#6E7079">85km</text>
<text dominant-baseline="central" text-anchor="middle" style="font-size:12px;font-family:sans-serif;" y="6" transform="translate(405.166 279)" fill="#6E7079">99km</text>
<text dominant-baseline="central" text-anchor="middle" style="font-size:12px;font-family:sans-serif;" y="6" transform="translate(454.4866 279)" fill="#6E7079">113km</text>
<text dominant-baseline="central" text-anchor="middle" style="font-size:12px;font-family:sans-serif;" y="6" transform="translate(503.8073 279)" fill="#6E7079">127km</text>
<text dominant-baseline="central" text-anchor="middle" style="font-size:12px;font-family:sans-serif;" y="6" transform="translate(553.1279 279)" fill="#6E7079">141km</text>
<text dominant-baseline="central" text-anchor="middle" style="font-size:12px;font-family:sans-serif;" y="6" transform="translate(602.4485 279)" fill="#6E7079">155km</text>
<text dominant-baseline="central" text-anchor="middle" style="font-size:12px;font-family:sans-serif;" y="6" transform="translate(651.7692 279)" fill="#6E7079">169km</text>
<text dominant-baseline="central" text-anchor="middle" style="font-size:12px;font-family:sans-serif;" y="6" transform="translate(701.0898 279)" fill="#6E7079">183km</text>
<text dominant-baseline="central" text-anchor="middle" style="font-size:12px;font-family:sans-serif;" y="6" transform="translate(750.4105 279)" fill="#6E7079">197km</text>
<text dominant-baseline="central" text-anchor="middle" style="font-size:12px;font-family:sans-serif;" y="6" transform="translate(799.7311 279)" fill="#6E7079">211km</text>
<text dominant-baseline="central" text-anchor="middle" style="font-size:12px;font-family:sans-serif;" y="6" transform="translate(849.0518 279)" fill="#6E7079">225km</text>
<text dominant-baseline="central" text-anchor="middle" style="font-size:12px;font-family:sans-serif;" y="6" transform="translate(898.3724 279)" fill="#6E7079">239km</text>
<path d="M58.7 271l2.4 0l0 -210l-2.4 0Z" fill="rgb(227,73,2)" fill-opacity="0.3"></path>
<path d="M62.2 271l2.4 0l0 -210l-2.4 0Z" fill="rgb(227,73,2)" fill-opacity="0.3"></path>
<path d="M65.8 271l2.4 0l0 -210l-2.4 0Z" fill="rgb(227,73,2)" fill-opacity="0.3"></path>
<path d="M69.3 271l2.4 0l0 -208.9l-2.4 0Z" fill="rgb(227,73,2)" fill-opacity="0.3"></path>
<path d="M72.8 271l2.4 0l0 -207.9l-2.4 0Z" fill="rgb(227,73,2)" fill-opacity="0.3"></path>
<path d="M76.3 271l2.4 0l0 -206.6l-2.4 0Z" fill="rgb(227,73,2)" fill-opacity="0.3"></path>
<path d="M79.8 271l2.4 0l0 -206.3l-2.4 0Z" fill="rgb(227,73,2)" fill-opacity="0.3"></path>
<path d="M83.4 271l2.4 0l0 -203.7l-2.4 0Z" fill="rgb(227,73,2)" fill-opacity="0.3"></path>
<path d="M86.9 271l2.4 0l0 -201.4l-2.4 0Z" fill="rgb(227,73,2)" fill-opacity="0.3"></path>
<path d="M90.4 271l2.4 0l0 -198.5l-2.4 0Z" fill="rgb(227,73,2)" fill-opacity="0.3"></path>
<path d="M93.9 271l2.4 0l0 -183.9l-2.4 0Z" fill="rgb(227,73,2)" fill-opacity="0.3"></path>
<path d="M97.5 271l2.4 0l0 -176.9l-2.4 0Z" fill="rgb(227,73,2)" fill-opacity="0.3"></path>
<path d="M101 271l2.4 0l0 -170.9l-2.4 0Z" fill="rgb(227,73,2)" fill-opacity="0.3"></path>
<path d="M104.5 271l2.4 0l0 -164.9l-2.4 0Z" fill="rgb(227,73,2)" fill-opacity="0.3"></path>
<path d="M108 271l2.4 0l0 -161l-2.4 0Z" fill="rgb(227,73,2)" fill-opacity="0.3"></path>
<path d="M111.5 271l2.4 0l0 -154.7l-2.4 0Z" fill="rgb(227,73,2)" fill-opacity="0.3"></path>
<path d="M115.1 271l2.4 0l0 -149.3l-2.4 0Z" fill="rgb(227,73,2)" fill-opacity="0.3"></path>
<path d="M118.6 271l2.4 0l0 -145.9l-2.4 0Z" fill="rgb(227,73,2)" fill-opacity="0.3"></path>
<path d="M122.1 271l2.4 0l0 -142.5l-2.4 0Z" fill="rgb(227,73,2)" fill-opacity="0.3"></path>
<path d="M125.6 271l2.4 0l0 -139.9l-2.4 0Z" fill="rgb(227,73,2)" fill-opacity="0.3"></path>
<path d="M129.2 271l2.4 0l0 -131.5l-2.4 0Z" fill="rgb(227,73,2)" fill-opacity="0.3"></path>
<path d="M132.7 271l2.4 0l0 -124.5l-2.4 0Z" fill="rgb(227,73,2)" fill-opacity="0.3"></path>
<path d="M136.2 271l2.4 0l0 -120.1l-2.4 0Z" fill="rgb(227,73,2)" fill-opacity="0.3"></path>
<path d="M139.7 271l2.4 0l0 -114.6l-2.4 0Z" fill="rgb(227,73,2)" fill-opacity="0.3"></path>
<path d="M143.3 271l2.4 0l0 -110.2l-2.4 0Z" fill="rgb(227,73,2)" fill-opacity="0.3"></path>
<path d="M146.8 271l2.4 0l0 -100.3l-2.4 0Z" fill="rgb(227,73,2)" fill-opacity="0.3"></path>
<path d="M150.3 271l2.4 0l0 -95.9l-2.4 0Z" fill="rgb(227,73,2)" fill-opacity="0.3"></path>
<path d="M153.8 271l2.4 0l0 -92.2l-2.4 0Z" fill="rgb(227,73,2)" fill-opacity="0.3"></path>
<path d="M157.3 271l2.4 0l0 -88.8l-2.4 0Z" fill="rgb(227,73,2)" fill-opacity="0.3"></path>
<path d="M160.9 271l2.4 0l0 -86l-2.4 0Z" fill="rgb(227,73,2)" fill-opacity="0.3"></path>
<path d="M164.4 271l2.4 0l0 -80.2l-2.4 0Z" fill="rgb(227,73,2)" fill-opacity="0.3"></path>
<path d="M167.9 271l2.4 0l0 -77.6l-2.4 0Z" fill="rgb(227,73,2)" fill-opacity="0.3"></path>
<path d="M171.4 271l2.4 0l0 -74.8l-2.4 0Z" fill="rgb(227,73,2)" fill-opacity="0.3"></path>
<path d="M175 271l2.4 0l0 -73.5l-2.4 0Z" fill="rgb(227,73,2)" fill-opacity="0.3"></path>
<path d="M178.5 271l2.4 0l0 -72.2l-2.4 0Z" fill="rgb(227,73,2)" fill-opacity="0.3"></path>
<path d="M182 271l2.4 0l0 -70.1l-2.4 0Z" fill="rgb(227,73,2)" fill-opacity="0.3"></path>
<path d="M185.5 271l2.4 0l0 -68.2l-2.4 0Z" fill="rgb(227,73,2)" fill-opacity="0.3"></path>
<path d="M189.1 271l2.4 0l0 -66.7l-2.4 0Z" fill="rgb(227,73,2)" fill-opacity="0.3"></path>
<path d="M192.6 271l2.4 0l0 -64.9l-2.4 0Z" fill="rgb(227,73,2)" fill-opacity="0.3"></path>
<path d="M196.1 271l2.4 0l0 -64.1l-2.4 0Z" fill="rgb(227,73,2)" fill-opacity="0.3"></path>
<path d="M199.6 271l2.4 0l0 -58.4l-2.4 0Z" fill="rgb(227,73,2)" fill-opacity="0.3"></path>
<path d="M203.1 271l2.4 0l0 -57l-2.4 0Z" fill="rgb(227,73,2)" fill-opacity="0.3"></path>
<path d="M206.7 271l2.4 0l0 -55l-2.4 0Z" fill="rgb(227,73,2)" fill-opacity="0.3"></path>
<path d="M210.2 271l2.4 0l0 -53.4l-2.4 0Z" fill="rgb(227,73,2)" fill-opacity="0.3"></path>
<path d="M213.7 271l2.4 0l0 -51.1l-2.4 0Z" fill="rgb(227,73,2)" fill-opacity="0.3"></path>
<path d="M217.2 271l2.4 0l0 -49.8l-2.4 0Z" fill="rgb(227,73,2)" fill-opacity="0.3"></path>
<path d="M220.8 271l2.4 0l0 -49l-2.4 0Z" fill="rgb(227,73,2)" fill-opacity="0.3"></path>
<path d="M224.3 271l2.4 0l0 -47.4l-2.4 0Z" fill="rgb(227,73,2)" fill-opacity="0.3"></path>
<path d="M227.8 271l2.4 0l0 -47.1l-2.4 0Z" fill="rgb(227,73,2)" fill-opacity="0.3"></path>
<path d="M231.3 271l2.4 0l0 -46.9l-2.4 0Z" fill="rgb(227,73,2)" fill-opacity="0.3"></path>
<path d="M234.9 271l2.4 0l0 -43.5l-2.4 0Z" fill="rgb(227,73,2)" fill-opacity="0.3"></path>
<path d="M238.4 271l2.4 0l0 -42.7l-2.4 0Z" fill="rgb(227,73,2)" fill-opacity="0.3"></path>
<path d="M241.9 271l2.4 0l0 -40.1l-2.4 0Z" fill="rgb(227,73,2)" fill-opacity="0.3"></path>
<path d="M245.4 271l2.4 0l0 -38.3l-2.4 0Z" fill="rgb(227,73,2)" fill-opacity="0.3"></path>
<path d="M248.9 271l2.4 0l0 -38l-2.4 0Z" fill="rgb(227,73,2)" fill-opacity="0.3"></path>
<path d="M252.5 271l2.4 0l0 -35.4l-2.4 0Z" fill="rgb(227,73,2)" fill-opacity="0.3"></path>
<path d="M256 271l2.4 0l0 -34.6l-2.4 0Z" fill="rgb(227,73,2)" fill-opacity="0.3"></path>
<path d="M259.5 271l2.4 0l0 -34.1l-2.4 0Z" fill="rgb(227,73,2)" fill-opacity="0.3"></path>
<path d="M263 271l2.4 0l0 -33.3l-2.4 0Z" fill="rgb(227,73,2)" fill-opacity="0.3"></path>
<path d="M266.6 271l2.4 0l0 -32.8l-2.4 0Z" fill="rgb(227,73,2)" fill-opacity="0.3"></path>
<path d="M270.1 271l2.4 0l0 -31.5l-2.4 0Z" fill="rgb(227,73,2)" fill-opacity="0.3"></path>
<path d="M273.6 271l2.4 0l0 -30.7l-2.4 0Z" fill="rgb(227,73,2)" fill-opacity="0.3"></path>
<path d="M277.1 271l2.4 0l0 -30.5l-2.4 0Z" fill="rgb(227,73,2)" fill-opacity="0.3"></path>
<path d="M280.6 271l2.4 0l0 -30l-2.4 0Z" fill="rgb(227,73,2)" fill-opacity="0.3"></path>
<path d="M284.2 271l2.4 0l0 -28.9l-2.4 0Z" fill="rgb(227,73,2)" fill-opacity="0.3"></path>
<path d="M287.7 271l2.4 0l0 -28.1l-2.4 0Z" fill="rgb(227,73,2)" fill-opacity="0.3"></path>
<path d="M291.2 271l2.4 0l0 -28.1l-2.4 0Z" fill="rgb(227,73,2)" fill-opacity="0.3"></path>
<path d="M294.7 271l2.4 0l0 -27.4l-2.4 0Z" fill="rgb(227,73,2)" fill-opacity="0.3"></path>
<path d="M298.3 271l2.4 0l0 -26.6l-2.4 0Z" fill="rgb(227,73,2)" fill-opacity="0.3"></path>
<path d="M301.8 271l2.4 0l0 -25.8l-2.4 0Z" fill="rgb(227,73,2)" fill-opacity="0.3"></path>
<path d="M305.3 271l2.4 0l0 -24.5l-2.4 0Z" fill="rgb(227,73,2)" fill-opacity="0.3"></path>
<path d="M308.8 271l2.4 0l0 -24l-2.4 0Z" fill="rgb(227,73,2)" fill-opacity="0.3"></path>
<path d="M312.4 271l2.4 0l0 -23.4l-2.4 0Z" fill="rgb(227,73,2)" fill-opacity="0.3"></path>
<path d="M315.9 271l2.4 0l0 -22.9l-2.4 0Z" fill="rgb(227,73,2)" fill-opacity="0.3"></path>
<path d="M319.4 271l2.4 0l0 -22.7l-2.4 0Z" fill="rgb(227,73,2)" fill-opacity="0.3"></path>
<path d="M322.9 271l2.4 0l0 -21.9l-2.4 0Z" fill="rgb(227,73,2)" fill-opacity="0.3"></path>
<path d="M326.4 271l2.4 0l0 -21.1l-2.4 0Z" fill="rgb(227,73,2)" fill-opacity="0.8"></path>
<path d="M330 271l2.4 0l0 -20.1l-2.4 0Z" fill="rgb(227,73,2)" fill-opacity="0.3"></path>
<path d="M333.5 271l2.4 0l0 -19.5l-2.4 0Z" fill="rgb(227,73,2)" fill-opacity="0.3"></path>
<path d="M337 271l2.4 0l0 -19.3l-2.4 0Z" fill="rgb(227,73,2)" fill-opacity="0.3"></path>
<path d="M340.5 271l2.4 0l0 -18l-2.4 0Z" fill="rgb(227,73,2)" fill-opacity="0.3"></path>
<path d="M344.1 271l2.4 0l0 -16.9l-2.4 0Z" fill="rgb(227,73,2)" fill-opacity="0.3"></path>
<path d="M347.6 271l2.4 0l0 -16.2l-2.4 0Z" fill="rgb(227,73,2)" fill-opacity="0.3"></path>
<path d="M351.1 271l2.4 0l0 -15.1l-2.4 0Z" fill="rgb(227,73,2)" fill-opacity="0.3"></path>
<path d="M354.6 271l2.4 0l0 -14.8l-2.4 0Z" fill="rgb(227,73,2)" fill-opacity="0.3"></path>
<path d="M358.2 271l2.4 0l0 -14.1l-2.4 0Z" fill="rgb(227,73,2)" fill-opacity="0.3"></path>
<path d="M361.7 271l2.4 0l0 -13.8l-2.4 0Z" fill="rgb(227,73,2)" fill-opacity="0.3"></path>
<path d="M365.2 271l2.4 0l0 -13.8l-2.4 0Z" fill="rgb(227,73,2)" fill-opacity="0.3"></path>
<path d="M368.7 271l2.4 0l0 -13.8l-2.4 0Z" fill="rgb(227,73,2)" fill-opacity="0.3"></path>
<path d="M372.2 271l2.4 0l0 -13.3l-2.4 0Z" fill="rgb(227,73,2)" fill-opacity="0.3"></path>
<path d="M375.8 271l2.4 0l0 -13l-2.4 0Z" fill="rgb(227,73,2)" fill-opacity="0.3"></path>
<path d="M379.3 271l2.4 0l0 -12.8l-2.4 0Z" fill="rgb(227,73,2)" fill-opacity="0.3"></path>
<path d="M382.8 271l2.4 0l0 -12.5l-2.4 0Z" fill="rgb(227,73,2)" fill-opacity="0.3"></path>
<path d="M386.3 271l2.4 0l0 -12.5l-2.4 0Z" fill="rgb(227,73,2)" fill-opacity="0.3"></path>
<path d="M389.9 271l2.4 0l0 -12.5l-2.4 0Z" fill="rgb(227,73,2)" fill-opacity="0.3"></path>
<path d="M393.4 271l2.4 0l0 -12.5l-2.4 0Z" fill="rgb(227,73,2)" fill-opacity="0.3"></path>
<path d="M396.9 271l2.4 0l0 -12.5l-2.4 0Z" fill="rgb(227,73,2)" fill-opacity="0.3"></path>
<path d="M400.4 271l2.4 0l0 -12.2l-2.4 0Z" fill="rgb(227,73,2)" fill-opacity="0.3"></path>
<path d="M404 271l2.4 0l0 -12.2l-2.4 0Z" fill="rgb(227,73,2)" fill-opacity="0.3"></path>
<path d="M407.5 271l2.4 0l0 -12.2l-2.4 0Z" fill="rgb(227,73,2)" fill-opacity="0.3"></path>
<path d="M411 271l2.4 0l0 -10.2l-2.4 0Z" fill="rgb(227,73,2)" fill-opacity="0.3"></path>
<path d="M414.5 271l2.4 0l0 -9.6l-2.4 0Z" fill="rgb(227,73,2)" fill-opacity="0.3"></path>
<path d="M418 271l2.4 0l0 -9.1l-2.4 0Z" fill="rgb(227,73,2)" fill-opacity="0.3"></path>
<path d="M421.6 271l2.4 0l0 -8.9l-2.4 0Z" fill="rgb(227,73,2)" fill-opacity="0.3"></path>
<path d="M425.1 271l2.4 0l0 -8.9l-2.4 0Z" fill="rgb(227,73,2)" fill-opacity="0.3"></path>
<path d="M428.6 271l2.4 0l0 -8.6l-2.4 0Z" fill="rgb(227,73,2)" fill-opacity="0.3"></path>
<path d="M432.1 271l2.4 0l0 -7.8l-2.4 0Z" fill="rgb(227,73,2)" fill-opacity="0.3"></path>
<path d="M435.7 271l2.4 0l0 -7.6l-2.4 0Z" fill="rgb(227,73,2)" fill-opacity="0.3"></path>
<path d="M439.2 271l2.4 0l0 -7.3l-2.4 0Z" fill="rgb(227,73,2)" fill-opacity="0.3"></path>
<path d="M442.7 271l2.4 0l0 -7l-2.4 0Z" fill="rgb(227,73,2)" fill-opacity="0.3"></path>
<path d="M446.2 271l2.4 0l0 -6.5l-2.4 0Z" fill="rgb(227,73,2)" fill-opacity="0.3"></path>
<path d="M449.7 271l2.4 0l0 -5.7l-2.4 0Z" fill="rgb(227,73,2)" fill-opacity="0.3"></path>
<path d="M453.3 271l2.4 0l0 -5.2l-2.4 0Z" fill="rgb(227,73,2)" fill-opacity="0.3"></path>
<path d="M456.8 271l2.4 0l0 -5.2l-2.4 0Z" fill="rgb(227,73,2)" fill-opacity="0.3"></path>
<path d="M460.3 271l2.4 0l0 -4.9l-2.4 0Z" fill="rgb(227,73,2)" fill-opacity="0.3"></path>
<path d="M463.8 271l2.4 0l0 -4.9l-2.4 0Z" fill="rgb(227,73,2)" fill-opacity="0.3"></path>
<path d="M467.4 271l2.4 0l0 -4.9l-2.4 0Z" fill="rgb(227,73,2)" fill-opacity="0.3"></path>
<path d="M470.9 271l2.4 0l0 -4.2l-2.4 0Z" fill="rgb(227,73,2)" fill-opacity="0.3"></path>
<path d="M474.4 271l2.4 0l0 -3.9l-2.4 0Z" fill="rgb(227,73,2)" fill-opacity="0.3"></path>
<path d="M477.9 271l2.4 0l0 -3.6l-2.4 0Z" fill="rgb(227,73,2)" fill-opacity="0.3"></path>
<path d="M481.5 271l2.4 0l0 -3.1l-2.4 0Z" fill="rgb(227,73,2)" fill-opacity="0.3"></path>
<path d="M485 271l2.4 0l0 -2.9l-2.4 0Z" fill="rgb(227,73,2)" fill-opacity="0.3"></path>
<path d="M488.5 271l2.4 0l0 -2.6l-2.4 0Z" fill="rgb(227,73,2)" fill-opacity="0.3"></path>
<path d="M492 271l2.4 0l0 -2.6l-2.4 0Z" fill="rgb(227,73,2)" fill-opacity="0.3"></path>
<path d="M495.5 271l2.4 0l0 -2.3l-2.4 0Z" fill="rgb(227,73,2)" fill-opacity="0.3"></path>
<path d="M499.1 271l2.4 0l0 -2.3l-2.4 0Z" fill="rgb(227,73,2)" fill-opacity="0.3"></path>
<path d="M502.6 271l2.4 0l0 -2.3l-2.4 0Z" fill="rgb(227,73,2)" fill-opacity="0.3"></path>
<path d="M506.1 271l2.4 0l0 -2.3l-2.4 0Z" fill="rgb(227,73,2)" fill-opacity="0.3"></path>
<path d="M509.6 271l2.4 0l0 -2.3l-2.4 0Z" fill="rgb(227,73,2)" fill-opacity="0.3"></path>
<path d="M513.2 271l2.4 0l0 -2.3l-2.4 0Z" fill="rgb(227,73,2)" fill-opacity="0.3"></path>
<path d="M516.7 271l2.4 0l0 -2.1l-2.4 0Z" fill="rgb(227,73,2)" fill-opacity="0.3"></path>
<path d="M520.2 271l2.4 0l0 -2.1l-2.4 0Z" fill="rgb(227,73,2)" fill-opacity="0.3"></path>
<path d="M523.7 271l2.4 0l0 -2.1l-2.4 0Z" fill="rgb(227,73,2)" fill-opacity="0.3"></path>
<path d="M527.3 271l2.4 0l0 -2.1l-2.4 0Z" fill="rgb(227,73,2)" fill-opacity="0.3"></path>
<path d="M530.8 271l2.4 0l0 -2.1l-2.4 0Z" fill="rgb(227,73,2)" fill-opacity="0.3"></path>
<path d="M534.3 271l2.4 0l0 -2.1l-2.4 0Z" fill="rgb(227,73,2)" fill-opacity="0.3"></path>
<path d="M537.8 271l2.4 0l0 -2.1l-2.4 0Z" fill="rgb(227,73,2)" fill-opacity="0.3"></path>
<path d="M541.3 271l2.4 0l0 -2.1l-2.4 0Z" fill="rgb(227,73,2)" fill-opacity="0.3"></path>
<path d="M544.9 271l2.4 0l0 -2.1l-2.4 0Z" fill="rgb(227,73,2)" fill-opacity="0.3"></path>
<path d="M548.4 271l2.4 0l0 -2.1l-2.4 0Z" fill="rgb(227,73,2)" fill-opacity="0.3"></path>
<path d="M551.9 271l2.4 0l0 -2.1l-2.4 0Z" fill="rgb(227,73,2)" fill-opacity="0.3"></path>
<path d="M555.4 271l2.4 0l0 -1.8l-2.4 0Z" fill="rgb(227,73,2)" fill-opacity="0.3"></path>
<path d="M559 271l2.4 0l0 -1.8l-2.4 0Z" fill="rgb(227,73,2)" fill-opacity="0.3"></path>
<path d="M562.5 271l2.4 0l0 -1.8l-2.4 0Z" fill="rgb(227,73,2)" fill-opacity="0.3"></path>
<path d="M566 271l2.4 0l0 -1.8l-2.4 0Z" fill="rgb(227,73,2)" fill-opacity="0.3"></path>
<path d="M569.5 271l2.4 0l0 -1.8l-2.4 0Z" fill="rgb(227,73,2)" fill-opacity="0.3"></path>
<path d="M573 271l2.4 0l0 -1.6l-2.4 0Z" fill="rgb(227,73,2)" fill-opacity="0.3"></path>
<path d="M576.6 271l2.4 0l0 -1.6l-2.4 0Z" fill="rgb(227,73,2)" fill-opacity="0.3"></path>
<path d="M580.1 271l2.4 0l0 -1.6l-2.4 0Z" fill="rgb(227,73,2)" fill-opacity="0.3"></path>
<path d="M583.6 271l2.4 0l0 -1.3l-2.4 0Z" fill="rgb(227,73,2)" fill-opacity="0.3"></path>
<path d="M587.1 271l2.4 0l0 -1.3l-2.4 0Z" fill="rgb(227,73,2)" fill-opacity="0.3"></path>
<path d="M590.7 271l2.4 0l0 -1.3l-2.4 0Z" fill="rgb(227,73,2)" fill-opacity="0.3"></path>
<path d="M594.2 271l2.4 0l0 -1.3l-2.4 0Z" fill="rgb(227,73,2)" fill-opacity="0.3"></path>
<path d="M597.7 271l2.4 0l0 -1.3l-2.4 0Z" fill="rgb(227,73,2)" fill-opacity="0.3"></path>
<path d="M601.2 271l2.4 0l0 -1l-2.4 0Z" fill="rgb(227,73,2)" fill-opacity="0.3"></path>
<path d="M604.8 271l2.4 0l0 -1l-2.4 0Z" fill="rgb(227,73,2)" fill-opacity="0.3"></path>
<path d="M608.3 271l2.4 0l0 -0.8l-2.4 0Z" fill="rgb(227,73,2)" fill-opacity="0.3"></path>
<path d="M611.8 271l2.4 0l0 -0.8l-2.4 0Z" fill="rgb(227,73,2)" fill-opacity="0.3"></path>
<path d="M615.3 271l2.4 0l0 -0.5l-2.4 0Z" fill="rgb(227,73,2)" fill-opacity="0.3"></path>
<path d="M618.8 271l2.4 0l0 -0.5l-2.4 0Z" fill="rgb(227,73,2)" fill-opacity="0.3"></path>
<path d="M622.4 271l2.4 0l0 -0.5l-2.4 0Z" fill="rgb(227,73,2)" fill-opacity="0.3"></path>
<path d="M625.9 271l2.4 0l0 -0.3l-2.4 0Z" fill="rgb(227,73,2)" fill-opacity="0.3"></path>
<path d="M629.4 271l2.4 0l0 -0.3l-2.4 0Z" fill="rgb(227,73,2)" fill-opacity="0.3"></path>
<path d="M632.9 271l2.4 0l0 -0.3l-2.4 0Z" fill="rgb(227,73,2)" fill-opacity="0.3"></path>
<path d="M636.5 271l2.4 0l0 -0.3l-2.4 0Z" fill="rgb(227,73,2)" fill-opacity="0.3"></path>
<path d="M640 271l2.4 0l0 -0.3l-2.4 0Z" fill="rgb(227,73,2)" fill-opacity="0.3"></path>
<path d="M643.5 271l2.4 0l0 -0.3l-2.4 0Z" fill="rgb(227,73,2)" fill-opacity="0.3"></path>
<path d="M647 271l2.4 0l0 -0.3l-2.4 0Z" fill="rgb(227,73,2)" fill-opacity="0.3"></path>
<path d="M650.6 271l2.4 0l0 -0.3l-2.4 0Z" fill="rgb(227,73,2)" fill-opacity="0.3"></path>
<path d="M654.1 271l2.4 0l0 -0.3l-2.4 0Z" fill="rgb(227,73,2)" fill-opacity="0.3"></path>
<path d="M657.6 271l2.4 0l0 -0.3l-2.4 0Z" fill="rgb(227,73,2)" fill-opacity="0.3"></path>
<path d="M661.1 271l2.4 0l0 -0.3l-2.4 0Z" fill="rgb(227,73,2)" fill-opacity="0.3"></path>
<path d="M664.6 271l2.4 0l0 -0.3l-2.4 0Z" fill="rgb(227,73,2)" fill-opacity="0.3"></path>
<path d="M668.2 271l2.4 0l0 -0.3l-2.4 0Z" fill="rgb(227,73,2)" fill-opacity="0.3"></path>
<path d="M671.7 271l2.4 0l0 -0.3l-2.4 0Z" fill="rgb(227,73,2)" fill-opacity="0.3"></path>
<path d="M675.2 271l2.4 0l0 -0.3l-2.4 0Z" fill="rgb(227,73,2)" fill-opacity="0.3"></path>
<path d="M678.7 271l2.4 0l0 -0.3l-2.4 0Z" fill="rgb(227,73,2)" fill-opacity="0.3"></path>
<path d="M682.3 271l2.4 0l0 -0.3l-2.4 0Z" fill="rgb(227,73,2)" fill-opacity="0.3"></path>
<path d="M685.8 271l2.4 0l0 -0.3l-2.4 0Z" fill="rgb(227,73,2)" fill-opacity="0.3"></path>
<path d="M689.3 271l2.4 0l0 -0.3l-2.4 0Z" fill="rgb(227,73,2)" fill-opacity="0.3"></path>
<path d="M692.8 271l2.4 0l0 -0.3l-2.4 0Z" fill="rgb(227,73,2)" fill-opacity="0.3"></path>
<path d="M696.4 271l2.4 0l0 -0.3l-2.4 0Z" fill="rgb(227,73,2)" fill-opacity="0.3"></path>
<path d="M699.9 271l2.4 0l0 -0.3l-2.4 0Z" fill="rgb(227,73,2)" fill-opacity="0.3"></path>
<path d="M703.4 271l2.4 0l0 -0.3l-2.4 0Z" fill="rgb(227,73,2)" fill-opacity="0.3"></path>
<path d="M706.9 271l2.4 0l0 -0.3l-2.4 0Z" fill="rgb(227,73,2)" fill-opacity="0.3"></path>
<path d="M710.4 271l2.4 0l0 -0.3l-2.4 0Z" fill="rgb(227,73,2)" fill-opacity="0.3"></path>
<path d="M714 271l2.4 0l0 -0.3l-2.4 0Z" fill="rgb(227,73,2)" fill-opacity="0.3"></path>
<path d="M717.5 271l2.4 0l0 -0.3l-2.4 0Z" fill="rgb(227,73,2)" fill-opacity="0.3"></path>
<path d="M721 271l2.4 0l0 -0.3l-2.4 0Z" fill="rgb(227,73,2)" fill-opacity="0.3"></path>
<path d="M724.5 271l2.4 0l0 -0.3l-2.4 0Z" fill="rgb(227,73,2)" fill-opacity="0.3"></path>
<path d="M728.1 271l2.4 0l0 -0.3l-2.4 0Z" fill="rgb(227,73,2)" fill-opacity="0.3"></path>
<path d="M731.6 271l2.4 0l0 -0.3l-2.4 0Z" fill="rgb(227,73,2)" fill-opacity="0.3"></path>
<path d="M735.1 271l2.4 0l0 -0.3l-2.4 0Z" fill="rgb(227,73,2)" fill-opacity="0.3"></path>
<path d="M738.6 271l2.4 0l0 -0.3l-2.4 0Z" fill="rgb(227,73,2)" fill-opacity="0.3"></path>
<path d="M742.1 271l2.4 0l0 -0.3l-2.4 0Z" fill="rgb(227,73,2)" fill-opacity="0.3"></path>
<path d="M745.7 271l2.4 0l0 -0.3l-2.4 0Z" fill="rgb(227,73,2)" fill-opacity="0.3"></path>
<path d="M749.2 271l2.4 0l0 -0.3l-2.4 0Z" fill="rgb(227,73,2)" fill-opacity="0.3"></path>
<path d="M752.7 271l2.4 0l0 -0.3l-2.4 0Z" fill="rgb(227,73,2)" fill-opacity="0.3"></path>
<path d="M756.2 271l2.4 0l0 -0.3l-2.4 0Z" fill="rgb(227,73,2)" fill-opacity="0.3"></path>
<path d="M759.8 271l2.4 0l0 -0.3l-2.4 0Z" fill="rgb(227,73,2)" fill-opacity="0.3"></path>
<path d="M763.3 271l2.4 0l0 -0.3l-2.4 0Z" fill="rgb(227,73,2)" fill-opacity="0.3"></path>
<path d="M766.8 271l2.4 0l0 -0.3l-2.4 0Z" fill="rgb(227,73,2)" fill-opacity="0.3"></path>
<path d="M770.3 271l2.4 0l0 -0.3l-2.4 0Z" fill="rgb(227,73,2)" fill-opacity="0.3"></path>
<path d="M773.9 271l2.4 0l0 -0.3l-2.4 0Z" fill="rgb(227,73,2)" fill-opacity="0.3"></path>
<path d="M777.4 271l2.4 0l0 -0.3l-2.4 0Z" fill="rgb(227,73,2)" fill-opacity="0.3"></path>
<path d="M780.9 271l2.4 0l0 -0.3l-2.4 0Z" fill="rgb(227,73,2)" fill-opacity="0.3"></path>
<path d="M784.4 271l2.4 0l0 -0.3l-2.4 0Z" fill="rgb(227,73,2)" fill-opacity="0.3"></path>
<path d="M787.9 271l2.4 0l0 -0.3l-2.4 0Z" fill="rgb(227,73,2)" fill-opacity="0.3"></path>
<path d="M791.5 271l2.4 0l0 -0.3l-2.4 0Z" fill="rgb(227,73,2)" fill-opacity="0.3"></path>
<path d="M795 271l2.4 0l0 -0.3l-2.4 0Z" fill="rgb(227,73,2)" fill-opacity="0.3"></path>
<path d="M798.5 271l2.4 0l0 -0.3l-2.4 0Z" fill="rgb(227,73,2)" fill-opacity="0.3"></path>
<path d="M802 271l2.4 0l0 -0.3l-2.4 0Z" fill="rgb(227,73,2)" fill-opacity="0.3"></path>
<path d="M805.6 271l2.4 0l0 -0.3l-2.4 0Z" fill="rgb(227,73,2)" fill-opacity="0.3"></path>
<path d="M809.1 271l2.4 0l0 -0.3l-2.4 0Z" fill="rgb(227,73,2)" fill-opacity="0.3"></path>
<path d="M812.6 271l2.4 0l0 -0.3l-2.4 0Z" fill="rgb(227,73,2)" fill-opacity="0.3"></path>
<path d="M816.1 271l2.4 0l0 -0.3l-2.4 0Z" fill="rgb(227,73,2)" fill-opacity="0.3"></path>
<path d="M819.7 271l2.4 0l0 -0.3l-2.4 0Z" fill="rgb(227,73,2)" fill-opacity="0.3"></path>
<path d="M823.2 271l2.4 0l0 -0.3l-2.4 0Z" fill="rgb(227,73,2)" fill-opacity="0.3"></path>
<path d="M826.7 271l2.4 0l0 -0.3l-2.4 0Z" fill="rgb(227,73,2)" fill-opacity="0.3"></path>
<path d="M830.2 271l2.4 0l0 -0.3l-2.4 0Z" fill="rgb(227,73,2)" fill-opacity="0.3"></path>
<path d="M833.7 271l2.4 0l0 -0.3l-2.4 0Z" fill="rgb(227,73,2)" fill-opacity="0.3"></path>
<path d="M837.3 271l2.4 0l0 -0.3l-2.4 0Z" fill="rgb(227,73,2)" fill-opacity="0.3"></path>
<path d="M840.8 271l2.4 0l0 -0.3l-2.4 0Z" fill="rgb(227,73,2)" fill-opacity="0.3"></path>
<path d="M844.3 271l2.4 0l0 -0.3l-2.4 0Z" fill="rgb(227,73,2)" fill-opacity="0.3"></path>
<path d="M847.8 271l2.4 0l0 -0.3l-2.4 0Z" fill="rgb(227,73,2)" fill-opacity="0.3"></path>
<path d="M851.4 271l2.4 0l0 -0.3l-2.4 0Z" fill="rgb(227,73,2)" fill-opacity="0.3"></path>
<path d="M854.9 271l2.4 0l0 -0.3l-2.4 0Z" fill="rgb(227,73,2)" fill-opacity="0.3"></path>
<path d="M858.4 271l2.4 0l0 -0.3l-2.4 0Z" fill="rgb(227,73,2)" fill-opacity="0.3"></path>
<path d="M861.9 271l2.4 0l0 -0.3l-2.4 0Z" fill="rgb(227,73,2)" fill-opacity="0.3"></path>
<path d="M865.5 271l2.4 0l0 -0.3l-2.4 0Z" fill="rgb(227,73,2)" fill-opacity="0.3"></path>
<path d="M869 271l2.4 0l0 -0.3l-2.4 0Z" fill="rgb(227,73,2)" fill-opacity="0.3"></path>
<path d="M872.5 271l2.4 0l0 -0.3l-2.4 0Z" fill="rgb(227,73,2)" fill-opacity="0.3"></path>
<path d="M876 271l2.4 0l0 -0.3l-2.4 0Z" fill="rgb(227,73,2)" fill-opacity="0.3"></path>
<path d="M879.5 271l2.4 0l0 -0.3l-2.4 0Z" fill="rgb(227,73,2)" fill-opacity="0.3"></path>
<path d="M883.1 271l2.4 0l0 -0.3l-2.4 0Z" fill="rgb(227,73,2)" fill-opacity="0.3"></path>
<path d="M886.6 271l2.4 0l0 -0.3l-2.4 0Z" fill="rgb(227,73,2)" fill-opacity="0.3"></path>
<path d="M890.1 271l2.4 0l0 -0.3l-2.4 0Z" fill="rgb(227,73,2)" fill-opacity="0.3"></path>
<path d="M893.6 271l2.4 0l0 -0.3l-2.4 0Z" fill="rgb(227,73,2)" fill-opacity="0.3"></path>
<path d="M897.2 271l2.4 0l0 -0.3l-2.4 0Z" fill="rgb(227,73,2)" fill-opacity="0.3"></path>
<path d="M900.7 271l2.4 0l0 -0.3l-2.4 0Z" fill="rgb(227,73,2)" fill-opacity="0.3"></path>
<path d="M904.2 271l2.4 0l0 -0.3l-2.4 0Z" fill="rgb(227,73,2)" fill-opacity="0.3"></path>
<path d="M907.7 271l2.4 0l0 -0.3l-2.4 0Z" fill="rgb(227,73,2)" fill-opacity="0.3"></path>
<path d="M911.2 271l2.4 0l0 -0.3l-2.4 0Z" fill="rgb(227,73,2)" fill-opacity="0.3"></path>
<path d="M914.8 271l2.4 0l0 -0.3l-2.4 0Z" fill="rgb(227,73,2)" fill-opacity="0.3"></path>
<path d="M918.3 271l2.4 0l0 -0.3l-2.4 0Z" fill="rgb(227,73,2)" fill-opacity="0.3"></path>
<path d="M921.8 271l2.4 0l0 -0.3l-2.4 0Z" fill="rgb(227,73,2)" fill-opacity="0.3"></path>
<path d="M925.3 271l2.4 0l0 -0.3l-2.4 0Z" fill="rgb(227,73,2)" fill-opacity="0.3"></path>
<path d="M928.9 271l2.4 0l0 -0.3l-2.4 0Z" fill="rgb(227,73,2)" fill-opacity="0.3"></path>
<path d="M-5 -5l226.9 0l0 24l-226.9 0Z" transform="translate(391.54 5)" fill="rgb(0,0,0)" fill-opacity="0" stroke="#ccc" stroke-width="0"></path>
<path d="M3.5 0L21.5 0A3.5 3.5 0 0 1 25 3.5L25 10.5A3.5 3.5 0 0 1 21.5 14L3.5 14A3.5 3.5 0 0 1 0 10.5L0 3.5A3.5 3.5 0 0 1 3.5 0" transform="translate(391.54 5)" fill="rgb(227,73,2)" fill-opacity="0.3"></path>
<text dominant-baseline="central" text-anchor="start" style="font-size:12px;font-family:sans-serif;" xml:space="preserve" x="30" y="7" transform="translate(391.54 5)" fill="#333">Times completed</text>
<path d="M0 7L25 7" transform="translate(524.1 5)" fill="#000" stroke="#E34902" stroke-width="2" stroke-linecap="butt" stroke-miterlimit="10"></path>
<path d="M18.1 7A5.6 5.6 0 1 1 18.1 6.4A5.6 5.6 0 0 1 18.1 7" transform="translate(524.1 5)" fill="#fff" stroke="#E34902" stroke-width="2" stroke-linecap="butt" stroke-miterlimit="10"></path>
<text dominant-baseline="central" text-anchor="start" style="font-size:12px;font-family:sans-serif;" x="30" y="7" transform="translate(524.1 5)" fill="#333">Eddington</text>
<path d="M-0.54 -0.89A0.6 0.6 0 1 1 0.54 -0.89C0.39 -0.56 0 -0.42 0 0C0 -0.42 -0.39 -0.56 -0.54 -0.89Z" transform="matrix(25,0,0,25,327.6621,245.1605)" fill="rgb(227,73,2)" fill-opacity="0.8"></path>
<text dominant-baseline="central" text-anchor="middle" style="font-size:12px;font-family:sans-serif;" transform="translate(327.6621 219.0176)" fill="#eee" stroke="rgb(227,73,2)" stroke-width="2" paint-order="stroke" stroke-opacity="0.8" stroke-miterlimit="2">77</text>
<g clip-path="url(#zr0-c0)">
<path d="M59.9 270.7L63.4 270.5L67 270.2L70.5 270L74 269.7L77.5 269.4L81.1 269.2L84.6 268.9L88.1 268.7L91.6 268.4L95.2 268.1L98.7 267.9L102.2 267.6L105.7 267.4L109.2 267.1L112.8 266.8L116.3 266.6L119.8 266.3L123.3 266.1L126.9 265.8L130.4 265.5L133.9 265.3L137.4 265L140.9 264.7L144.5 264.5L148 264.2L151.5 264L155 263.7L158.6 263.4L162.1 263.2L165.6 262.9L169.1 262.7L172.7 262.4L176.2 262.1L179.7 261.9L183.2 261.6L186.7 261.4L190.3 261.1L193.8 260.8L197.3 260.6L200.8 260.3L204.4 260.1L207.9 259.8L211.4 259.5L214.9 259.3L218.5 259L222 258.8L225.5 258.5L229 258.2L232.5 258L236.1 257.7L239.6 257.5L243.1 257.2L246.6 256.9L250.2 256.7L253.7 256.4L257.2 256.2L260.7 255.9L264.2 255.6L267.8 255.4L271.3 255.1L274.8 254.8L278.3 254.6L281.9 254.3L285.4 254.1L288.9 253.8L292.4 253.5L296 253.3L299.5 253L303 252.8L306.5 252.5L310 252.2L313.6 252L317.1 251.7L320.6 251.5L324.1 251.2L327.7 250.9L331.2 250.7L334.7 250.4L338.2 250.2L341.8 249.9L345.3 249.6L348.8 249.4L352.3 249.1L355.8 248.9L359.4 248.6L362.9 248.3L366.4 248.1L369.9 247.8L373.5 247.6L377 247.3L380.5 247L384 246.8L387.6 246.5L391.1 246.3L394.6 246L398.1 245.7L401.6 245.5L405.2 245.2L408.7 245L412.2 244.7L415.7 244.4L419.3 244.2L422.8 243.9L426.3 243.6L429.8 243.4L433.3 243.1L436.9 242.9L440.4 242.6L443.9 242.3L447.4 242.1L451 241.8L454.5 241.6L458 241.3L461.5 241L465.1 240.8L468.6 240.5L472.1 240.3L475.6 240L479.1 239.7L482.7 239.5L486.2 239.2L489.7 239L493.2 238.7L496.8 238.4L500.3 238.2L503.8 237.9L507.3 237.7L510.9 237.4L514.4 237.1L517.9 236.9L521.4 236.6L524.9 236.4L528.5 236.1L532 235.8L535.5 235.6L539 235.3L542.6 235.1L546.1 234.8L549.6 234.5L553.1 234.3L556.7 234L560.2 233.7L563.7 233.5L567.2 233.2L570.7 233L574.3 232.7L577.8 232.4L581.3 232.2L584.8 231.9L588.4 231.7L591.9 231.4L595.4 231.1L598.9 230.9L602.4 230.6L606 230.4L609.5 230.1L613 229.8L616.5 229.6L620.1 229.3L623.6 229.1L627.1 228.8L630.6 228.5L634.2 228.3L637.7 228L641.2 227.8L644.7 227.5L648.2 227.2L651.8 227L655.3 226.7L658.8 226.5L662.3 226.2L665.9 225.9L669.4 225.7L672.9 225.4L676.4 225.2L680 224.9L683.5 224.6L687 224.4L690.5 224.1L694 223.9L697.6 223.6L701.1 223.3L704.6 223.1L708.1 222.8L711.7 222.5L715.2 222.3L718.7 222L722.2 221.8L725.8 221.5L729.3 221.2L732.8 221L736.3 220.7L739.8 220.5L743.4 220.2L746.9 219.9L750.4 219.7L753.9 219.4L757.5 219.2L761 218.9L764.5 218.6L768 218.4L771.5 218.1L775.1 217.9L778.6 217.6L782.1 217.3L785.6 217.1L789.2 216.8L792.7 216.6L796.2 216.3L799.7 216L803.3 215.8L806.8 215.5L810.3 215.3L813.8 215L817.3 214.7L820.9 214.5L824.4 214.2L827.9 214L831.4 213.7L835 213.4L838.5 213.2L842 212.9L845.5 212.6L849.1 212.4L852.6 212.1L856.1 211.9L859.6 211.6L863.1 211.3L866.7 211.1L870.2 210.8L873.7 210.6L877.2 210.3L880.8 210L884.3 209.8L887.8 209.5L891.3 209.3L894.8 209L898.4 208.7L901.9 208.5L905.4 208.2L908.9 208L912.5 207.7L916 207.4L919.5 207.2L923 206.9L926.6 206.7L930.1 206.4" fill="none" stroke="#E34902" stroke-width="2" stroke-linejoin="bevel"></path>
</g>
<defs >
<clipPath id="zr0-c0">
<path d="M57 59l876 0l0 213l-876 0Z" fill="#000"></path>
</clipPath>
</defs>
</svg>