<svg width="1000" height="300" xmlns="http://www.w3.org/2000/svg" xmlns:xlink="http://www.w3.org/1999/xlink" version="1.1" baseProfile="full" viewBox="0 0 1000 300">
<rect width="1000" height="300" x="0" y="0" id="0" fill="#ffffff"></rect>
<path d="M77.5 60L77.5 271" fill="none" stroke="#E0E6F1"></path>
<path d="M165.5 60L165.5 271" fill="none" stroke="#E0E6F1"></path>
<path d="M254.5 60L254.5 271" fill="none" stroke="#E0E6F1"></path>
<path d="M342.5 60L342.5 271" fill="none" stroke="#E0E6F1"></path>
<path d="M430.5 60L430.5 271" fill="none" stroke="#E0E6F1"></path>
<path d="M518.5 60L518.5 271" fill="none" stroke="#E0E6F1"></path>
<path d="M607.5 60L607.5 271" fill="none" stroke="#E0E6F1"></path>
<path d="M695.5 60L695.5 271" fill="none" stroke="#E0E6F1"></path>
<path d="M783.5 60L783.5 271" fill="none" stroke="#E0E6F1"></path>
<path d="M871.5 60L871.5 271" fill="none" stroke="#E0E6F1"></path>
<path d="M960.5 60L960.5 271" fill="none" stroke="#E0E6F1"></path>
<path d="M77.5 271.5L960 271.5" fill="none" stroke="#6E7079" stroke-linecap="round"></path>
<text dominant-baseline="central" text-anchor="end" style="font-size:12px;font-family:sans-serif;" xml:space="preserve" transform="translate(69.48 271)" fill="#6E7079">0 km</text>
<text dominant-baseline="central" text-anchor="end" style="font-size:12px;font-family:sans-serif;" xml:space="preserve" transform="translate(69.48 228.8)" fill="#6E7079">50 km</text>
<text dominant-baseline="central" text-anchor="end" style="font-size:12px;font-family:sans-serif;" xml:space="preserve" transform="translate(69.48 186.6)" fill="#6E7079">100 km</text>
<text dominant-baseline="central" text-anchor="end" style="font-size:12px;font-family:sans-serif;" xml:space="preserve" transform="translate(69.48 144.4)" fill="#6E7079">150 km</text>
<text dominant-baseline="central" text-anchor="end" style="font-size:12px;font-family:sans-serif;" xml:space="preserve" transform="translate(69.48 102.2)" fill="#6E7079">200 km</text>
<text dominant-baseline="central" text-anchor="end" style="font-size:12px;font-family:sans-serif;" xml:space="preserve" transform="translate(69.48 60)" fill="#6E7079">250 km</text>
<text dominant-baseline="central" text-anchor="middle" style="font-size:12px;font-family:sans-serif;" xml:space="preserve" y="6" transform="translate(165.732 279)" fill="#6E7079">Mar 2024</text>
<text dominant-baseline="central" text-anchor="middle" style="font-size:12px;font-family:sans-serif;" xml:space="preserve" y="6" transform="translate(518.74 279)" fill="#6E7079">Apr 2024</text>
<text dominant-baseline="central" text-anchor="middle" style="font-size:12px;font-family:sans-serif;" xml:space="preserve" y="6" transform="translate(960 279)" fill="#6E7079">May 2024</text>
<g clip-path="url(#zr5-c0)">
<path d="M77.5 258.3L165.7 180.7L254 185.8L342.2 109.8L430.5 254.1L518.7 184.9L607 130.1L695.2 136L783.5 101.4L871.7 63.4L960 271L871.7 271L783.5 271L695.2 271L607 271L518.7 271L430.5 271L342.2 271L254 271L165.7 271L77.5 271Z" fill="rgb(227,73,2)" fill-opacity="0.09"></path>
<path d="M77.5 258.3L165.7 180.7L254 185.8L342.2 109.8L430.5 254.1L518.7 184.9L607 130.1L695.2 136L783.5 101.4L871.7 63.4L960 271" fill="none" stroke="#E34902" stroke-linejoin="bevel"></path>
</g>
<path d="M1 0A1 1 0 1 1 1 -0.1A1 1 0 0 1 1 0" transform="matrix(3,0,0,3,77.48,258.34)" fill="#fff" stroke="#E34902" stroke-width="0.6666666666666666"></path>
<path d="M1 0A1 1 0 1 1 1 -0.1A1 1 0 0 1 1 0" transform="matrix(3,0,0,3,165.732,180.692)" fill="#fff" stroke="#E34902" stroke-width="0.6666666666666666"></path>
<path d="M1 0A1 1 0 1 1 1 -0.1A1 1 0 0 1 1 0" transform="matrix(3,0,0,3,253.984,185.756)" fill="#fff" stroke="#E34902" stroke-width="0.6666666666666666"></path>
<path d="M1 0A1 1 0 1 1 1 -0.1A1 1 0 0 1 1 0" transform="matrix(3,0,0,3,342.236,109.796)" fill="#fff" stroke="#E34902" stroke-width="0.6666666666666666"></path>
<path d="M1 0A1 1 0 1 1 1 -0.1A1 1 0 0 1 1 0" transform="matrix(3,0,0,3,430.488,254.12)" fill="#fff" stroke="#E34902" stroke-width="0.6666666666666666"></path>
<path d="M1 0A1 1 0 1 1 1 -0.1A1 1 0 0 1 1 0" transform="matrix(3,0,0,3,518.74,184.912)" fill="#fff" stroke="#E34902" stroke-width="0.6666666666666666"></path>
<path d="M1 0A1 1 0 1 1 1 -0.1A1 1 0 0 1 1 0" transform="matrix(3,0,0,3,606.992,130.052)" fill="#fff" stroke="#E34902" stroke-width="0.6666666666666666"></path>
<path d="M1 0A1 1 0 1 1 1 -0.1A1 1 0 0 1 1 0" transform="matrix(3,0,0,3,695.244,135.96)" fill="#fff" stroke="#E34902" stroke-width="0.6666666666666666"></path>
<path d="M1 0A1 1 0 1 1 1 -0.1A1 1 0 0 1 1 0" transform="matrix(3,0,0,3,783.496,101.356)" fill="#fff" stroke="#E34902" stroke-width="0.6666666666666666"></path>
<path d="M1 0A1 1 0 1 1 1 -0.1A1 1 0 0 1 1 0" transform="matrix(3,0,0,3,871.748,63.376)" fill="#fff" stroke="#E34902" stroke-width="0.6666666666666666"></path>
<path d="M1 0A1 1 0 1 1 1 -0.1A1 1 0 0 1 1 0" transform="matrix(3,0,0,3,960,271)" fill="#fff" stroke="#E34902" stroke-width="0.6666666666666666"></path>
<text dominant-baseline="central" text-anchor="middle" style="font-size:12px;font-family:sans-serif;" xml:space="preserve" y="-6" transform="matrix(0.707,0.707,-0.707,0.707,77.48,249.34)" fill="#333" stroke="rgb(255,255,255)" stroke-width="2" paint-order="stroke" stroke-miterlimit="2">15 km</text>
<text dominant-baseline="central" text-anchor="middle" style="font-size:12px;font-family:sans-serif;" xml:space="preserve" y="-6" transform="matrix(0.707,0.707,-0.707,0.707,165.732,171.692)" fill="#333" stroke="rgb(255,255,255)" stroke-width="2" paint-order="stroke" stroke-miterlimit="2">107 km</text>
<text dominant-baseline="central" text-anchor="middle" style="font-size:12px;font-family:sans-serif;" xml:space="preserve" y="-6" transform="matrix(0.707,0.707,-0.707,0.707,253.984,176.756)" fill="#333" stroke="rgb(255,255,255)" stroke-width="2" paint-order="stroke" stroke-miterlimit="2">101 km</text>
<text dominant-baseline="central" text-anchor="middle" style="font-size:12px;font-family:sans-serif;" xml:space="preserve" y="-6" transform="matrix(0.707,0.707,-0.707,0.707,342.236,100.796)" fill="#333" stroke="rgb(255,255,255)" stroke-width="2" paint-order="stroke" stroke-miterlimit="2">191 km</text>
<text dominant-baseline="central" text-anchor="middle" style="font-size:12px;font-family:sans-serif;" xml:space="preserve" y="-6" transform="matrix(0.707,0.707,-0.707,0.707,430.488,245.12)" fill="#333" stroke="rgb(255,255,255)" stroke-width="2" paint-order="stroke" stroke-miterlimit="2">20 km</text>
<text dominant-baseline="central" text-anchor="middle" style="font-size:12px;font-family:sans-serif;" xml:space="preserve" y="-6" transform="matrix(0.707,0.707,-0.707,0.707,518.74,175.912)" fill="#333" stroke="rgb(255,255,255)" stroke-width="2" paint-order="stroke" stroke-miterlimit="2">102 km</text>
<text dominant-baseline="central" text-anchor="middle" style="font-size:12px;font-family:sans-serif;" xml:space="preserve" y="-6" transform="matrix(0.707,0.707,-0.707,0.707,606.992,121.052)" fill="#333" stroke="rgb(255,255,255)" stroke-width="2" paint-order="stroke" stroke-miterlimit="2">167 km</text>
<text dominant-baseline="central" text-anchor="middle" style="font-size:12px;font-family:sans-serif;" xml:space="preserve" y="-6" transform="matrix(0.707,0.707,-0.707,0.707,695.244,126.96)" fill="#333" stroke="rgb(255,255,255)" stroke-width="2" paint-order="stroke" stroke-miterlimit="2">160 km</text>
<text dominant-baseline="central" text-anchor="middle" style="font-size:12px;font-family:sans-serif;" xml:space="preserve" y="-6" transform="matrix(0.707,0.707,-0.707,0.707,783.496,92.356)" fill="#333" stroke="rgb(255,255,255)" stroke-width="2" paint-order="stroke" stroke-miterlimit="2">201 km</text>
<text dominant-baseline="central" text-anchor="middle" style="font-size:12px;font-family:sans-serif;" xml:space="preserve" y="-6" transform="matrix(0.707,0.707,-0.707,0.707,871.748,54.376)" fill="#333" stroke="rgb(255,255,255)" stroke-width="2" paint-order="stroke" stroke-miterlimit="2">246 km</text>
<text dominant-baseline="central" text-anchor="middle" style="font-size:12px;font-family:sans-serif;" xml:space="preserve" y="-6" transform="matrix(0.707,0.707,-0.707,0.707,960,262)" fill="#333" stroke="rgb(255,255,255)" stroke-width="2" paint-order="stroke" stroke-miterlimit="2">0 km</text>
<defs >
<clipPath id="zr5-c0">
<path d="M76 59.5l884 0l0 212l-884 0Z" fill="#000"></path>
</clipPath>
</defs>
</svg>