<svg width="1000" height="300" xmlns="http://www.w3.org/2000/svg" xmlns:xlink="http://www.w3.org/1999/xlink" version="1.1" baseProfile="full" viewBox="0 0 1000 300">
<rect width="1000" height="300" x="0" y="0" id="0" fill="#ffffff"></rect>
<path d="M58.2 271.5L931.8 271.5" fill="none" stroke="#E0E6F1"></path>
<path d="M58.2 223.5L931.8 223.5" fill="none" stroke="#E0E6F1"></path>
<path d="M58.2 175.5L931.8 175.5" fill="none" stroke="#E0E6F1"></path>
<path d="M58.2 127.5L931.8 127.5" fill="none" stroke="#E0E6F1"></path>
<path d="M58.2 79.5L931.8 79.5" fill="none" stroke="#E0E6F1"></path>
<path d="M58.2 60.5L931.8 60.5" fill="none" stroke="#E0E6F1"></path>
<path d="M58.2 271.5L931.8 271.5" fill="none" stroke="#6E7079" stroke-linecap="round"></path>
<path d="M61.5 271L61.5 276" fill="none" stroke="#6E7079"></path>
<path d="M109.5 271L109.5 276" fill="none" stroke="#6E7079"></path>
<path d="M158.5 271L158.5 276" fill="none" stroke="#6E7079"></path>
<path d="M207.5 271L207.5 276" fill="none" stroke="#6E7079"></path>
<path d="M256.5 271L256.5 276" fill="none" stroke="#6E7079"></path>
<path d="M305.5 271L305.5 276" fill="none" stroke="#6E7079"></path>
<path d="M354.5 271L354.5 276" fill="none" stroke="#6E7079"></path>
<path d="M402.5 271L402.5 276" fill="none" stroke="#6E7079"></path>
<path d="M451.5 271L451.5 276" fill="none" stroke="#6E7079"></path>
<path d="M500.5 271L500.5 276" fill="none" stroke="#6E7079"></path>
<path d="M549.5 271L549.5 276" fill="none" stroke="#6E7079"></path>
<path d="M598.5 271L598.5 276" fill="none" stroke="#6E7079"></path>
<path d="M647.5 271L647.5 276" fill="none" stroke="#6E7079"></path>
<path d="M696.5 271L696.5 276" fill="none" stroke="#6E7079"></path>
<path d="M744.5 271L744.5 276" fill="none" stroke="#6E7079"></path>
<path d="M793.5 271L793.5 276" fill="none" stroke="#6E7079"></path>
<path d="M842.5 271L842.5 276" fill="none" stroke="#6E7079"></path>
<path d="M891.5 271L891.5 276" fill="none" stroke="#6E7079"></path>
<text dominant-baseline="central" text-anchor="end" style="font-size:12px;font-family:sans-serif;" transform="translate(50.16 271)" fill="#6E7079">0</text>
<text dominant-baseline="central" text-anchor="end" style="font-size:12px;font-family:sans-serif;" transform="translate(50.16 223.0455)" fill="#6E7079">150</text>
<text dominant-baseline="central" text-anchor="end" style="font-size:12px;font-family:sans-serif;" transform="translate(50.16 175.0909)" fill="#6E7079">300</text>
<text dominant-baseline="central" text-anchor="end" style="font-size:12px;font-family:sans-serif;" transform="translate(50.16 127.1364)" fill="#6E7079">450</text>
<text dominant-baseline="central" text-anchor="end" style="font-size:12px;font-family:sans-serif;" transform="translate(50.16 79.1818)" fill="#6E7079">600</text>
<text dominant-baseline="central" text-anchor="end" style="font-size:12px;font-family:sans-serif;" transform="translate(50.16 60)" fill="#6E7079">660</text>
<text dominant-baseline="central" text-anchor="start" style="font-size:12px;font-family:sans-serif;" transform="translate(939.84 271)" fill="#6E7079">0</text>
<text dominant-baseline="central" text-anchor="start" style="font-size:12px;font-family:sans-serif;" transform="translate(939.84 223.0455)" fill="#6E7079">150</text>
<text dominant-baseline="central" text-anchor="start" style="font-size:12px;font-family:sans-serif;" transform="translate(939.84 175.0909)" fill="#6E7079">300</text>
<text dominant-baseline="central" text-anchor="start" style="font-size:12px;font-family:sans-serif;" transform="translate(939.84 127.1364)" fill="#6E7079">450</text>
<text dominant-baseline="central" text-anchor="start" style="font-size:12px;font-family:sans-serif;" transform="translate(939.84 79.1818)" fill="#6E7079">600</text>
<text dominant-baseline="central" text-anchor="start" style="font-size:12px;font-family:sans-serif;" transform="translate(939.84 60)" fill="#6E7079">660</text>
<text dominant-baseline="central" text-anchor="middle" style="font-size:12px;font-family:sans-serif;" y="6" transform="translate(60.8733 279)" fill="#6E7079">1km</text>
<text dominant-baseline="central" text-anchor="middle" style="font-size:12px;font-family:sans-serif;" y="6" transform="translate(109.7125 279)" fill="#6E7079">10km</text>
<text dominant-baseline="central" text-anchor="middle" style="font-size:12px;font-family:sans-serif;" y="6" transform="translate(158.5518 279)" fill="#6E7079">19km</text>
<text dominant-baseline="central" text-anchor="middle" style="font-size:12px;font-family:sans-serif;" y="6" transform="translate(207.3911 279)" fill="#6E7079">28km</text>
<text dominant-baseline="central" text-anchor="middle" style="font-size:12px;font-family:sans-serif;" y="6" transform="translate(256.2303 279)" fill="#6E7079">37km</text>
<text dominant-baseline="central" text-anchor="middle" style="font-size:12px;font-family:sans-serif;" y="6" transform="translate(305.0696 279)" fill="#6E7079">46km</text>
<text dominant-baseline="central" text-anchor="middle" style="font-size:12px;font-family:sans-serif;" y="6" transform="translate(353.9088 279)" fill="#6E7079">55km</text>
<text dominant-baseline="central" text-anchor="middle" style="font-size:12px;font-family:sans-serif;" y="6" transform="translate(402.7481 279)" fill="#6E7079">64km</text>
<text dominant-baseline="central" text-anchor="middle" style="font-size:12px;font-family:sans-serif;" y="6" transform="translate(451.5873 279)" fill="#6E7079">73km</text>
<text dominant-baseline="central" text-anchor="middle" style="font-size:12px;font-family:sans-serif;" y="6" transform="translate(500.4266 279)" fill="#6E7079">82km</text>
<text dominant-baseline="central" text-anchor="middle" style="font-size:12px;font-family:sans-serif;" y="6" transform="translate(549.2658 279)" fill="#6E7079">91km</text>
<text dominant-baseline="central" text-anchor="middle" style="font-size:12px;font-family:sans-serif;" y="6" transform="translate(598.1051 279)" fill="#6E7079">100km</text>
<text dominant-baseline="central" text-anchor="middle" style="font-size:12px;font-family:sans-serif;" y="6" transform="translate(646.9443 279)" fill="#6E7079">109km</text>
<text dominant-baseline="central" text-anchor="middle" style="font-size:12px;font-family:sans-serif;" y="6" transform="translate(695.7836 279)" fill="#6E7079">118km</text>
<text dominant-baseline="central" text-anchor="middle" style="font-size:12px;font-family:sans-serif;" y="6" transform="translate(744.6229 279)" fill="#6E7079">127km</text>
<text dominant-baseline="central" text-anchor="middle" style="font-size:12px;font-family:sans-serif;" y="6" transform="translate(793.4621 279)" fill="#6E7079">136km</text>
<text dominant-baseline="central" text-anchor="middle" style="font-size:12px;font-family:sans-serif;" y="6" transform="translate(842.3014 279)" fill="#6E7079">145km</text>
<text dominant-baseline="central" text-anchor="middle" style="font-size:12px;font-family:sans-serif;" y="6" transform="translate(891.1406 279)" fill="#6E7079">154km</text>
<path d="M59 271l3.7 0l0 -209.4l-3.7 0Z" fill="rgb(227,73,2)" fill-opacity="0.3"></path>
<path d="M64.4 271l3.7 0l0 -209.4l-3.7 0Z" fill="rgb(227,73,2)" fill-opacity="0.3"></path>
<path d="M69.9 271l3.7 0l0 -209.4l-3.7 0Z" fill="rgb(227,73,2)" fill-opacity="0.3"></path>
<path d="M75.3 271l3.7 0l0 -209.1l-3.7 0Z" fill="rgb(227,73,2)" fill-opacity="0.3"></path>
<path d="M80.7 271l3.7 0l0 -208.8l-3.7 0Z" fill="rgb(227,73,2)" fill-opacity="0.3"></path>
<path d="M86.1 271l3.7 0l0 -208.4l-3.7 0Z" fill="rgb(227,73,2)" fill-opacity="0.3"></path>
<path d="M91.6 271l3.7 0l0 -207.5l-3.7 0Z" fill="rgb(227,73,2)" fill-opacity="0.3"></path>
<path d="M97 271l3.7 0l0 -206.8l-3.7 0Z" fill="rgb(227,73,2)" fill-opacity="0.3"></path>
<path d="M102.4 271l3.7 0l0 -205.6l-3.7 0Z" fill="rgb(227,73,2)" fill-opacity="0.3"></path>
<path d="M107.8 271l3.7 0l0 -203.6l-3.7 0Z" fill="rgb(227,73,2)" fill-opacity="0.3"></path>
<path d="M113.3 271l3.7 0l0 -191.5l-3.7 0Z" fill="rgb(227,73,2)" fill-opacity="0.3"></path>
<path d="M118.7 271l3.7 0l0 -183.2l-3.7 0Z" fill="rgb(227,73,2)" fill-opacity="0.3"></path>
<path d="M124.1 271l3.7 0l0 -175.2l-3.7 0Z" fill="rgb(227,73,2)" fill-opacity="0.3"></path>
<path d="M129.5 271l3.7 0l0 -169.4l-3.7 0Z" fill="rgb(227,73,2)" fill-opacity="0.3"></path>
<path d="M135 271l3.7 0l0 -164l-3.7 0Z" fill="rgb(227,73,2)" fill-opacity="0.3"></path>
<path d="M140.4 271l3.7 0l0 -158.6l-3.7 0Z" fill="rgb(227,73,2)" fill-opacity="0.3"></path>
<path d="M145.8 271l3.7 0l0 -154.4l-3.7 0Z" fill="rgb(227,73,2)" fill-opacity="0.3"></path>
<path d="M151.3 271l3.7 0l0 -150.6l-3.7 0Z" fill="rgb(227,73,2)" fill-opacity="0.3"></path>
<path d="M156.7 271l3.7 0l0 -146.7l-3.7 0Z" fill="rgb(227,73,2)" fill-opacity="0.3"></path>
<path d="M162.1 271l3.7 0l0 -143.2l-3.7 0Z" fill="rgb(227,73,2)" fill-opacity="0.3"></path>
<path d="M167.5 271l3.7 0l0 -136.8l-3.7 0Z" fill="rgb(227,73,2)" fill-opacity="0.3"></path>
<path d="M173 271l3.7 0l0 -131.1l-3.7 0Z" fill="rgb(227,73,2)" fill-opacity="0.3"></path>
<path d="M178.4 271l3.7 0l0 -123.4l-3.7 0Z" fill="rgb(227,73,2)" fill-opacity="0.3"></path>
<path d="M183.8 271l3.7 0l0 -119.6l-3.7 0Z" fill="rgb(227,73,2)" fill-opacity="0.3"></path>
<path d="M189.2 271l3.7 0l0 -111.9l-3.7 0Z" fill="rgb(227,73,2)" fill-opacity="0.3"></path>
<path d="M194.7 271l3.7 0l0 -103.9l-3.7 0Z" fill="rgb(227,73,2)" fill-opacity="0.3"></path>
<path d="M200.1 271l3.7 0l0 -96.5l-3.7 0Z" fill="rgb(227,73,2)" fill-opacity="0.3"></path>
<path d="M205.5 271l3.7 0l0 -93l-3.7 0Z" fill="rgb(227,73,2)" fill-opacity="0.3"></path>
<path d="M210.9 271l3.7 0l0 -89.2l-3.7 0Z" fill="rgb(227,73,2)" fill-opacity="0.3"></path>
<path d="M216.4 271l3.7 0l0 -87l-3.7 0Z" fill="rgb(227,73,2)" fill-opacity="0.3"></path>
<path d="M221.8 271l3.7 0l0 -79.9l-3.7 0Z" fill="rgb(227,73,2)" fill-opacity="0.3"></path>
<path d="M227.2 271l3.7 0l0 -77.7l-3.7 0Z" fill="rgb(227,73,2)" fill-opacity="0.3"></path>
<path d="M232.7 271l3.7 0l0 -74.8l-3.7 0Z" fill="rgb(227,73,2)" fill-opacity="0.3"></path>
<path d="M238.1 271l3.7 0l0 -72.3l-3.7 0Z" fill="rgb(227,73,2)" fill-opacity="0.3"></path>
<path d="M243.5 271l3.7 0l0 -71l-3.7 0Z" fill="rgb(227,73,2)" fill-opacity="0.3"></path>
<path d="M248.9 271l3.7 0l0 -69.4l-3.7 0Z" fill="rgb(227,73,2)" fill-opacity="0.3"></path>
<path d="M254.4 271l3.7 0l0 -68.1l-3.7 0Z" fill="rgb(227,73,2)" fill-opacity="0.3"></path>
<path d="M259.8 271l3.7 0l0 -65.2l-3.7 0Z" fill="rgb(227,73,2)" fill-opacity="0.3"></path>
<path d="M265.2 271l3.7 0l0 -64.3l-3.7 0Z" fill="rgb(227,73,2)" fill-opacity="0.3"></path>
<path d="M270.6 271l3.7 0l0 -63.3l-3.7 0Z" fill="rgb(227,73,2)" fill-opacity="0.3"></path>
<path d="M276.1 271l3.7 0l0 -59.5l-3.7 0Z" fill="rgb(227,73,2)" fill-opacity="0.3"></path>
<path d="M281.5 271l3.7 0l0 -57.2l-3.7 0Z" fill="rgb(227,73,2)" fill-opacity="0.3"></path>
<path d="M286.9 271l3.7 0l0 -55.6l-3.7 0Z" fill="rgb(227,73,2)" fill-opacity="0.3"></path>
<path d="M292.3 271l3.7 0l0 -54.3l-3.7 0Z" fill="rgb(227,73,2)" fill-opacity="0.3"></path>
<path d="M297.8 271l3.7 0l0 -52.1l-3.7 0Z" fill="rgb(227,73,2)" fill-opacity="0.3"></path>
<path d="M303.2 271l3.7 0l0 -50.5l-3.7 0Z" fill="rgb(227,73,2)" fill-opacity="0.3"></path>
<path d="M308.6 271l3.7 0l0 -50.2l-3.7 0Z" fill="rgb(227,73,2)" fill-opacity="0.3"></path>
<path d="M314.1 271l3.7 0l0 -49.2l-3.7 0Z" fill="rgb(227,73,2)" fill-opacity="0.3"></path>
<path d="M319.5 271l3.7 0l0 -48l-3.7 0Z" fill="rgb(227,73,2)" fill-opacity="0.3"></path>
<path d="M324.9 271l3.7 0l0 -48l-3.7 0Z" fill="rgb(227,73,2)" fill-opacity="0.3"></path>
<path d="M330.3 271l3.7 0l0 -45.1l-3.7 0Z" fill="rgb(227,73,2)" fill-opacity="0.3"></path>
<path d="M335.8 271l3.7 0l0 -43.2l-3.7 0Z" fill="rgb(227,73,2)" fill-opacity="0.3"></path>
<path d="M341.2 271l3.7 0l0 -41.9l-3.7 0Z" fill="rgb(227,73,2)" fill-opacity="0.3"></path>
<path d="M346.6 271l3.7 0l0 -39.3l-3.7 0Z" fill="rgb(227,73,2)" fill-opacity="0.3"></path>
<path d="M352 271l3.7 0l0 -38.4l-3.7 0Z" fill="rgb(227,73,2)" fill-opacity="0.3"></path>
<path d="M357.5 271l3.7 0l0 -35.8l-3.7 0Z" fill="rgb(227,73,2)" fill-opacity="0.3"></path>
<path d="M362.9 271l3.7 0l0 -35.5l-3.7 0Z" fill="rgb(227,73,2)" fill-opacity="0.3"></path>
<path d="M368.3 271l3.7 0l0 -34.5l-3.7 0Z" fill="rgb(227,73,2)" fill-opacity="0.3"></path>
<path d="M373.7 271l3.7 0l0 -34.2l-3.7 0Z" fill="rgb(227,73,2)" fill-opacity="0.3"></path>
<path d="M379.2 271l3.7 0l0 -33.2l-3.7 0Z" fill="rgb(227,73,2)" fill-opacity="0.3"></path>
<path d="M384.6 271l3.7 0l0 -32l-3.7 0Z" fill="rgb(227,73,2)" fill-opacity="0.3"></path>
<path d="M390 271l3.7 0l0 -31l-3.7 0Z" fill="rgb(227,73,2)" fill-opacity="0.3"></path>
<path d="M395.4 271l3.7 0l0 -30.7l-3.7 0Z" fill="rgb(227,73,2)" fill-opacity="0.3"></path>
<path d="M400.9 271l3.7 0l0 -30.1l-3.7 0Z" fill="rgb(227,73,2)" fill-opacity="0.3"></path>
<path d="M406.3 271l3.7 0l0 -28.8l-3.7 0Z" fill="rgb(227,73,2)" fill-opacity="0.3"></path>
<path d="M411.7 271l3.7 0l0 -28.1l-3.7 0Z" fill="rgb(227,73,2)" fill-opacity="0.3"></path>
<path d="M417.2 271l3.7 0l0 -27.8l-3.7 0Z" fill="rgb(227,73,2)" fill-opacity="0.3"></path>
<path d="M422.6 271l3.7 0l0 -27.2l-3.7 0Z" fill="rgb(227,73,2)" fill-opacity="0.3"></path>
<path d="M428 271l3.7 0l0 -26.9l-3.7 0Z" fill="rgb(227,73,2)" fill-opacity="0.3"></path>
<path d="M433.4 271l3.7 0l0 -24.9l-3.7 0Z" fill="rgb(227,73,2)" fill-opacity="0.3"></path>
<path d="M438.9 271l3.7 0l0 -24.3l-3.7 0Z" fill="rgb(227,73,2)" fill-opacity="0.3"></path>
<path d="M444.3 271l3.7 0l0 -24l-3.7 0Z" fill="rgb(227,73,2)" fill-opacity="0.3"></path>
<path d="M449.7 271l3.7 0l0 -23.7l-3.7 0Z" fill="rgb(227,73,2)" fill-opacity="0.8"></path>
<path d="M455.1 271l3.7 0l0 -23.3l-3.7 0Z" fill="rgb(227,73,2)" fill-opacity="0.3"></path>
<path d="M460.6 271l3.7 0l0 -22.7l-3.7 0Z" fill="rgb(227,73,2)" fill-opacity="0.3"></path>
<path d="M466 271l3.7 0l0 -22.4l-3.7 0Z" fill="rgb(227,73,2)" fill-opacity="0.3"></path>
<path d="M471.4 271l3.7 0l0 -21.4l-3.7 0Z" fill="rgb(227,73,2)" fill-opacity="0.3"></path>
<path d="M476.8 271l3.7 0l0 -20.5l-3.7 0Z" fill="rgb(227,73,2)" fill-opacity="0.3"></path>
<path d="M482.3 271l3.7 0l0 -19.8l-3.7 0Z" fill="rgb(227,73,2)" fill-opacity="0.3"></path>
<path d="M487.7 271l3.7 0l0 -19.5l-3.7 0Z" fill="rgb(227,73,2)" fill-opacity="0.3"></path>
<path d="M493.1 271l3.7 0l0 -18.5l-3.7 0Z" fill="rgb(227,73,2)" fill-opacity="0.3"></path>
<path d="M498.6 271l3.7 0l0 -16.9l-3.7 0Z" fill="rgb(227,73,2)" fill-opacity="0.3"></path>
<path d="M504 271l3.7 0l0 -16l-3.7 0Z" fill="rgb(227,73,2)" fill-opacity="0.3"></path>
<path d="M509.4 271l3.7 0l0 -15l-3.7 0Z" fill="rgb(227,73,2)" fill-opacity="0.3"></path>
<path d="M514.8 271l3.7 0l0 -14.7l-3.7 0Z" fill="rgb(227,73,2)" fill-opacity="0.3"></path>
<path d="M520.3 271l3.7 0l0 -14.4l-3.7 0Z" fill="rgb(227,73,2)" fill-opacity="0.3"></path>
<path d="M525.7 271l3.7 0l0 -13.7l-3.7 0Z" fill="rgb(227,73,2)" fill-opacity="0.3"></path>
<path d="M531.1 271l3.7 0l0 -13.7l-3.7 0Z" fill="rgb(227,73,2)" fill-opacity="0.3"></path>
<path d="M536.5 271l3.7 0l0 -13.7l-3.7 0Z" fill="rgb(227,73,2)" fill-opacity="0.3"></path>
<path d="M542 271l3.7 0l0 -13.7l-3.7 0Z" fill="rgb(227,73,2)" fill-opacity="0.3"></path>
<path d="M547.4 271l3.7 0l0 -13.1l-3.7 0Z" fill="rgb(227,73,2)" fill-opacity="0.3"></path>
<path d="M552.8 271l3.7 0l0 -13.1l-3.7 0Z" fill="rgb(227,73,2)" fill-opacity="0.3"></path>
<path d="M558.2 271l3.7 0l0 -12.8l-3.7 0Z" fill="rgb(227,73,2)" fill-opacity="0.3"></path>
<path d="M563.7 271l3.7 0l0 -12.8l-3.7 0Z" fill="rgb(227,73,2)" fill-opacity="0.3"></path>
<path d="M569.1 271l3.7 0l0 -12.8l-3.7 0Z" fill="rgb(227,73,2)" fill-opacity="0.3"></path>
<path d="M574.5 271l3.7 0l0 -12.8l-3.7 0Z" fill="rgb(227,73,2)" fill-opacity="0.3"></path>
<path d="M580 271l3.7 0l0 -12.8l-3.7 0Z" fill="rgb(227,73,2)" fill-opacity="0.3"></path>
<path d="M585.4 271l3.7 0l0 -12.8l-3.7 0Z" fill="rgb(227,73,2)" fill-opacity="0.3"></path>
<path d="M590.8 271l3.7 0l0 -12.5l-3.7 0Z" fill="rgb(227,73,2)" fill-opacity="0.3"></path>
<path d="M596.2 271l3.7 0l0 -12.5l-3.7 0Z" fill="rgb(227,73,2)" fill-opacity="0.3"></path>
<path d="M601.7 271l3.7 0l0 -10.9l-3.7 0Z" fill="rgb(227,73,2)" fill-opacity="0.3"></path>
<path d="M607.1 271l3.7 0l0 -10.2l-3.7 0Z" fill="rgb(227,73,2)" fill-opacity="0.3"></path>
<path d="M612.5 271l3.7 0l0 -10.2l-3.7 0Z" fill="rgb(227,73,2)" fill-opacity="0.3"></path>
<path d="M617.9 271l3.7 0l0 -9.9l-3.7 0Z" fill="rgb(227,73,2)" fill-opacity="0.3"></path>
<path d="M623.4 271l3.7 0l0 -9.6l-3.7 0Z" fill="rgb(227,73,2)" fill-opacity="0.3"></path>
<path d="M628.8 271l3.7 0l0 -9.6l-3.7 0Z" fill="rgb(227,73,2)" fill-opacity="0.3"></path>
<path d="M634.2 271l3.7 0l0 -8.6l-3.7 0Z" fill="rgb(227,73,2)" fill-opacity="0.3"></path>
<path d="M639.6 271l3.7 0l0 -8.6l-3.7 0Z" fill="rgb(227,73,2)" fill-opacity="0.3"></path>
<path d="M645.1 271l3.7 0l0 -8l-3.7 0Z" fill="rgb(227,73,2)" fill-opacity="0.3"></path>
<path d="M650.5 271l3.7 0l0 -8l-3.7 0Z" fill="rgb(227,73,2)" fill-opacity="0.3"></path>
<path d="M655.9 271l3.7 0l0 -7.4l-3.7 0Z" fill="rgb(227,73,2)" fill-opacity="0.3"></path>
<path d="M661.4 271l3.7 0l0 -6.7l-3.7 0Z" fill="rgb(227,73,2)" fill-opacity="0.3"></path>
<path d="M666.8 271l3.7 0l0 -5.8l-3.7 0Z" fill="rgb(227,73,2)" fill-opacity="0.3"></path>
<path d="M672.2 271l3.7 0l0 -5.8l-3.7 0Z" fill="rgb(227,73,2)" fill-opacity="0.3"></path>
<path d="M677.6 271l3.7 0l0 -5.4l-3.7 0Z" fill="rgb(227,73,2)" fill-opacity="0.3"></path>
<path d="M683.1 271l3.7 0l0 -5.4l-3.7 0Z" fill="rgb(227,73,2)" fill-opacity="0.3"></path>
<path d="M688.5 271l3.7 0l0 -5.4l-3.7 0Z" fill="rgb(227,73,2)" fill-opacity="0.3"></path>
<path d="M693.9 271l3.7 0l0 -4.5l-3.7 0Z" fill="rgb(227,73,2)" fill-opacity="0.3"></path>
<path d="M699.3 271l3.7 0l0 -4.2l-3.7 0Z" fill="rgb(227,73,2)" fill-opacity="0.3"></path>
<path d="M704.8 271l3.7 0l0 -3.8l-3.7 0Z" fill="rgb(227,73,2)" fill-opacity="0.3"></path>
<path d="M710.2 271l3.7 0l0 -3.5l-3.7 0Z" fill="rgb(227,73,2)" fill-opacity="0.3"></path>
<path d="M715.6 271l3.7 0l0 -2.9l-3.7 0Z" fill="rgb(227,73,2)" fill-opacity="0.3"></path>
<path d="M721 271l3.7 0l0 -2.6l-3.7 0Z" fill="rgb(227,73,2)" fill-opacity="0.3"></path>
<path d="M726.5 271l3.7 0l0 -2.6l-3.7 0Z" fill="rgb(227,73,2)" fill-opacity="0.3"></path>
<path d="M731.9 271l3.7 0l0 -2.2l-3.7 0Z" fill="rgb(227,73,2)" fill-opacity="0.3"></path>
<path d="M737.3 271l3.7 0l0 -2.2l-3.7 0Z" fill="rgb(227,73,2)" fill-opacity="0.3"></path>
<path d="M742.8 271l3.7 0l0 -2.2l-3.7 0Z" fill="rgb(227,73,2)" fill-opacity="0.3"></path>
<path d="M748.2 271l3.7 0l0 -2.2l-3.7 0Z" fill="rgb(227,73,2)" fill-opacity="0.3"></path>
<path d="M753.6 271l3.7 0l0 -2.2l-3.7 0Z" fill="rgb(227,73,2)" fill-opacity="0.3"></path>
<path d="M759 271l3.7 0l0 -2.2l-3.7 0Z" fill="rgb(227,73,2)" fill-opacity="0.3"></path>
<path d="M764.5 271l3.7 0l0 -2.2l-3.7 0Z" fill="rgb(227,73,2)" fill-opacity="0.3"></path>
<path d="M769.9 271l3.7 0l0 -1.9l-3.7 0Z" fill="rgb(227,73,2)" fill-opacity="0.3"></path>
<path d="M775.3 271l3.7 0l0 -1.9l-3.7 0Z" fill="rgb(227,73,2)" fill-opacity="0.3"></path>
<path d="M780.7 271l3.7 0l0 -1.9l-3.7 0Z" fill="rgb(227,73,2)" fill-opacity="0.3"></path>
<path d="M786.2 271l3.7 0l0 -1.9l-3.7 0Z" fill="rgb(227,73,2)" fill-opacity="0.3"></path>
<path d="M791.6 271l3.7 0l0 -1.9l-3.7 0Z" fill="rgb(227,73,2)" fill-opacity="0.3"></path>
<path d="M797 271l3.7 0l0 -1.9l-3.7 0Z" fill="rgb(227,73,2)" fill-opacity="0.3"></path>
<path d="M802.4 271l3.7 0l0 -1.9l-3.7 0Z" fill="rgb(227,73,2)" fill-opacity="0.3"></path>
<path d="M807.9 271l3.7 0l0 -1.9l-3.7 0Z" fill="rgb(227,73,2)" fill-opacity="0.3"></path>
<path d="M813.3 271l3.7 0l0 -1.9l-3.7 0Z" fill="rgb(227,73,2)" fill-opacity="0.3"></path>
<path d="M818.7 271l3.7 0l0 -1.9l-3.7 0Z" fill="rgb(227,73,2)" fill-opacity="0.3"></path>
<path d="M824.1 271l3.7 0l0 -1.6l-3.7 0Z" fill="rgb(227,73,2)" fill-opacity="0.3"></path>
<path d="M829.6 271l3.7 0l0 -1.6l-3.7 0Z" fill="rgb(227,73,2)" fill-opacity="0.3"></path>
<path d="M835 271l3.7 0l0 -1.6l-3.7 0Z" fill="rgb(227,73,2)" fill-opacity="0.3"></path>
<path d="M840.4 271l3.7 0l0 -1.6l-3.7 0Z" fill="rgb(227,73,2)" fill-opacity="0.3"></path>
<path d="M845.9 271l3.7 0l0 -1.6l-3.7 0Z" fill="rgb(227,73,2)" fill-opacity="0.3"></path>
<path d="M851.3 271l3.7 0l0 -1.6l-3.7 0Z" fill="rgb(227,73,2)" fill-opacity="0.3"></path>
<path d="M856.7 271l3.7 0l0 -1.6l-3.7 0Z" fill="rgb(227,73,2)" fill-opacity="0.3"></path>
<path d="M862.1 271l3.7 0l0 -1.6l-3.7 0Z" fill="rgb(227,73,2)" fill-opacity="0.3"></path>
<path d="M867.6 271l3.7 0l0 -1.3l-3.7 0Z" fill="rgb(227,73,2)" fill-opacity="0.3"></path>
<path d="M873 271l3.7 0l0 -1.3l-3.7 0Z" fill="rgb(227,73,2)" fill-opacity="0.3"></path>
<path d="M878.4 271l3.7 0l0 -1.3l-3.7 0Z" fill="rgb(227,73,2)" fill-opacity="0.3"></path>
<path d="M883.8 271l3.7 0l0 -1.3l-3.7 0Z" fill="rgb(227,73,2)" fill-opacity="0.3"></path>
<path d="M889.3 271l3.7 0l0 -1.3l-3.7 0Z" fill="rgb(227,73,2)" fill-opacity="0.3"></path>
<path d="M894.7 271l3.7 0l0 -1l-3.7 0Z" fill="rgb(227,73,2)" fill-opacity="0.3"></path>
<path d="M900.1 271l3.7 0l0 -1l-3.7 0Z" fill="rgb(227,73,2)" fill-opacity="0.3"></path>
<path d="M905.5 271l3.7 0l0 -1l-3.7 0Z" fill="rgb(227,73,2)" fill-opacity="0.3"></path>
<path d="M911 271l3.7 0l0 -0.6l-3.7 0Z" fill="rgb(227,73,2)" fill-opacity="0.3"></path>
<path d="M916.4 271l3.7 0l0 -0.3l-3.7 0Z" fill="rgb(227,73,2)" fill-opacity="0.3"></path>
<path d="M921.8 271l3.7 0l0 -0.3l-3.7 0Z" fill="rgb(227,73,2)" fill-opacity="0.3"></path>
<path d="M927.3 271l3.7 0l0 -0.3l-3.7 0Z" fill="rgb(227,73,2)" fill-opacity="0.3"></path>
<path d="M-5 -5l226.9 0l0 24l-226.9 0Z" transform="translate(391.54 5)" fill="rgb(0,0,0)" fill-opacity="0" stroke="#ccc" stroke-width="0"></path>
<path d="M3.5 0L21.5 0A3.5 3.5 0 0 1 25 3.5L25 10.5A3.5 3.5 0 0 1 21.5 14L3.5 14A3.5 3.5 0 0 1 0 10.5L0 3.5A3.5 3.5 0 0 1 3.5 0" transform="translate(391.54 5)" fill="rgb(227,73,2)" fill-opacity="0.3"></path>
<text dominant-baseline="central" text-anchor="start" style="font-size:12px;font-family:sans-serif;" xml:space="preserve" x="30" y="7" transform="translate(391.54 5)" fill="#333">Times completed</text>
<path d="M0 7L25 7" transform="translate(524.1 5)" fill="#000" stroke="#E34902" stroke-width="2" stroke-linecap="butt" stroke-miterlimit="10"></path>
<path d="M18.1 7A5.6 5.6 0 1 1 18.1 6.4A5.6 5.6 0 0 1 18.1 7" transform="translate(524.1 5)" fill="#fff" stroke="#E34902" stroke-width="2" stroke-linecap="butt" stroke-miterlimit="10"></path>
<text dominant-baseline="central" text-anchor="start" style="font-size:12px;font-family:sans-serif;" x="30" y="7" transform="translate(524.1 5)" fill="#333">Eddington</text>
<path d="M-0.54 -0.89A0.6 0.6 0 1 1 0.54 -0.89C0.39 -0.56 0 -0.42 0 0C0 -0.42 -0.39 -0.56 -0.54 -0.89Z" transform="matrix(25,0,0,25,451.5873,242.6621)" fill="rgb(227,73,2)" fill-opacity="0.8"></path>
<text dominant-baseline="central" text-anchor="middle" style="font-size:12px;font-family:sans-serif;" transform="translate(451.5873 216.5193)" fill="#eee" stroke="rgb(227,73,2)" stroke-width="2" paint-order="stroke" stroke-opacity="0.8" stroke-miterlimit="2">73</text>
<g clip-path="url(#zr0-c0)">
<path d="M60.9 270.7L66.3 270.4L71.7 270L77.2 269.7L82.6 269.4L88 269.1L93.4 268.8L98.9 268.4L104.3 268.1L109.7 267.8L115.1 267.5L120.6 267.2L126 266.8L131.4 266.5L136.8 266.2L142.3 265.9L147.7 265.6L153.1 265.2L158.6 264.9L164 264.6L169.4 264.3L174.8 264L180.3 263.6L185.7 263.3L191.1 263L196.5 262.7L202 262.4L207.4 262L212.8 261.7L218.2 261.4L223.7 261.1L229.1 260.8L234.5 260.5L240 260.1L245.4 259.8L250.8 259.5L256.2 259.2L261.7 258.9L267.1 258.5L272.5 258.2L277.9 257.9L283.4 257.6L288.8 257.3L294.2 256.9L299.6 256.6L305.1 256.3L310.5 256L315.9 255.7L321.3 255.3L326.8 255L332.2 254.7L337.6 254.4L343.1 254.1L348.5 253.7L353.9 253.4L359.3 253.1L364.8 252.8L370.2 252.5L375.6 252.1L381 251.8L386.5 251.5L391.9 251.2L397.3 250.9L402.7 250.5L408.2 250.2L413.6 249.9L419 249.6L424.5 249.3L429.9 248.9L435.3 248.6L440.7 248.3L446.2 248L451.6 247.7L457 247.3L462.4 247L467.9 246.7L473.3 246.4L478.7 246.1L484.1 245.7L489.6 245.4L495 245.1L500.4 244.8L505.9 244.5L511.3 244.1L516.7 243.8L522.1 243.5L527.6 243.2L533 242.9L538.4 242.5L543.8 242.2L549.3 241.9L554.7 241.6L560.1 241.3L565.5 240.9L571 240.6L576.4 240.3L581.8 240L587.3 239.7L592.7 239.4L598.1 239L603.5 238.7L609 238.4L614.4 238.1L619.8 237.8L625.2 237.4L630.7 237.1L636.1 236.8L641.5 236.5L646.9 236.2L652.4 235.8L657.8 235.5L663.2 235.2L668.7 234.9L674.1 234.6L679.5 234.2L684.9 233.9L690.4 233.6L695.8 233.3L701.2 233L706.6 232.6L712.1 232.3L717.5 232L722.9 231.7L728.3 231.4L733.8 231L739.2 230.7L744.6 230.4L750 230.1L755.5 229.8L760.9 229.4L766.3 229.1L771.8 228.8L777.2 228.5L782.6 228.2L788 227.8L793.5 227.5L798.9 227.2L804.3 226.9L809.7 226.6L815.2 226.2L820.6 225.9L826 225.6L831.4 225.3L836.9 225L842.3 224.6L847.7 224.3L853.2 224L858.6 223.7L864 223.4L869.4 223L874.9 222.7L880.3 222.4L885.7 222.1L891.1 221.8L896.6 221.4L902 221.1L907.4 220.8L912.8 220.5L918.3 220.2L923.7 219.8L929.1 219.5" fill="none" stroke="#E34902" stroke-width="2" stroke-linejoin="bevel"></path>
</g>
<defs >
<clipPath id="zr0-c0">
<path d="M57 59l876 0l0 213l-876 0Z" fill="#000"></path>
</clipPath>
</defs>
</svg>