<svg width="1000" height="300" xmlns="http://www.w3.org/2000/svg" xmlns:xlink="http://www.w3.org/1999/xlink" version="1.1" baseProfile="full" viewBox="0 0 1000 300">
<rect width="1000" height="300" x="0" y="0" id="0" fill="#ffffff"></rect>
<path d="M58.2 271.5L931.8 271.5" fill="none" stroke="#E0E6F1"></path>
<path d="M58.2 225.5L931.8 225.5" fill="none" stroke="#E0E6F1"></path>
<path d="M58.2 179.5L931.8 179.5" fill="none" stroke="#E0E6F1"></path>
<path d="M58.2 133.5L931.8 133.5" fill="none" stroke="#E0E6F1"></path>
<path d="M58.2 87.5L931.8 87.5" fill="none" stroke="#E0E6F1"></path>
<path d="M58.2 60.5L931.8 60.5" fill="none" stroke="#E0E6F1"></path>
<path d="M58.2 271.5L931.8 271.5" fill="none" stroke="#6E7079" stroke-linecap="round"></path>
<path d="M61.5 271L61.5 276" fill="none" stroke="#6E7079"></path>
<path d="M109.5 271L109.5 276" fill="none" stroke="#6E7079"></path>
<path d="M158.5 271L158.5 276" fill="none" stroke="#6E7079"></path>
<path d="M207.5 271L207.5 276" fill="none" stroke="#6E7079"></path>
<path d="M256.5 271L256.5 276" fill="none" stroke="#6E7079"></path>
<path d="M305.5 271L305.5 276" fill="none" stroke="#6E7079"></path>
<path d="M354.5 271L354.5 276" fill="none" stroke="#6E7079"></path>
<path d="M402.5 271L402.5 276" fill="none" stroke="#6E7079"></path>
<path d="M451.5 271L451.5 276" fill="none" stroke="#6E7079"></path>
<path d="M500.5 271L500.5 276" fill="none" stroke="#6E7079"></path>
<path d="M549.5 271L549.5 276" fill="none" stroke="#6E7079"></path>
<path d="M598.5 271L598.5 276" fill="none" stroke="#6E7079"></path>
<path d="M647.5 271L647.5 276" fill="none" stroke="#6E7079"></path>
<path d="M696.5 271L696.5 276" fill="none" stroke="#6E7079"></path>
<path d="M744.5 271L744.5 276" fill="none" stroke="#6E7079"></path>
<path d="M793.5 271L793.5 276" fill="none" stroke="#6E7079"></path>
<path d="M842.5 271L842.5 276" fill="none" stroke="#6E7079"></path>
<path d="M891.5 271L891.5 276" fill="none" stroke="#6E7079"></path>
<text dominant-baseline="central" text-anchor="end" style="font-size:12px;font-family:sans-serif;" transform="translate(50.16 271)" fill="#6E7079">0</text>
<text dominant-baseline="central" text-anchor="end" style="font-size:12px;font-family:sans-serif;" transform="translate(50.16 225.1304)" fill="#6E7079">150</text>
<text dominant-baseline="central" text-anchor="end" style="font-size:12px;font-family:sans-serif;" transform="translate(50.16 179.2609)" fill="#6E7079">300</text>
<text dominant-baseline="central" text-anchor="end" style="font-size:12px;font-family:sans-serif;" transform="translate(50.16 133.3913)" fill="#6E7079">450</text>
<text dominant-baseline="central" text-anchor="end" style="font-size:12px;font-family:sans-serif;" transform="translate(50.16 87.5217)" fill="#6E7079">600</text>
<text dominant-baseline="central" text-anchor="end" style="font-size:12px;font-family:sans-serif;" transform="translate(50.16 60)" fill="#6E7079">690</text>
<text dominant-baseline="central" text-anchor="start" style="font-size:12px;font-family:sans-serif;" transform="translate(939.84 271)" fill="#6E7079">0</text>
<text dominant-baseline="central" text-anchor="start" style="font-size:12px;font-family:sans-serif;" transform="translate(939.84 225.1304)" fill="#6E7079">150</text>
<text dominant-baseline="central" text-anchor="start" style="font-size:12px;font-family:sans-serif;" transform="translate(939.84 179.2609)" fill="#6E7079">300</text>
<text dominant-baseline="central" text-anchor="start" style="font-size:12px;font-family:sans-serif;" transform="translate(939.84 133.3913)" fill="#6E7079">450</text>
<text dominant-baseline="central" text-anchor="start" style="font-size:12px;font-family:sans-serif;" transform="translate(939.84 87.5217)" fill="#6E7079">600</text>
<text dominant-baseline="central" text-anchor="start" style="font-size:12px;font-family:sans-serif;" transform="translate(939.84 60)" fill="#6E7079">690</text>
<text dominant-baseline="central" text-anchor="middle" style="font-size:12px;font-family:sans-serif;" y="6" transform="translate(60.8733 279)" fill="#6E7079">1km</text>
<text dominant-baseline="central" text-anchor="middle" style="font-size:12px;font-family:sans-serif;" y="6" transform="translate(109.7125 279)" fill="#6E7079">10km</text>
<text dominant-baseline="central" text-anchor="middle" style="font-size:12px;font-family:sans-serif;" y="6" transform="translate(158.5518 279)" fill="#6E7079">19km</text>
<text dominant-baseline="central" text-anchor="middle" style="font-size:12px;font-family:sans-serif;" y="6" transform="translate(207.3911 279)" fill="#6E7079">28km</text>
<text dominant-baseline="central" text-anchor="middle" style="font-size:12px;font-family:sans-serif;" y="6" transform="translate(256.2303 279)" fill="#6E7079">37km</text>
<text dominant-baseline="central" text-anchor="middle" style="font-size:12px;font-family:sans-serif;" y="6" transform="translate(305.0696 279)" fill="#6E7079">46km</text>
<text dominant-baseline="central" text-anchor="middle" style="font-size:12px;font-family:sans-serif;" y="6" transform="translate(353.9088 279)" fill="#6E7079">55km</text>
<text dominant-baseline="central" text-anchor="middle" style="font-size:12px;font-family:sans-serif;" y="6" transform="translate(402.7481 279)" fill="#6E7079">64km</text>
<text dominant-baseline="central" text-anchor="middle" style="font-size:12px;font-family:sans-serif;" y="6" transform="translate(451.5873 279)" fill="#6E7079">73km</text>
<text dominant-baseline="central" text-anchor="middle" style="font-size:12px;font-family:sans-serif;" y="6" transform="translate(500.4266 279)" fill="#6E7079">82km</text>
<text dominant-baseline="central" text-anchor="middle" style="font-size:12px;font-family:sans-serif;" y="6" transform="translate(549.2658 279)" fill="#6E7079">91km</text>
<text dominant-baseline="central" text-anchor="middle" style="font-size:12px;font-family:sans-serif;" y="6" transform="translate(598.1051 279)" fill="#6E7079">100km</text>
<text dominant-baseline="central" text-anchor="middle" style="font-size:12px;font-family:sans-serif;" y="6" transform="translate(646.9443 279)" fill="#6E7079">109km</text>
<text dominant-baseline="central" text-anchor="middle" style="font-size:12px;font-family:sans-serif;" y="6" transform="translate(695.7836 279)" fill="#6E7079">118km</text>
<text dominant-baseline="central" text-anchor="middle" style="font-size:12px;font-family:sans-serif;" y="6" transform="translate(744.6229 279)" fill="#6E7079">127km</text>
<text dominant-baseline="central" text-anchor="middle" style="font-size:12px;font-family:sans-serif;" y="6" transform="translate(793.4621 279)" fill="#6E7079">136km</text>
<text dominant-baseline="central" text-anchor="middle" style="font-size:12px;font-family:sans-serif;" y="6" transform="translate(842.3014 279)" fill="#6E7079">145km</text>
<text dominant-baseline="central" text-anchor="middle" style="font-size:12px;font-family:sans-serif;" y="6" transform="translate(891.1406 279)" fill="#6E7079">154km</text>
<path d="M59 271l3.7 0l0 -211l-3.7 0Z" fill="rgb(227,73,2)" fill-opacity="0.3"></path>
<path d="M64.4 271l3.7 0l0 -211l-3.7 0Z" fill="rgb(227,73,2)" fill-opacity="0.3"></path>
<path d="M69.9 271l3.7 0l0 -211l-3.7 0Z" fill="rgb(227,73,2)" fill-opacity="0.3"></path>
<path d="M75.3 271l3.7 0l0 -210.4l-3.7 0Z" fill="rgb(227,73,2)" fill-opacity="0.3"></path>
<path d="M80.7 271l3.7 0l0 -210.4l-3.7 0Z" fill="rgb(227,73,2)" fill-opacity="0.3"></path>
<path d="M86.1 271l3.7 0l0 -209.5l-3.7 0Z" fill="rgb(227,73,2)" fill-opacity="0.3"></path>
<path d="M91.6 271l3.7 0l0 -209.2l-3.7 0Z" fill="rgb(227,73,2)" fill-opacity="0.3"></path>
<path d="M97 271l3.7 0l0 -207.9l-3.7 0Z" fill="rgb(227,73,2)" fill-opacity="0.3"></path>
<path d="M102.4 271l3.7 0l0 -206.7l-3.7 0Z" fill="rgb(227,73,2)" fill-opacity="0.3"></path>
<path d="M107.8 271l3.7 0l0 -204l-3.7 0Z" fill="rgb(227,73,2)" fill-opacity="0.3"></path>
<path d="M113.3 271l3.7 0l0 -188.1l-3.7 0Z" fill="rgb(227,73,2)" fill-opacity="0.3"></path>
<path d="M118.7 271l3.7 0l0 -180.7l-3.7 0Z" fill="rgb(227,73,2)" fill-opacity="0.3"></path>
<path d="M124.1 271l3.7 0l0 -174.3l-3.7 0Z" fill="rgb(227,73,2)" fill-opacity="0.3"></path>
<path d="M129.5 271l3.7 0l0 -167.9l-3.7 0Z" fill="rgb(227,73,2)" fill-opacity="0.3"></path>
<path d="M135 271l3.7 0l0 -164.2l-3.7 0Z" fill="rgb(227,73,2)" fill-opacity="0.3"></path>
<path d="M140.4 271l3.7 0l0 -157.8l-3.7 0Z" fill="rgb(227,73,2)" fill-opacity="0.3"></path>
<path d="M145.8 271l3.7 0l0 -152.6l-3.7 0Z" fill="rgb(227,73,2)" fill-opacity="0.3"></path>
<path d="M151.3 271l3.7 0l0 -148.6l-3.7 0Z" fill="rgb(227,73,2)" fill-opacity="0.3"></path>
<path d="M156.7 271l3.7 0l0 -144.9l-3.7 0Z" fill="rgb(227,73,2)" fill-opacity="0.3"></path>
<path d="M162.1 271l3.7 0l0 -142.5l-3.7 0Z" fill="rgb(227,73,2)" fill-opacity="0.3"></path>
<path d="M167.5 271l3.7 0l0 -133.9l-3.7 0Z" fill="rgb(227,73,2)" fill-opacity="0.3"></path>
<path d="M173 271l3.7 0l0 -126.6l-3.7 0Z" fill="rgb(227,73,2)" fill-opacity="0.3"></path>
<path d="M178.4 271l3.7 0l0 -121.7l-3.7 0Z" fill="rgb(227,73,2)" fill-opacity="0.3"></path>
<path d="M183.8 271l3.7 0l0 -115.9l-3.7 0Z" fill="rgb(227,73,2)" fill-opacity="0.3"></path>
<path d="M189.2 271l3.7 0l0 -111l-3.7 0Z" fill="rgb(227,73,2)" fill-opacity="0.3"></path>
<path d="M194.7 271l3.7 0l0 -101.2l-3.7 0Z" fill="rgb(227,73,2)" fill-opacity="0.3"></path>
<path d="M200.1 271l3.7 0l0 -96.3l-3.7 0Z" fill="rgb(227,73,2)" fill-opacity="0.3"></path>
<path d="M205.5 271l3.7 0l0 -92.4l-3.7 0Z" fill="rgb(227,73,2)" fill-opacity="0.3"></path>
<path d="M210.9 271l3.7 0l0 -88.7l-3.7 0Z" fill="rgb(227,73,2)" fill-opacity="0.3"></path>
<path d="M216.4 271l3.7 0l0 -85.3l-3.7 0Z" fill="rgb(227,73,2)" fill-opacity="0.3"></path>
<path d="M221.8 271l3.7 0l0 -80.1l-3.7 0Z" fill="rgb(227,73,2)" fill-opacity="0.3"></path>
<path d="M227.2 271l3.7 0l0 -77.1l-3.7 0Z" fill="rgb(227,73,2)" fill-opacity="0.3"></path>
<path d="M232.7 271l3.7 0l0 -74l-3.7 0Z" fill="rgb(227,73,2)" fill-opacity="0.3"></path>
<path d="M238.1 271l3.7 0l0 -72.5l-3.7 0Z" fill="rgb(227,73,2)" fill-opacity="0.3"></path>
<path d="M243.5 271l3.7 0l0 -71.3l-3.7 0Z" fill="rgb(227,73,2)" fill-opacity="0.3"></path>
<path d="M248.9 271l3.7 0l0 -69.1l-3.7 0Z" fill="rgb(227,73,2)" fill-opacity="0.3"></path>
<path d="M254.4 271l3.7 0l0 -67l-3.7 0Z" fill="rgb(227,73,2)" fill-opacity="0.3"></path>
<path d="M259.8 271l3.7 0l0 -65.1l-3.7 0Z" fill="rgb(227,73,2)" fill-opacity="0.3"></path>
<path d="M265.2 271l3.7 0l0 -63.9l-3.7 0Z" fill="rgb(227,73,2)" fill-opacity="0.3"></path>
<path d="M270.6 271l3.7 0l0 -63.3l-3.7 0Z" fill="rgb(227,73,2)" fill-opacity="0.3"></path>
<path d="M276.1 271l3.7 0l0 -58.1l-3.7 0Z" fill="rgb(227,73,2)" fill-opacity="0.3"></path>
<path d="M281.5 271l3.7 0l0 -56.9l-3.7 0Z" fill="rgb(227,73,2)" fill-opacity="0.3"></path>
<path d="M286.9 271l3.7 0l0 -55l-3.7 0Z" fill="rgb(227,73,2)" fill-opacity="0.3"></path>
<path d="M292.3 271l3.7 0l0 -53.5l-3.7 0Z" fill="rgb(227,73,2)" fill-opacity="0.3"></path>
<path d="M297.8 271l3.7 0l0 -51.1l-3.7 0Z" fill="rgb(227,73,2)" fill-opacity="0.3"></path>
<path d="M303.2 271l3.7 0l0 -49.8l-3.7 0Z" fill="rgb(227,73,2)" fill-opacity="0.3"></path>
<path d="M308.6 271l3.7 0l0 -49.5l-3.7 0Z" fill="rgb(227,73,2)" fill-opacity="0.3"></path>
<path d="M314.1 271l3.7 0l0 -47.7l-3.7 0Z" fill="rgb(227,73,2)" fill-opacity="0.3"></path>
<path d="M319.5 271l3.7 0l0 -47.4l-3.7 0Z" fill="rgb(227,73,2)" fill-opacity="0.3"></path>
<path d="M324.9 271l3.7 0l0 -47.1l-3.7 0Z" fill="rgb(227,73,2)" fill-opacity="0.3"></path>
<path d="M330.3 271l3.7 0l0 -43.7l-3.7 0Z" fill="rgb(227,73,2)" fill-opacity="0.3"></path>
<path d="M335.8 271l3.7 0l0 -42.8l-3.7 0Z" fill="rgb(227,73,2)" fill-opacity="0.3"></path>
<path d="M341.2 271l3.7 0l0 -40.1l-3.7 0Z" fill="rgb(227,73,2)" fill-opacity="0.3"></path>
<path d="M346.6 271l3.7 0l0 -38.2l-3.7 0Z" fill="rgb(227,73,2)" fill-opacity="0.3"></path>
<path d="M352 271l3.7 0l0 -37.9l-3.7 0Z" fill="rgb(227,73,2)" fill-opacity="0.3"></path>
<path d="M357.5 271l3.7 0l0 -35.2l-3.7 0Z" fill="rgb(227,73,2)" fill-opacity="0.3"></path>
<path d="M362.9 271l3.7 0l0 -34.6l-3.7 0Z" fill="rgb(227,73,2)" fill-opacity="0.3"></path>
<path d="M368.3 271l3.7 0l0 -33.9l-3.7 0Z" fill="rgb(227,73,2)" fill-opacity="0.3"></path>
<path d="M373.7 271l3.7 0l0 -33.3l-3.7 0Z" fill="rgb(227,73,2)" fill-opacity="0.3"></path>
<path d="M379.2 271l3.7 0l0 -33l-3.7 0Z" fill="rgb(227,73,2)" fill-opacity="0.3"></path>
<path d="M384.6 271l3.7 0l0 -31.5l-3.7 0Z" fill="rgb(227,73,2)" fill-opacity="0.3"></path>
<path d="M390 271l3.7 0l0 -30.9l-3.7 0Z" fill="rgb(227,73,2)" fill-opacity="0.3"></path>
<path d="M395.4 271l3.7 0l0 -30.6l-3.7 0Z" fill="rgb(227,73,2)" fill-opacity="0.3"></path>
<path d="M400.9 271l3.7 0l0 -30l-3.7 0Z" fill="rgb(227,73,2)" fill-opacity="0.3"></path>
<path d="M406.3 271l3.7 0l0 -28.7l-3.7 0Z" fill="rgb(227,73,2)" fill-opacity="0.3"></path>
<path d="M411.7 271l3.7 0l0 -27.8l-3.7 0Z" fill="rgb(227,73,2)" fill-opacity="0.3"></path>
<path d="M417.2 271l3.7 0l0 -27.8l-3.7 0Z" fill="rgb(227,73,2)" fill-opacity="0.3"></path>
<path d="M422.6 271l3.7 0l0 -26.9l-3.7 0Z" fill="rgb(227,73,2)" fill-opacity="0.3"></path>
<path d="M428 271l3.7 0l0 -26l-3.7 0Z" fill="rgb(227,73,2)" fill-opacity="0.3"></path>
<path d="M433.4 271l3.7 0l0 -25.1l-3.7 0Z" fill="rgb(227,73,2)" fill-opacity="0.3"></path>
<path d="M438.9 271l3.7 0l0 -24.5l-3.7 0Z" fill="rgb(227,73,2)" fill-opacity="0.3"></path>
<path d="M444.3 271l3.7 0l0 -24.2l-3.7 0Z" fill="rgb(227,73,2)" fill-opacity="0.3"></path>
<path d="M449.7 271l3.7 0l0 -23.5l-3.7 0Z" fill="rgb(227,73,2)" fill-opacity="0.3"></path>
<path d="M455.1 271l3.7 0l0 -23.2l-3.7 0Z" fill="rgb(227,73,2)" fill-opacity="0.3"></path>
<path d="M460.6 271l3.7 0l0 -22.9l-3.7 0Z" fill="rgb(227,73,2)" fill-opacity="0.8"></path>
<path d="M466 271l3.7 0l0 -22l-3.7 0Z" fill="rgb(227,73,2)" fill-opacity="0.3"></path>
<path d="M471.4 271l3.7 0l0 -21.4l-3.7 0Z" fill="rgb(227,73,2)" fill-opacity="0.3"></path>
<path d="M476.8 271l3.7 0l0 -20.5l-3.7 0Z" fill="rgb(227,73,2)" fill-opacity="0.3"></path>
<path d="M482.3 271l3.7 0l0 -19.9l-3.7 0Z" fill="rgb(227,73,2)" fill-opacity="0.3"></path>
<path d="M487.7 271l3.7 0l0 -19.6l-3.7 0Z" fill="rgb(227,73,2)" fill-opacity="0.3"></path>
<path d="M493.1 271l3.7 0l0 -18l-3.7 0Z" fill="rgb(227,73,2)" fill-opacity="0.3"></path>
<path d="M498.6 271l3.7 0l0 -16.8l-3.7 0Z" fill="rgb(227,73,2)" fill-opacity="0.3"></path>
<path d="M504 271l3.7 0l0 -15.9l-3.7 0Z" fill="rgb(227,73,2)" fill-opacity="0.3"></path>
<path d="M509.4 271l3.7 0l0 -14.7l-3.7 0Z" fill="rgb(227,73,2)" fill-opacity="0.3"></path>
<path d="M514.8 271l3.7 0l0 -14.7l-3.7 0Z" fill="rgb(227,73,2)" fill-opacity="0.3"></path>
<path d="M520.3 271l3.7 0l0 -13.8l-3.7 0Z" fill="rgb(227,73,2)" fill-opacity="0.3"></path>
<path d="M525.7 271l3.7 0l0 -13.5l-3.7 0Z" fill="rgb(227,73,2)" fill-opacity="0.3"></path>
<path d="M531.1 271l3.7 0l0 -13.5l-3.7 0Z" fill="rgb(227,73,2)" fill-opacity="0.3"></path>
<path d="M536.5 271l3.7 0l0 -13.5l-3.7 0Z" fill="rgb(227,73,2)" fill-opacity="0.3"></path>
<path d="M542 271l3.7 0l0 -13.1l-3.7 0Z" fill="rgb(227,73,2)" fill-opacity="0.3"></path>
<path d="M547.4 271l3.7 0l0 -12.8l-3.7 0Z" fill="rgb(227,73,2)" fill-opacity="0.3"></path>
<path d="M552.8 271l3.7 0l0 -12.8l-3.7 0Z" fill="rgb(227,73,2)" fill-opacity="0.3"></path>
<path d="M558.2 271l3.7 0l0 -12.5l-3.7 0Z" fill="rgb(227,73,2)" fill-opacity="0.3"></path>
<path d="M563.7 271l3.7 0l0 -12.5l-3.7 0Z" fill="rgb(227,73,2)" fill-opacity="0.3"></path>
<path d="M569.1 271l3.7 0l0 -12.5l-3.7 0Z" fill="rgb(227,73,2)" fill-opacity="0.3"></path>
<path d="M574.5 271l3.7 0l0 -12.5l-3.7 0Z" fill="rgb(227,73,2)" fill-opacity="0.3"></path>
<path d="M580 271l3.7 0l0 -12.5l-3.7 0Z" fill="rgb(227,73,2)" fill-opacity="0.3"></path>
<path d="M585.4 271l3.7 0l0 -12.2l-3.7 0Z" fill="rgb(227,73,2)" fill-opacity="0.3"></path>
<path d="M590.8 271l3.7 0l0 -12.2l-3.7 0Z" fill="rgb(227,73,2)" fill-opacity="0.3"></path>
<path d="M596.2 271l3.7 0l0 -12.2l-3.7 0Z" fill="rgb(227,73,2)" fill-opacity="0.3"></path>
<path d="M601.7 271l3.7 0l0 -10.1l-3.7 0Z" fill="rgb(227,73,2)" fill-opacity="0.3"></path>
<path d="M607.1 271l3.7 0l0 -9.8l-3.7 0Z" fill="rgb(227,73,2)" fill-opacity="0.3"></path>
<path d="M612.5 271l3.7 0l0 -9.5l-3.7 0Z" fill="rgb(227,73,2)" fill-opacity="0.3"></path>
<path d="M617.9 271l3.7 0l0 -9.2l-3.7 0Z" fill="rgb(227,73,2)" fill-opacity="0.3"></path>
<path d="M623.4 271l3.7 0l0 -9.2l-3.7 0Z" fill="rgb(227,73,2)" fill-opacity="0.3"></path>
<path d="M628.8 271l3.7 0l0 -9.2l-3.7 0Z" fill="rgb(227,73,2)" fill-opacity="0.3"></path>
<path d="M634.2 271l3.7 0l0 -8.3l-3.7 0Z" fill="rgb(227,73,2)" fill-opacity="0.3"></path>
<path d="M639.6 271l3.7 0l0 -8l-3.7 0Z" fill="rgb(227,73,2)" fill-opacity="0.3"></path>
<path d="M645.1 271l3.7 0l0 -7.6l-3.7 0Z" fill="rgb(227,73,2)" fill-opacity="0.3"></path>
<path d="M650.5 271l3.7 0l0 -7.3l-3.7 0Z" fill="rgb(227,73,2)" fill-opacity="0.3"></path>
<path d="M655.9 271l3.7 0l0 -6.7l-3.7 0Z" fill="rgb(227,73,2)" fill-opacity="0.3"></path>
<path d="M661.4 271l3.7 0l0 -5.8l-3.7 0Z" fill="rgb(227,73,2)" fill-opacity="0.3"></path>
<path d="M666.8 271l3.7 0l0 -5.5l-3.7 0Z" fill="rgb(227,73,2)" fill-opacity="0.3"></path>
<path d="M672.2 271l3.7 0l0 -5.5l-3.7 0Z" fill="rgb(227,73,2)" fill-opacity="0.3"></path>
<path d="M677.6 271l3.7 0l0 -5.2l-3.7 0Z" fill="rgb(227,73,2)" fill-opacity="0.3"></path>
<path d="M683.1 271l3.7 0l0 -5.2l-3.7 0Z" fill="rgb(227,73,2)" fill-opacity="0.3"></path>
<path d="M688.5 271l3.7 0l0 -5.2l-3.7 0Z" fill="rgb(227,73,2)" fill-opacity="0.3"></path>
<path d="M693.9 271l3.7 0l0 -4.3l-3.7 0Z" fill="rgb(227,73,2)" fill-opacity="0.3"></path>
<path d="M699.3 271l3.7 0l0 -4l-3.7 0Z" fill="rgb(227,73,2)" fill-opacity="0.3"></path>
<path d="M704.8 271l3.7 0l0 -3.7l-3.7 0Z" fill="rgb(227,73,2)" fill-opacity="0.3"></path>
<path d="M710.2 271l3.7 0l0 -3.1l-3.7 0Z" fill="rgb(227,73,2)" fill-opacity="0.3"></path>
<path d="M715.6 271l3.7 0l0 -2.8l-3.7 0Z" fill="rgb(227,73,2)" fill-opacity="0.3"></path>
<path d="M721 271l3.7 0l0 -2.4l-3.7 0Z" fill="rgb(227,73,2)" fill-opacity="0.3"></path>
<path d="M726.5 271l3.7 0l0 -2.4l-3.7 0Z" fill="rgb(227,73,2)" fill-opacity="0.3"></path>
<path d="M731.9 271l3.7 0l0 -2.1l-3.7 0Z" fill="rgb(227,73,2)" fill-opacity="0.3"></path>
<path d="M737.3 271l3.7 0l0 -2.1l-3.7 0Z" fill="rgb(227,73,2)" fill-opacity="0.3"></path>
<path d="M742.8 271l3.7 0l0 -2.1l-3.7 0Z" fill="rgb(227,73,2)" fill-opacity="0.3"></path>
<path d="M748.2 271l3.7 0l0 -2.1l-3.7 0Z" fill="rgb(227,73,2)" fill-opacity="0.3"></path>
<path d="M753.6 271l3.7 0l0 -2.1l-3.7 0Z" fill="rgb(227,73,2)" fill-opacity="0.3"></path>
<path d="M759 271l3.7 0l0 -2.1l-3.7 0Z" fill="rgb(227,73,2)" fill-opacity="0.3"></path>
<path d="M764.5 271l3.7 0l0 -1.8l-3.7 0Z" fill="rgb(227,73,2)" fill-opacity="0.3"></path>
<path d="M769.9 271l3.7 0l0 -1.8l-3.7 0Z" fill="rgb(227,73,2)" fill-opacity="0.3"></path>
<path d="M775.3 271l3.7 0l0 -1.8l-3.7 0Z" fill="rgb(227,73,2)" fill-opacity="0.3"></path>
<path d="M780.7 271l3.7 0l0 -1.8l-3.7 0Z" fill="rgb(227,73,2)" fill-opacity="0.3"></path>
<path d="M786.2 271l3.7 0l0 -1.8l-3.7 0Z" fill="rgb(227,73,2)" fill-opacity="0.3"></path>
<path d="M791.6 271l3.7 0l0 -1.8l-3.7 0Z" fill="rgb(227,73,2)" fill-opacity="0.3"></path>
<path d="M797 271l3.7 0l0 -1.8l-3.7 0Z" fill="rgb(227,73,2)" fill-opacity="0.3"></path>
<path d="M802.4 271l3.7 0l0 -1.8l-3.7 0Z" fill="rgb(227,73,2)" fill-opacity="0.3"></path>
<path d="M807.9 271l3.7 0l0 -1.8l-3.7 0Z" fill="rgb(227,73,2)" fill-opacity="0.3"></path>
<path d="M813.3 271l3.7 0l0 -1.8l-3.7 0Z" fill="rgb(227,73,2)" fill-opacity="0.3"></path>
<path d="M818.7 271l3.7 0l0 -1.8l-3.7 0Z" fill="rgb(227,73,2)" fill-opacity="0.3"></path>
<path d="M824.1 271l3.7 0l0 -1.5l-3.7 0Z" fill="rgb(227,73,2)" fill-opacity="0.3"></path>
<path d="M829.6 271l3.7 0l0 -1.5l-3.7 0Z" fill="rgb(227,73,2)" fill-opacity="0.3"></path>
<path d="M835 271l3.7 0l0 -1.5l-3.7 0Z" fill="rgb(227,73,2)" fill-opacity="0.3"></path>
<path d="M840.4 271l3.7 0l0 -1.5l-3.7 0Z" fill="rgb(227,73,2)" fill-opacity="0.3"></path>
<path d="M845.9 271l3.7 0l0 -1.5l-3.7 0Z" fill="rgb(227,73,2)" fill-opacity="0.3"></path>
<path d="M851.3 271l3.7 0l0 -1.5l-3.7 0Z" fill="rgb(227,73,2)" fill-opacity="0.3"></path>
<path d="M856.7 271l3.7 0l0 -1.5l-3.7 0Z" fill="rgb(227,73,2)" fill-opacity="0.3"></path>
<path d="M862.1 271l3.7 0l0 -1.5l-3.7 0Z" fill="rgb(227,73,2)" fill-opacity="0.3"></path>
<path d="M867.6 271l3.7 0l0 -1.2l-3.7 0Z" fill="rgb(227,73,2)" fill-opacity="0.3"></path>
<path d="M873 271l3.7 0l0 -1.2l-3.7 0Z" fill="rgb(227,73,2)" fill-opacity="0.3"></path>
<path d="M878.4 271l3.7 0l0 -1.2l-3.7 0Z" fill="rgb(227,73,2)" fill-opacity="0.3"></path>
<path d="M883.8 271l3.7 0l0 -1.2l-3.7 0Z" fill="rgb(227,73,2)" fill-opacity="0.3"></path>
<path d="M889.3 271l3.7 0l0 -1.2l-3.7 0Z" fill="rgb(227,73,2)" fill-opacity="0.3"></path>
<path d="M894.7 271l3.7 0l0 -0.9l-3.7 0Z" fill="rgb(227,73,2)" fill-opacity="0.3"></path>
<path d="M900.1 271l3.7 0l0 -0.9l-3.7 0Z" fill="rgb(227,73,2)" fill-opacity="0.3"></path>
<path d="M905.5 271l3.7 0l0 -0.6l-3.7 0Z" fill="rgb(227,73,2)" fill-opacity="0.3"></path>
<path d="M911 271l3.7 0l0 -0.6l-3.7 0Z" fill="rgb(227,73,2)" fill-opacity="0.3"></path>
<path d="M916.4 271l3.7 0l0 -0.3l-3.7 0Z" fill="rgb(227,73,2)" fill-opacity="0.3"></path>
<path d="M921.8 271l3.7 0l0 -0.3l-3.7 0Z" fill="rgb(227,73,2)" fill-opacity="0.3"></path>
<path d="M927.3 271l3.7 0l0 -0.3l-3.7 0Z" fill="rgb(227,73,2)" fill-opacity="0.3"></path>
<path d="M-5 -5l226.9 0l0 24l-226.9 0Z" transform="translate(391.54 5)" fill="rgb(0,0,0)" fill-opacity="0" stroke="#ccc" stroke-width="0"></path>
<path d="M3.5 0L21.5 0A3.5 3.5 0 0 1 25 3.5L25 10.5A3.5 3.5 0 0 1 21.5 14L3.5 14A3.5 3.5 0 0 1 0 10.5L0 3.5A3.5 3.5 0 0 1 3.5 0" transform="translate(391.54 5)" fill="rgb(227,73,2)" fill-opacity="0.3"></path>
<text dominant-baseline="central" text-anchor="start" style="font-size:12px;font-family:sans-serif;" xml:space="preserve" x="30" y="7" transform="translate(391.54 5)" fill="#333">Times completed</text>
<path d="M0 7L25 7" transform="translate(524.1 5)" fill="#000" stroke="#E34902" stroke-width="2" stroke-linecap="butt" stroke-miterlimit="10"></path>
<path d="M18.1 7A5.6 5.6 0 1 1 18.1 6.4A5.6 5.6 0 0 1 18.1 7" transform="translate(524.1 5)" fill="#fff" stroke="#E34902" stroke-width="2" stroke-linecap="butt" stroke-miterlimit="10"></path>
<text dominant-baseline="central" text-anchor="start" style="font-size:12px;font-family:sans-serif;" x="30" y="7" transform="translate(524.1 5)" fill="#333">Eddington</text>
<path d="M-0.54 -0.89A0.6 0.6 0 1 1 0.54 -0.89C0.39 -0.56 0 -0.42 0 0C0 -0.42 -0.39 -0.56 -0.54 -0.89Z" transform="matrix(25,0,0,25,462.4405,243.371)" fill="rgb(227,73,2)" fill-opacity="0.8"></path>
<text dominant-baseline="central" text-anchor="middle" style="font-size:12px;font-family:sans-serif;" transform="translate(462.4405 217.2282)" fill="#eee" stroke="rgb(227,73,2)" stroke-width="2" paint-order="stroke" stroke-opacity="0.8" stroke-miterlimit="2">75</text>
<g clip-path="url(#zr0-c0)">
<path d="M60.9 270.7L66.3 270.4L71.7 270.1L77.2 269.8L82.6 269.5L88 269.2L93.4 268.9L98.9 268.6L104.3 268.2L109.7 267.9L115.1 267.6L120.6 267.3L126 267L131.4 266.7L136.8 266.4L142.3 266.1L147.7 265.8L153.1 265.5L158.6 265.2L164 264.9L169.4 264.6L174.8 264.3L180.3 264L185.7 263.7L191.1 263.4L196.5 263L202 262.7L207.4 262.4L212.8 262.1L218.2 261.8L223.7 261.5L229.1 261.2L234.5 260.9L240 260.6L245.4 260.3L250.8 260L256.2 259.7L261.7 259.4L267.1 259.1L272.5 258.8L277.9 258.5L283.4 258.2L288.8 257.9L294.2 257.5L299.6 257.2L305.1 256.9L310.5 256.6L315.9 256.3L321.3 256L326.8 255.7L332.2 255.4L337.6 255.1L343.1 254.8L348.5 254.5L353.9 254.2L359.3 253.9L364.8 253.6L370.2 253.3L375.6 253L381 252.7L386.5 252.3L391.9 252L397.3 251.7L402.7 251.4L408.2 251.1L413.6 250.8L419 250.5L424.5 250.2L429.9 249.9L435.3 249.6L440.7 249.3L446.2 249L451.6 248.7L457 248.4L462.4 248.1L467.9 247.8L473.3 247.5L478.7 247.1L484.1 246.8L489.6 246.5L495 246.2L500.4 245.9L505.9 245.6L511.3 245.3L516.7 245L522.1 244.7L527.6 244.4L533 244.1L538.4 243.8L543.8 243.5L549.3 243.2L554.7 242.9L560.1 242.6L565.5 242.3L571 241.9L576.4 241.6L581.8 241.3L587.3 241L592.7 240.7L598.1 240.4L603.5 240.1L609 239.8L614.4 239.5L619.8 239.2L625.2 238.9L630.7 238.6L636.1 238.3L641.5 238L646.9 237.7L652.4 237.4L657.8 237.1L663.2 236.8L668.7 236.4L674.1 236.1L679.5 235.8L684.9 235.5L690.4 235.2L695.8 234.9L701.2 234.6L706.6 234.3L712.1 234L717.5 233.7L722.9 233.4L728.3 233.1L733.8 232.8L739.2 232.5L744.6 232.2L750 231.9L755.5 231.6L760.9 231.2L766.3 230.9L771.8 230.6L777.2 230.3L782.6 230L788 229.7L793.5 229.4L798.9 229.1L804.3 228.8L809.7 228.5L815.2 228.2L820.6 227.9L826 227.6L831.4 227.3L836.9 227L842.3 226.7L847.7 226.4L853.2 226L858.6 225.7L864 225.4L869.4 225.1L874.9 224.8L880.3 224.5L885.7 224.2L891.1 223.9L896.6 223.6L902 223.3L907.4 223L912.8 222.7L918.3 222.4L923.7 222.1L929.1 221.8" fill="none" stroke="#E34902" stroke-width="2" stroke-linejoin="bevel"></path>
</g>
<defs >
<clipPath id="zr0-c0">
<path d="M57 59l876 0l0 213l-876 0Z" fill="#000"></path>
</clipPath>
</defs>
</svg>