<svg width="1000" height="300" xmlns="http://www.w3.org/2000/svg" xmlns:xlink="http://www.w3.org/1999/xlink" version="1.1" baseProfile="full" viewBox="0 0 1000 300">
<rect width="1000" height="300" x="0" y="0" id="0" fill="#ffffff"></rect>
<path d="M58.2 271.5L931.8 271.5" fill="none" stroke="#E0E6F1"></path>
<path d="M58.2 229.5L931.8 229.5" fill="none" stroke="#E0E6F1"></path>
<path d="M58.2 186.5L931.8 186.5" fill="none" stroke="#E0E6F1"></path>
<path d="M58.2 144.5L931.8 144.5" fill="none" stroke="#E0E6F1"></path>
<path d="M58.2 102.5L931.8 102.5" fill="none" stroke="#E0E6F1"></path>
<path d="M58.2 60.5L931.8 60.5" fill="none" stroke="#E0E6F1"></path>
<path d="M58.2 271.5L931.8 271.5" fill="none" stroke="#6E7079" stroke-linecap="round"></path>
<path d="M60.5 271L60.5 276" fill="none" stroke="#6E7079"></path>
<path d="M109.5 271L109.5 276" fill="none" stroke="#6E7079"></path>
<path d="M158.5 271L158.5 276" fill="none" stroke="#6E7079"></path>
<path d="M208.5 271L208.5 276" fill="none" stroke="#6E7079"></path>
<path d="M257.5 271L257.5 276" fill="none" stroke="#6E7079"></path>
<path d="M306.5 271L306.5 276" fill="none" stroke="#6E7079"></path>
<path d="M356.5 271L356.5 276" fill="none" stroke="#6E7079"></path>
<path d="M405.5 271L405.5 276" fill="none" stroke="#6E7079"></path>
<path d="M454.5 271L454.5 276" fill="none" stroke="#6E7079"></path>
<path d="M504.5 271L504.5 276" fill="none" stroke="#6E7079"></path>
<path d="M553.5 271L553.5 276" fill="none" stroke="#6E7079"></path>
<path d="M602.5 271L602.5 276" fill="none" stroke="#6E7079"></path>
<path d="M652.5 271L652.5 276" fill="none" stroke="#6E7079"></path>
<path d="M701.5 271L701.5 276" fill="none" stroke="#6E7079"></path>
<path d="M750.5 271L750.5 276" fill="none" stroke="#6E7079"></path>
<path d="M799.5 271L799.5 276" fill="none" stroke="#6E7079"></path>
<path d="M849.5 271L849.5 276" fill="none" stroke="#6E7079"></path>
<path d="M898.5 271L898.5 276" fill="none" stroke="#6E7079"></path>
<text dominant-baseline="central" text-anchor="end" style="font-size:12px;font-family:sans-serif;" transform="translate(50.16 271)" fill="#6E7079">0</text>
<text dominant-baseline="central" text-anchor="end" style="font-size:12px;font-family:sans-serif;" transform="translate(50.16 228.8)" fill="#6E7079">150</text>
<text dominant-baseline="central" text-anchor="end" style="font-size:12px;font-family:sans-serif;" transform="translate(50.16 186.6)" fill="#6E7079">300</text>
<text dominant-baseline="central" text-anchor="end" style="font-size:12px;font-family:sans-serif;" transform="translate(50.16 144.4)" fill="#6E7079">450</text>
<text dominant-baseline="central" text-anchor="end" style="font-size:12px;font-family:sans-serif;" transform="translate(50.16 102.2)" fill="#6E7079">600</text>
<text dominant-baseline="central" text-anchor="end" style="font-size:12px;font-family:sans-serif;" transform="translate(50.16 60)" fill="#6E7079">750</text>
<text dominant-baseline="central" text-anchor="start" style="font-size:12px;font-family:sans-serif;" transform="translate(939.84 271)" fill="#6E7079">0</text>
<text dominant-baseline="central" text-anchor="start" style="font-size:12px;font-family:sans-serif;" transform="translate(939.84 228.8)" fill="#6E7079">150</text>
<text dominant-baseline="central" text-anchor="start" style="font-size:12px;font-family:sans-serif;" transform="translate(939.84 186.6)" fill="#6E7079">300</text>
<text dominant-baseline="central" text-anchor="start" style="font-size:12px;font-family:sans-serif;" transform="translate(939.84 144.4)" fill="#6E7079">450</text>
<text dominant-baseline="central" text-anchor="start" style="font-size:12px;font-family:sans-serif;" transform="translate(939.84 102.2)" fill="#6E7079">600</text>
<text dominant-baseline="central" text-anchor="start" style="font-size:12px;font-family:sans-serif;" transform="translate(939.84 60)" fill="#6E7079">750</text>
<text dominant-baseline="central" text-anchor="middle" style="font-size:12px;font-family:sans-serif;" y="6" transform="translate(59.9215 279)" fill="#6E7079">1km</text>
<text dominant-baseline="central" text-anchor="middle" style="font-size:12px;font-family:sans-serif;" y="6" transform="translate(109.2421 279)" fill="#6E7079">15km</text>
<text dominant-baseline="central" text-anchor="middle" style="font-size:12px;font-family:sans-serif;" y="6" transform="translate(158.5627 279)" fill="#6E7079">29km</text>
<text dominant-baseline="central" text-anchor="middle" style="font-size:12px;font-family:sans-serif;" y="6" transform="translate(207.8834 279)" fill="#6E7079">43km</text>
<text dominant-baseline="central" text-anchor="middle" style="font-size:12px;font-family:sans-serif;" y="6" transform="translate(257.204 279)" fill="#6E7079">57km</text>
<text dominant-baseline="central" text-anchor="middle" style="font-size:12px;font-family:sans-serif;" y="6" transform="translate(306.5247 279)" fill="#6E7079">71km</text>
<text dominant-baseline="central" text-anchor="middle" style="font-size:12px;font-family:sans-serif;" y="6" transform="translate(355.8453 279)" fill="#6E7079">85km</text>
<text dominant-baseline="central" text-anchor="middle" style="font-size:12px;font-family:sans-serif;" y="6" transform="translate(405.166 279)" fill="#6E7079">99km</text>
<text dominant-baseline="central" text-anchor="middle" style="font-size:12px;font-family:sans-serif;" y="6" transform="translate(454.4866 279)" fill="#6E7079">113km</text>
<text dominant-baseline="central" text-anchor="middle" style="font-size:12px;font-family:sans-serif;" y="6" transform="translate(503.8073 279)" fill="#6E7079">127km</text>
<text dominant-baseline="central" text-anchor="middle" style="font-size:12px;font-family:sans-serif;" y="6" transform="translate(553.1279 279)" fill="#6E7079">141km</text>
<text dominant-baseline="central" text-anchor="middle" style="font-size:12px;font-family:sans-serif;" y="6" transform="translate(602.4485 279)" fill="#6E7079">155km</text>
<text dominant-baseline="central" text-anchor="middle" style="font-size:12px;font-family:sans-serif;" y="6" transform="translate(651.7692 279)" fill="#6E7079">169km</text>
<text dominant-baseline="central" text-anchor="middle" style="font-size:12px;font-family:sans-serif;" y="6" transform="translate(701.0898 279)" fill="#6E7079">183km</text>
<text dominant-baseline="central" text-anchor="middle" style="font-size:12px;font-family:sans-serif;" y="6" transform="translate(750.4105 279)" fill="#6E7079">197km</text>
<text dominant-baseline="central" text-anchor="middle" style="font-size:12px;font-family:sans-serif;" y="6" transform="translate(799.7311 279)" fill="#6E7079">211km</text>
<text dominant-baseline="central" text-anchor="middle" style="font-size:12px;font-family:sans-serif;" y="6" transform="translate(849.0518 279)" fill="#6E7079">225km</text>
<text dominant-baseline="central" text-anchor="middle" style="font-size:12px;font-family:sans-serif;" y="6" transform="translate(898.3724 279)" fill="#6E7079">239km</text>
<path d="M58.7 271l2.4 0l0 -209.9l-2.4 0Z" fill="rgb(227,73,2)" fill-opacity="0.3"></path>
<path d="M62.2 271l2.4 0l0 -209.9l-2.4 0Z" fill="rgb(227,73,2)" fill-opacity="0.3"></path>
<path d="M65.8 271l2.4 0l0 -209.9l-2.4 0Z" fill="rgb(227,73,2)" fill-opacity="0.3"></path>
<path d="M69.3 271l2.4 0l0 -209.3l-2.4 0Z" fill="rgb(227,73,2)" fill-opacity="0.3"></path>
<path d="M72.8 271l2.4 0l0 -209l-2.4 0Z" fill="rgb(227,73,2)" fill-opacity="0.3"></path>
<path d="M76.3 271l2.4 0l0 -207.9l-2.4 0Z" fill="rgb(227,73,2)" fill-opacity="0.3"></path>
<path d="M79.8 271l2.4 0l0 -207.6l-2.4 0Z" fill="rgb(227,73,2)" fill-opacity="0.3"></path>
<path d="M83.4 271l2.4 0l0 -205.4l-2.4 0Z" fill="rgb(227,73,2)" fill-opacity="0.3"></path>
<path d="M86.9 271l2.4 0l0 -203.4l-2.4 0Z" fill="rgb(227,73,2)" fill-opacity="0.3"></path>
<path d="M90.4 271l2.4 0l0 -200.9l-2.4 0Z" fill="rgb(227,73,2)" fill-opacity="0.3"></path>
<path d="M93.9 271l2.4 0l0 -186l-2.4 0Z" fill="rgb(227,73,2)" fill-opacity="0.3"></path>
<path d="M97.5 271l2.4 0l0 -179.2l-2.4 0Z" fill="rgb(227,73,2)" fill-opacity="0.3"></path>
<path d="M101 271l2.4 0l0 -173l-2.4 0Z" fill="rgb(227,73,2)" fill-opacity="0.3"></path>
<path d="M104.5 271l2.4 0l0 -167.1l-2.4 0Z" fill="rgb(227,73,2)" fill-opacity="0.3"></path>
<path d="M108 271l2.4 0l0 -163.5l-2.4 0Z" fill="rgb(227,73,2)" fill-opacity="0.3"></path>
<path d="M111.5 271l2.4 0l0 -157.3l-2.4 0Z" fill="rgb(227,73,2)" fill-opacity="0.3"></path>
<path d="M115.1 271l2.4 0l0 -152.5l-2.4 0Z" fill="rgb(227,73,2)" fill-opacity="0.3"></path>
<path d="M118.6 271l2.4 0l0 -148.8l-2.4 0Z" fill="rgb(227,73,2)" fill-opacity="0.3"></path>
<path d="M122.1 271l2.4 0l0 -145.2l-2.4 0Z" fill="rgb(227,73,2)" fill-opacity="0.3"></path>
<path d="M125.6 271l2.4 0l0 -142.6l-2.4 0Z" fill="rgb(227,73,2)" fill-opacity="0.3"></path>
<path d="M129.2 271l2.4 0l0 -133.9l-2.4 0Z" fill="rgb(227,73,2)" fill-opacity="0.3"></path>
<path d="M132.7 271l2.4 0l0 -126.9l-2.4 0Z" fill="rgb(227,73,2)" fill-opacity="0.3"></path>
<path d="M136.2 271l2.4 0l0 -122.1l-2.4 0Z" fill="rgb(227,73,2)" fill-opacity="0.3"></path>
<path d="M139.7 271l2.4 0l0 -116.8l-2.4 0Z" fill="rgb(227,73,2)" fill-opacity="0.3"></path>
<path d="M143.3 271l2.4 0l0 -112.3l-2.4 0Z" fill="rgb(227,73,2)" fill-opacity="0.3"></path>
<path d="M146.8 271l2.4 0l0 -102.1l-2.4 0Z" fill="rgb(227,73,2)" fill-opacity="0.3"></path>
<path d="M150.3 271l2.4 0l0 -97.6l-2.4 0Z" fill="rgb(227,73,2)" fill-opacity="0.3"></path>
<path d="M153.8 271l2.4 0l0 -93.7l-2.4 0Z" fill="rgb(227,73,2)" fill-opacity="0.3"></path>
<path d="M157.3 271l2.4 0l0 -90.3l-2.4 0Z" fill="rgb(227,73,2)" fill-opacity="0.3"></path>
<path d="M160.9 271l2.4 0l0 -87.2l-2.4 0Z" fill="rgb(227,73,2)" fill-opacity="0.3"></path>
<path d="M164.4 271l2.4 0l0 -81.6l-2.4 0Z" fill="rgb(227,73,2)" fill-opacity="0.3"></path>
<path d="M167.9 271l2.4 0l0 -78.8l-2.4 0Z" fill="rgb(227,73,2)" fill-opacity="0.3"></path>
<path d="M171.4 271l2.4 0l0 -76l-2.4 0Z" fill="rgb(227,73,2)" fill-opacity="0.3"></path>
<path d="M175 271l2.4 0l0 -74.6l-2.4 0Z" fill="rgb(227,73,2)" fill-opacity="0.3"></path>
<path d="M178.5 271l2.4 0l0 -73.1l-2.4 0Z" fill="rgb(227,73,2)" fill-opacity="0.3"></path>
<path d="M182 271l2.4 0l0 -70.9l-2.4 0Z" fill="rgb(227,73,2)" fill-opacity="0.3"></path>
<path d="M185.5 271l2.4 0l0 -68.9l-2.4 0Z" fill="rgb(227,73,2)" fill-opacity="0.3"></path>
<path d="M189.1 271l2.4 0l0 -67.2l-2.4 0Z" fill="rgb(227,73,2)" fill-opacity="0.3"></path>
<path d="M192.6 271l2.4 0l0 -65.8l-2.4 0Z" fill="rgb(227,73,2)" fill-opacity="0.3"></path>
<path d="M196.1 271l2.4 0l0 -65.3l-2.4 0Z" fill="rgb(227,73,2)" fill-opacity="0.3"></path>
<path d="M199.6 271l2.4 0l0 -59.6l-2.4 0Z" fill="rgb(227,73,2)" fill-opacity="0.3"></path>
<path d="M203.1 271l2.4 0l0 -58.5l-2.4 0Z" fill="rgb(227,73,2)" fill-opacity="0.3"></path>
<path d="M206.7 271l2.4 0l0 -56.3l-2.4 0Z" fill="rgb(227,73,2)" fill-opacity="0.3"></path>
<path d="M210.2 271l2.4 0l0 -54.6l-2.4 0Z" fill="rgb(227,73,2)" fill-opacity="0.3"></path>
<path d="M213.7 271l2.4 0l0 -52.3l-2.4 0Z" fill="rgb(227,73,2)" fill-opacity="0.3"></path>
<path d="M217.2 271l2.4 0l0 -51.2l-2.4 0Z" fill="rgb(227,73,2)" fill-opacity="0.3"></path>
<path d="M220.8 271l2.4 0l0 -50.4l-2.4 0Z" fill="rgb(227,73,2)" fill-opacity="0.3"></path>
<path d="M224.3 271l2.4 0l0 -48.7l-2.4 0Z" fill="rgb(227,73,2)" fill-opacity="0.3"></path>
<path d="M227.8 271l2.4 0l0 -48.4l-2.4 0Z" fill="rgb(227,73,2)" fill-opacity="0.3"></path>
<path d="M231.3 271l2.4 0l0 -48.1l-2.4 0Z" fill="rgb(227,73,2)" fill-opacity="0.3"></path>
<path d="M234.9 271l2.4 0l0 -44.5l-2.4 0Z" fill="rgb(227,73,2)" fill-opacity="0.3"></path>
<path d="M238.4 271l2.4 0l0 -43.6l-2.4 0Z" fill="rgb(227,73,2)" fill-opacity="0.3"></path>
<path d="M241.9 271l2.4 0l0 -40.8l-2.4 0Z" fill="rgb(227,73,2)" fill-opacity="0.3"></path>
<path d="M245.4 271l2.4 0l0 -38.8l-2.4 0Z" fill="rgb(227,73,2)" fill-opacity="0.3"></path>
<path d="M248.9 271l2.4 0l0 -38.5l-2.4 0Z" fill="rgb(227,73,2)" fill-opacity="0.3"></path>
<path d="M252.5 271l2.4 0l0 -35.7l-2.4 0Z" fill="rgb(227,73,2)" fill-opacity="0.3"></path>
<path d="M256 271l2.4 0l0 -35.2l-2.4 0Z" fill="rgb(227,73,2)" fill-opacity="0.3"></path>
<path d="M259.5 271l2.4 0l0 -34.6l-2.4 0Z" fill="rgb(227,73,2)" fill-opacity="0.3"></path>
<path d="M263 271l2.4 0l0 -33.8l-2.4 0Z" fill="rgb(227,73,2)" fill-opacity="0.3"></path>
<path d="M266.6 271l2.4 0l0 -33.5l-2.4 0Z" fill="rgb(227,73,2)" fill-opacity="0.3"></path>
<path d="M270.1 271l2.4 0l0 -32.1l-2.4 0Z" fill="rgb(227,73,2)" fill-opacity="0.3"></path>
<path d="M273.6 271l2.4 0l0 -31.2l-2.4 0Z" fill="rgb(227,73,2)" fill-opacity="0.3"></path>
<path d="M277.1 271l2.4 0l0 -30.9l-2.4 0Z" fill="rgb(227,73,2)" fill-opacity="0.3"></path>
<path d="M280.6 271l2.4 0l0 -30.4l-2.4 0Z" fill="rgb(227,73,2)" fill-opacity="0.3"></path>
<path d="M284.2 271l2.4 0l0 -29.3l-2.4 0Z" fill="rgb(227,73,2)" fill-opacity="0.3"></path>
<path d="M287.7 271l2.4 0l0 -28.4l-2.4 0Z" fill="rgb(227,73,2)" fill-opacity="0.3"></path>
<path d="M291.2 271l2.4 0l0 -28.4l-2.4 0Z" fill="rgb(227,73,2)" fill-opacity="0.3"></path>
<path d="M294.7 271l2.4 0l0 -27.6l-2.4 0Z" fill="rgb(227,73,2)" fill-opacity="0.3"></path>
<path d="M298.3 271l2.4 0l0 -26.7l-2.4 0Z" fill="rgb(227,73,2)" fill-opacity="0.3"></path>
<path d="M301.8 271l2.4 0l0 -25.9l-2.4 0Z" fill="rgb(227,73,2)" fill-opacity="0.3"></path>
<path d="M305.3 271l2.4 0l0 -24.8l-2.4 0Z" fill="rgb(227,73,2)" fill-opacity="0.3"></path>
<path d="M308.8 271l2.4 0l0 -24.5l-2.4 0Z" fill="rgb(227,73,2)" fill-opacity="0.3"></path>
<path d="M312.4 271l2.4 0l0 -23.9l-2.4 0Z" fill="rgb(227,73,2)" fill-opacity="0.3"></path>
<path d="M315.9 271l2.4 0l0 -23.4l-2.4 0Z" fill="rgb(227,73,2)" fill-opacity="0.3"></path>
<path d="M319.4 271l2.4 0l0 -23.1l-2.4 0Z" fill="rgb(227,73,2)" fill-opacity="0.3"></path>
<path d="M322.9 271l2.4 0l0 -22.2l-2.4 0Z" fill="rgb(227,73,2)" fill-opacity="0.3"></path>
<path d="M326.4 271l2.4 0l0 -21.7l-2.4 0Z" fill="rgb(227,73,2)" fill-opacity="0.8"></path>
<path d="M330 271l2.4 0l0 -20.8l-2.4 0Z" fill="rgb(227,73,2)" fill-opacity="0.3"></path>
<path d="M333.5 271l2.4 0l0 -20.3l-2.4 0Z" fill="rgb(227,73,2)" fill-opacity="0.3"></path>
<path d="M337 271l2.4 0l0 -20l-2.4 0Z" fill="rgb(227,73,2)" fill-opacity="0.3"></path>
<path d="M340.5 271l2.4 0l0 -18.6l-2.4 0Z" fill="rgb(227,73,2)" fill-opacity="0.3"></path>
<path d="M344.1 271l2.4 0l0 -17.4l-2.4 0Z" fill="rgb(227,73,2)" fill-opacity="0.3"></path>
<path d="M347.6 271l2.4 0l0 -16.6l-2.4 0Z" fill="rgb(227,73,2)" fill-opacity="0.3"></path>
<path d="M351.1 271l2.4 0l0 -15.5l-2.4 0Z" fill="rgb(227,73,2)" fill-opacity="0.3"></path>
<path d="M354.6 271l2.4 0l0 -15.5l-2.4 0Z" fill="rgb(227,73,2)" fill-opacity="0.3"></path>
<path d="M358.2 271l2.4 0l0 -14.6l-2.4 0Z" fill="rgb(227,73,2)" fill-opacity="0.3"></path>
<path d="M361.7 271l2.4 0l0 -14.3l-2.4 0Z" fill="rgb(227,73,2)" fill-opacity="0.3"></path>
<path d="M365.2 271l2.4 0l0 -14.3l-2.4 0Z" fill="rgb(227,73,2)" fill-opacity="0.3"></path>
<path d="M368.7 271l2.4 0l0 -14.3l-2.4 0Z" fill="rgb(227,73,2)" fill-opacity="0.3"></path>
<path d="M372.2 271l2.4 0l0 -13.8l-2.4 0Z" fill="rgb(227,73,2)" fill-opacity="0.3"></path>
<path d="M375.8 271l2.4 0l0 -13.5l-2.4 0Z" fill="rgb(227,73,2)" fill-opacity="0.3"></path>
<path d="M379.3 271l2.4 0l0 -13.5l-2.4 0Z" fill="rgb(227,73,2)" fill-opacity="0.3"></path>
<path d="M382.8 271l2.4 0l0 -13.2l-2.4 0Z" fill="rgb(227,73,2)" fill-opacity="0.3"></path>
<path d="M386.3 271l2.4 0l0 -13.2l-2.4 0Z" fill="rgb(227,73,2)" fill-opacity="0.3"></path>
<path d="M389.9 271l2.4 0l0 -13.2l-2.4 0Z" fill="rgb(227,73,2)" fill-opacity="0.3"></path>
<path d="M393.4 271l2.4 0l0 -13.2l-2.4 0Z" fill="rgb(227,73,2)" fill-opacity="0.3"></path>
<path d="M396.9 271l2.4 0l0 -13.2l-2.4 0Z" fill="rgb(227,73,2)" fill-opacity="0.3"></path>
<path d="M400.4 271l2.4 0l0 -12.9l-2.4 0Z" fill="rgb(227,73,2)" fill-opacity="0.3"></path>
<path d="M404 271l2.4 0l0 -12.9l-2.4 0Z" fill="rgb(227,73,2)" fill-opacity="0.3"></path>
<path d="M407.5 271l2.4 0l0 -12.9l-2.4 0Z" fill="rgb(227,73,2)" fill-opacity="0.3"></path>
<path d="M411 271l2.4 0l0 -11l-2.4 0Z" fill="rgb(227,73,2)" fill-opacity="0.3"></path>
<path d="M414.5 271l2.4 0l0 -10.4l-2.4 0Z" fill="rgb(227,73,2)" fill-opacity="0.3"></path>
<path d="M418 271l2.4 0l0 -9.8l-2.4 0Z" fill="rgb(227,73,2)" fill-opacity="0.3"></path>
<path d="M421.6 271l2.4 0l0 -9.6l-2.4 0Z" fill="rgb(227,73,2)" fill-opacity="0.3"></path>
<path d="M425.1 271l2.4 0l0 -9.6l-2.4 0Z" fill="rgb(227,73,2)" fill-opacity="0.3"></path>
<path d="M428.6 271l2.4 0l0 -9.3l-2.4 0Z" fill="rgb(227,73,2)" fill-opacity="0.3"></path>
<path d="M432.1 271l2.4 0l0 -8.4l-2.4 0Z" fill="rgb(227,73,2)" fill-opacity="0.3"></path>
<path d="M435.7 271l2.4 0l0 -8.2l-2.4 0Z" fill="rgb(227,73,2)" fill-opacity="0.3"></path>
<path d="M439.2 271l2.4 0l0 -7.9l-2.4 0Z" fill="rgb(227,73,2)" fill-opacity="0.3"></path>
<path d="M442.7 271l2.4 0l0 -7.6l-2.4 0Z" fill="rgb(227,73,2)" fill-opacity="0.3"></path>
<path d="M446.2 271l2.4 0l0 -7l-2.4 0Z" fill="rgb(227,73,2)" fill-opacity="0.3"></path>
<path d="M449.7 271l2.4 0l0 -6.2l-2.4 0Z" fill="rgb(227,73,2)" fill-opacity="0.3"></path>
<path d="M453.3 271l2.4 0l0 -5.6l-2.4 0Z" fill="rgb(227,73,2)" fill-opacity="0.3"></path>
<path d="M456.8 271l2.4 0l0 -5.6l-2.4 0Z" fill="rgb(227,73,2)" fill-opacity="0.3"></path>
<path d="M460.3 271l2.4 0l0 -5.3l-2.4 0Z" fill="rgb(227,73,2)" fill-opacity="0.3"></path>
<path d="M463.8 271l2.4 0l0 -5.3l-2.4 0Z" fill="rgb(227,73,2)" fill-opacity="0.3"></path>
<path d="M467.4 271l2.4 0l0 -5.3l-2.4 0Z" fill="rgb(227,73,2)" fill-opacity="0.3"></path>
<path d="M470.9 271l2.4 0l0 -4.5l-2.4 0Z" fill="rgb(227,73,2)" fill-opacity="0.3"></path>
<path d="M474.4 271l2.4 0l0 -4.2l-2.4 0Z" fill="rgb(227,73,2)" fill-opacity="0.3"></path>
<path d="M477.9 271l2.4 0l0 -3.9l-2.4 0Z" fill="rgb(227,73,2)" fill-opacity="0.3"></path>
<path d="M481.5 271l2.4 0l0 -3.4l-2.4 0Z" fill="rgb(227,73,2)" fill-opacity="0.3"></path>
<path d="M485 271l2.4 0l0 -3.1l-2.4 0Z" fill="rgb(227,73,2)" fill-opacity="0.3"></path>
<path d="M488.5 271l2.4 0l0 -2.8l-2.4 0Z" fill="rgb(227,73,2)" fill-opacity="0.3"></path>
<path d="M492 271l2.4 0l0 -2.8l-2.4 0Z" fill="rgb(227,73,2)" fill-opacity="0.3"></path>
<path d="M495.5 271l2.4 0l0 -2.5l-2.4 0Z" fill="rgb(227,73,2)" fill-opacity="0.3"></path>
<path d="M499.1 271l2.4 0l0 -2.5l-2.4 0Z" fill="rgb(227,73,2)" fill-opacity="0.3"></path>
<path d="M502.6 271l2.4 0l0 -2.5l-2.4 0Z" fill="rgb(227,73,2)" fill-opacity="0.3"></path>
<path d="M506.1 271l2.4 0l0 -2.5l-2.4 0Z" fill="rgb(227,73,2)" fill-opacity="0.3"></path>
<path d="M509.6 271l2.4 0l0 -2.5l-2.4 0Z" fill="rgb(227,73,2)" fill-opacity="0.3"></path>
<path d="M513.2 271l2.4 0l0 -2.5l-2.4 0Z" fill="rgb(227,73,2)" fill-opacity="0.3"></path>
<path d="M516.7 271l2.4 0l0 -2.3l-2.4 0Z" fill="rgb(227,73,2)" fill-opacity="0.3"></path>
<path d="M520.2 271l2.4 0l0 -2.3l-2.4 0Z" fill="rgb(227,73,2)" fill-opacity="0.3"></path>
<path d="M523.7 271l2.4 0l0 -2.3l-2.4 0Z" fill="rgb(227,73,2)" fill-opacity="0.3"></path>
<path d="M527.3 271l2.4 0l0 -2.3l-2.4 0Z" fill="rgb(227,73,2)" fill-opacity="0.3"></path>
<path d="M530.8 271l2.4 0l0 -2.3l-2.4 0Z" fill="rgb(227,73,2)" fill-opacity="0.3"></path>
<path d="M534.3 271l2.4 0l0 -2.3l-2.4 0Z" fill="rgb(227,73,2)" fill-opacity="0.3"></path>
<path d="M537.8 271l2.4 0l0 -2.3l-2.4 0Z" fill="rgb(227,73,2)" fill-opacity="0.3"></path>
<path d="M541.3 271l2.4 0l0 -2.3l-2.4 0Z" fill="rgb(227,73,2)" fill-opacity="0.3"></path>
<path d="M544.9 271l2.4 0l0 -2.3l-2.4 0Z" fill="rgb(227,73,2)" fill-opacity="0.3"></path>
<path d="M548.4 271l2.4 0l0 -2.3l-2.4 0Z" fill="rgb(227,73,2)" fill-opacity="0.3"></path>
<path d="M551.9 271l2.4 0l0 -2.3l-2.4 0Z" fill="rgb(227,73,2)" fill-opacity="0.3"></path>
<path d="M555.4 271l2.4 0l0 -2l-2.4 0Z" fill="rgb(227,73,2)" fill-opacity="0.3"></path>
<path d="M559 271l2.4 0l0 -2l-2.4 0Z" fill="rgb(227,73,2)" fill-opacity="0.3"></path>
<path d="M562.5 271l2.4 0l0 -2l-2.4 0Z" fill="rgb(227,73,2)" fill-opacity="0.3"></path>
<path d="M566 271l2.4 0l0 -2l-2.4 0Z" fill="rgb(227,73,2)" fill-opacity="0.3"></path>
<path d="M569.5 271l2.4 0l0 -2l-2.4 0Z" fill="rgb(227,73,2)" fill-opacity="0.3"></path>
<path d="M573 271l2.4 0l0 -1.7l-2.4 0Z" fill="rgb(227,73,2)" fill-opacity="0.3"></path>
<path d="M576.6 271l2.4 0l0 -1.7l-2.4 0Z" fill="rgb(227,73,2)" fill-opacity="0.3"></path>
<path d="M580.1 271l2.4 0l0 -1.7l-2.4 0Z" fill="rgb(227,73,2)" fill-opacity="0.3"></path>
<path d="M583.6 271l2.4 0l0 -1.4l-2.4 0Z" fill="rgb(227,73,2)" fill-opacity="0.3"></path>
<path d="M587.1 271l2.4 0l0 -1.4l-2.4 0Z" fill="rgb(227,73,2)" fill-opacity="0.3"></path>
<path d="M590.7 271l2.4 0l0 -1.4l-2.4 0Z" fill="rgb(227,73,2)" fill-opacity="0.3"></path>
<path d="M594.2 271l2.4 0l0 -1.4l-2.4 0Z" fill="rgb(227,73,2)" fill-opacity="0.3"></path>
<path d="M597.7 271l2.4 0l0 -1.4l-2.4 0Z" fill="rgb(227,73,2)" fill-opacity="0.3"></path>
<path d="M601.2 271l2.4 0l0 -1.1l-2.4 0Z" fill="rgb(227,73,2)" fill-opacity="0.3"></path>
<path d="M604.8 271l2.4 0l0 -1.1l-2.4 0Z" fill="rgb(227,73,2)" fill-opacity="0.3"></path>
<path d="M608.3 271l2.4 0l0 -0.8l-2.4 0Z" fill="rgb(227,73,2)" fill-opacity="0.3"></path>
<path d="M611.8 271l2.4 0l0 -0.8l-2.4 0Z" fill="rgb(227,73,2)" fill-opacity="0.3"></path>
<path d="M615.3 271l2.4 0l0 -0.6l-2.4 0Z" fill="rgb(227,73,2)" fill-opacity="0.3"></path>
<path d="M618.8 271l2.4 0l0 -0.6l-2.4 0Z" fill="rgb(227,73,2)" fill-opacity="0.3"></path>
<path d="M622.4 271l2.4 0l0 -0.6l-2.4 0Z" fill="rgb(227,73,2)" fill-opacity="0.3"></path>
<path d="M625.9 271l2.4 0l0 -0.3l-2.4 0Z" fill="rgb(227,73,2)" fill-opacity="0.3"></path>
<path d="M629.4 271l2.4 0l0 -0.3l-2.4 0Z" fill="rgb(227,73,2)" fill-opacity="0.3"></path>
<path d="M632.9 271l2.4 0l0 -0.3l-2.4 0Z" fill="rgb(227,73,2)" fill-opacity="0.3"></path>
<path d="M636.5 271l2.4 0l0 -0.3l-2.4 0Z" fill="rgb(227,73,2)" fill-opacity="0.3"></path>
<path d="M640 271l2.4 0l0 -0.3l-2.4 0Z" fill="rgb(227,73,2)" fill-opacity="0.3"></path>
<path d="M643.5 271l2.4 0l0 -0.3l-2.4 0Z" fill="rgb(227,73,2)" fill-opacity="0.3"></path>
<path d="M647 271l2.4 0l0 -0.3l-2.4 0Z" fill="rgb(227,73,2)" fill-opacity="0.3"></path>
<path d="M650.6 271l2.4 0l0 -0.3l-2.4 0Z" fill="rgb(227,73,2)" fill-opacity="0.3"></path>
<path d="M654.1 271l2.4 0l0 -0.3l-2.4 0Z" fill="rgb(227,73,2)" fill-opacity="0.3"></path>
<path d="M657.6 271l2.4 0l0 -0.3l-2.4 0Z" fill="rgb(227,73,2)" fill-opacity="0.3"></path>
<path d="M661.1 271l2.4 0l0 -0.3l-2.4 0Z" fill="rgb(227,73,2)" fill-opacity="0.3"></path>
<path d="M664.6 271l2.4 0l0 -0.3l-2.4 0Z" fill="rgb(227,73,2)" fill-opacity="0.3"></path>
<path d="M668.2 271l2.4 0l0 -0.3l-2.4 0Z" fill="rgb(227,73,2)" fill-opacity="0.3"></path>
<path d="M671.7 271l2.4 0l0 -0.3l-2.4 0Z" fill="rgb(227,73,2)" fill-opacity="0.3"></path>
<path d="M675.2 271l2.4 0l0 -0.3l-2.4 0Z" fill="rgb(227,73,2)" fill-opacity="0.3"></path>
<path d="M678.7 271l2.4 0l0 -0.3l-2.4 0Z" fill="rgb(227,73,2)" fill-opacity="0.3"></path>
<path d="M682.3 271l2.4 0l0 -0.3l-2.4 0Z" fill="rgb(227,73,2)" fill-opacity="0.3"></path>
<path d="M685.8 271l2.4 0l0 -0.3l-2.4 0Z" fill="rgb(227,73,2)" fill-opacity="0.3"></path>
<path d="M689.3 271l2.4 0l0 -0.3l-2.4 0Z" fill="rgb(227,73,2)" fill-opacity="0.3"></path>
<path d="M692.8 271l2.4 0l0 -0.3l-2.4 0Z" fill="rgb(227,73,2)" fill-opacity="0.3"></path>
<path d="M696.4 271l2.4 0l0 -0.3l-2.4 0Z" fill="rgb(227,73,2)" fill-opacity="0.3"></path>
<path d="M699.9 271l2.4 0l0 -0.3l-2.4 0Z" fill="rgb(227,73,2)" fill-opacity="0.3"></path>
<path d="M703.4 271l2.4 0l0 -0.3l-2.4 0Z" fill="rgb(227,73,2)" fill-opacity="0.3"></path>
<path d="M706.9 271l2.4 0l0 -0.3l-2.4 0Z" fill="rgb(227,73,2)" fill-opacity="0.3"></path>
<path d="M710.4 271l2.4 0l0 -0.3l-2.4 0Z" fill="rgb(227,73,2)" fill-opacity="0.3"></path>
<path d="M714 271l2.4 0l0 -0.3l-2.4 0Z" fill="rgb(227,73,2)" fill-opacity="0.3"></path>
<path d="M717.5 271l2.4 0l0 -0.3l-2.4 0Z" fill="rgb(227,73,2)" fill-opacity="0.3"></path>
<path d="M721 271l2.4 0l0 -0.3l-2.4 0Z" fill="rgb(227,73,2)" fill-opacity="0.3"></path>
<path d="M724.5 271l2.4 0l0 -0.3l-2.4 0Z" fill="rgb(227,73,2)" fill-opacity="0.3"></path>
<path d="M728.1 271l2.4 0l0 -0.3l-2.4 0Z" fill="rgb(227,73,2)" fill-opacity="0.3"></path>
<path d="M731.6 271l2.4 0l0 -0.3l-2.4 0Z" fill="rgb(227,73,2)" fill-opacity="0.3"></path>
<path d="M735.1 271l2.4 0l0 -0.3l-2.4 0Z" fill="rgb(227,73,2)" fill-opacity="0.3"></path>
<path d="M738.6 271l2.4 0l0 -0.3l-2.4 0Z" fill="rgb(227,73,2)" fill-opacity="0.3"></path>
<path d="M742.1 271l2.4 0l0 -0.3l-2.4 0Z" fill="rgb(227,73,2)" fill-opacity="0.3"></path>
<path d="M745.7 271l2.4 0l0 -0.3l-2.4 0Z" fill="rgb(227,73,2)" fill-opacity="0.3"></path>
<path d="M749.2 271l2.4 0l0 -0.3l-2.4 0Z" fill="rgb(227,73,2)" fill-opacity="0.3"></path>
<path d="M752.7 271l2.4 0l0 -0.3l-2.4 0Z" fill="rgb(227,73,2)" fill-opacity="0.3"></path>
<path d="M756.2 271l2.4 0l0 -0.3l-2.4 0Z" fill="rgb(227,73,2)" fill-opacity="0.3"></path>
<path d="M759.8 271l2.4 0l0 -0.3l-2.4 0Z" fill="rgb(227,73,2)" fill-opacity="0.3"></path>
<path d="M763.3 271l2.4 0l0 -0.3l-2.4 0Z" fill="rgb(227,73,2)" fill-opacity="0.3"></path>
<path d="M766.8 271l2.4 0l0 -0.3l-2.4 0Z" fill="rgb(227,73,2)" fill-opacity="0.3"></path>
<path d="M770.3 271l2.4 0l0 -0.3l-2.4 0Z" fill="rgb(227,73,2)" fill-opacity="0.3"></path>
<path d="M773.9 271l2.4 0l0 -0.3l-2.4 0Z" fill="rgb(227,73,2)" fill-opacity="0.3"></path>
<path d="M777.4 271l2.4 0l0 -0.3l-2.4 0Z" fill="rgb(227,73,2)" fill-opacity="0.3"></path>
<path d="M780.9 271l2.4 0l0 -0.3l-2.4 0Z" fill="rgb(227,73,2)" fill-opacity="0.3"></path>
<path d="M784.4 271l2.4 0l0 -0.3l-2.4 0Z" fill="rgb(227,73,2)" fill-opacity="0.3"></path>
<path d="M787.9 271l2.4 0l0 -0.3l-2.4 0Z" fill="rgb(227,73,2)" fill-opacity="0.3"></path>
<path d="M791.5 271l2.4 0l0 -0.3l-2.4 0Z" fill="rgb(227,73,2)" fill-opacity="0.3"></path>
<path d="M795 271l2.4 0l0 -0.3l-2.4 0Z" fill="rgb(227,73,2)" fill-opacity="0.3"></path>
<path d="M798.5 271l2.4 0l0 -0.3l-2.4 0Z" fill="rgb(227,73,2)" fill-opacity="0.3"></path>
<path d="M802 271l2.4 0l0 -0.3l-2.4 0Z" fill="rgb(227,73,2)" fill-opacity="0.3"></path>
<path d="M805.6 271l2.4 0l0 -0.3l-2.4 0Z" fill="rgb(227,73,2)" fill-opacity="0.3"></path>
<path d="M809.1 271l2.4 0l0 -0.3l-2.4 0Z" fill="rgb(227,73,2)" fill-opacity="0.3"></path>
<path d="M812.6 271l2.4 0l0 -0.3l-2.4 0Z" fill="rgb(227,73,2)" fill-opacity="0.3"></path>
<path d="M816.1 271l2.4 0l0 -0.3l-2.4 0Z" fill="rgb(227,73,2)" fill-opacity="0.3"></path>
<path d="M819.7 271l2.4 0l0 -0.3l-2.4 0Z" fill="rgb(227,73,2)" fill-opacity="0.3"></path>
<path d="M823.2 271l2.4 0l0 -0.3l-2.4 0Z" fill="rgb(227,73,2)" fill-opacity="0.3"></path>
<path d="M826.7 271l2.4 0l0 -0.3l-2.4 0Z" fill="rgb(227,73,2)" fill-opacity="0.3"></path>
<path d="M830.2 271l2.4 0l0 -0.3l-2.4 0Z" fill="rgb(227,73,2)" fill-opacity="0.3"></path>
<path d="M833.7 271l2.4 0l0 -0.3l-2.4 0Z" fill="rgb(227,73,2)" fill-opacity="0.3"></path>
<path d="M837.3 271l2.4 0l0 -0.3l-2.4 0Z" fill="rgb(227,73,2)" fill-opacity="0.3"></path>
<path d="M840.8 271l2.4 0l0 -0.3l-2.4 0Z" fill="rgb(227,73,2)" fill-opacity="0.3"></path>
<path d="M844.3 271l2.4 0l0 -0.3l-2.4 0Z" fill="rgb(227,73,2)" fill-opacity="0.3"></path>
<path d="M847.8 271l2.4 0l0 -0.3l-2.4 0Z" fill="rgb(227,73,2)" fill-opacity="0.3"></path>
<path d="M851.4 271l2.4 0l0 -0.3l-2.4 0Z" fill="rgb(227,73,2)" fill-opacity="0.3"></path>
<path d="M854.9 271l2.4 0l0 -0.3l-2.4 0Z" fill="rgb(227,73,2)" fill-opacity="0.3"></path>
<path d="M858.4 271l2.4 0l0 -0.3l-2.4 0Z" fill="rgb(227,73,2)" fill-opacity="0.3"></path>
<path d="M861.9 271l2.4 0l0 -0.3l-2.4 0Z" fill="rgb(227,73,2)" fill-opacity="0.3"></path>
<path d="M865.5 271l2.4 0l0 -0.3l-2.4 0Z" fill="rgb(227,73,2)" fill-opacity="0.3"></path>
<path d="M869 271l2.4 0l0 -0.3l-2.4 0Z" fill="rgb(227,73,2)" fill-opacity="0.3"></path>
<path d="M872.5 271l2.4 0l0 -0.3l-2.4 0Z" fill="rgb(227,73,2)" fill-opacity="0.3"></path>
<path d="M876 271l2.4 0l0 -0.3l-2.4 0Z" fill="rgb(227,73,2)" fill-opacity="0.3"></path>
<path d="M879.5 271l2.4 0l0 -0.3l-2.4 0Z" fill="rgb(227,73,2)" fill-opacity="0.3"></path>
<path d="M883.1 271l2.4 0l0 -0.3l-2.4 0Z" fill="rgb(227,73,2)" fill-opacity="0.3"></path>
<path d="M886.6 271l2.4 0l0 -0.3l-2.4 0Z" fill="rgb(227,73,2)" fill-opacity="0.3"></path>
<path d="M890.1 271l2.4 0l0 -0.3l-2.4 0Z" fill="rgb(227,73,2)" fill-opacity="0.3"></path>
<path d="M893.6 271l2.4 0l0 -0.3l-2.4 0Z" fill="rgb(227,73,2)" fill-opacity="0.3"></path>
<path d="M897.2 271l2.4 0l0 -0.3l-2.4 0Z" fill="rgb(227,73,2)" fill-opacity="0.3"></path>
<path d="M900.7 271l2.4 0l0 -0.3l-2.4 0Z" fill="rgb(227,73,2)" fill-opacity="0.3"></path>
<path d="M904.2 271l2.4 0l0 -0.3l-2.4 0Z" fill="rgb(227,73,2)" fill-opacity="0.3"></path>
<path d="M907.7 271l2.4 0l0 -0.3l-2.4 0Z" fill="rgb(227,73,2)" fill-opacity="0.3"></path>
<path d="M911.2 271l2.4 0l0 -0.3l-2.4 0Z" fill="rgb(227,73,2)" fill-opacity="0.3"></path>
<path d="M914.8 271l2.4 0l0 -0.3l-2.4 0Z" fill="rgb(227,73,2)" fill-opacity="0.3"></path>
<path d="M918.3 271l2.4 0l0 -0.3l-2.4 0Z" fill="rgb(227,73,2)" fill-opacity="0.3"></path>
<path d="M921.8 271l2.4 0l0 -0.3l-2.4 0Z" fill="rgb(227,73,2)" fill-opacity="0.3"></path>
<path d="M925.3 271l2.4 0l0 -0.3l-2.4 0Z" fill="rgb(227,73,2)" fill-opacity="0.3"></path>
<path d="M928.9 271l2.4 0l0 -0.3l-2.4 0Z" fill="rgb(227,73,2)" fill-opacity="0.3"></path>
<path d="M-5 -5l226.9 0l0 24l-226.9 0Z" transform="translate(391.54 5)" fill="rgb(0,0,0)" fill-opacity="0" stroke="#ccc" stroke-width="0"></path>
<path d="M3.5 0L21.5 0A3.5 3.5 0 0 1 25 3.5L25 10.5A3.5 3.5 0 0 1 21.5 14L3.5 14A3.5 3.5 0 0 1 0 10.5L0 3.5A3.5 3.5 0 0 1 3.5 0" transform="translate(391.54 5)" fill="rgb(227,73,2)" fill-opacity="0.3"></path>
<text dominant-baseline="central" text-anchor="start" style="font-size:12px;font-family:sans-serif;" xml:space="preserve" x="30" y="7" transform="translate(391.54 5)" fill="#333">Times completed</text>
<path d="M0 7L25 7" transform="translate(524.1 5)" fill="#000" stroke="#E34902" stroke-width="2" stroke-linecap="butt" stroke-miterlimit="10"></path>
<path d="M18.1 7A5.6 5.6 0 1 1 18.1 6.4A5.6 5.6 0 0 1 18.1 7" transform="translate(524.1 5)" fill="#fff" stroke="#E34902" stroke-width="2" stroke-linecap="butt" stroke-miterlimit="10"></path>
<text dominant-baseline="central" text-anchor="start" style="font-size:12px;font-family:sans-serif;" x="30" y="7" transform="translate(524.1 5)" fill="#333">Eddington</text>
<path d="M-0.54 -0.89A0.6 0.6 0 1 1 0.54 -0.89C0.39 -0.56 0 -0.42 0 0C0 -0.42 -0.39 -0.56 -0.54 -0.89Z" transform="matrix(25,0,0,25,327.6621,244.6187)" fill="rgb(227,73,2)" fill-opacity="0.8"></path>
<text dominant-baseline="central" text-anchor="middle" style="font-size:12px;font-family:sans-serif;" transform="translate(327.6621 218.4758)" fill="#eee" stroke="rgb(227,73,2)" stroke-width="2" paint-order="stroke" stroke-opacity="0.8" stroke-miterlimit="2">77</text>
<g clip-path="url(#zr0-c0)">
<path d="M59.9 270.7L63.4 270.4L67 270.2L70.5 269.9L74 269.6L77.5 269.3L81.1 269L84.6 268.7L88.1 268.5L91.6 268.2L95.2 267.9L98.7 267.6L102.2 267.3L105.7 267.1L109.2 266.8L112.8 266.5L116.3 266.2L119.8 265.9L123.3 265.7L126.9 265.4L130.4 265.1L133.9 264.8L137.4 264.5L140.9 264.2L144.5 264L148 263.7L151.5 263.4L155 263.1L158.6 262.8L162.1 262.6L165.6 262.3L169.1 262L172.7 261.7L176.2 261.4L179.7 261.2L183.2 260.9L186.7 260.6L190.3 260.3L193.8 260L197.3 259.7L200.8 259.5L204.4 259.2L207.9 258.9L211.4 258.6L214.9 258.3L218.5 258.1L222 257.8L225.5 257.5L229 257.2L232.5 256.9L236.1 256.7L239.6 256.4L243.1 256.1L246.6 255.8L250.2 255.5L253.7 255.2L257.2 255L260.7 254.7L264.2 254.4L267.8 254.1L271.3 253.8L274.8 253.6L278.3 253.3L281.9 253L285.4 252.7L288.9 252.4L292.4 252.2L296 251.9L299.5 251.6L303 251.3L306.5 251L310 250.7L313.6 250.5L317.1 250.2L320.6 249.9L324.1 249.6L327.7 249.3L331.2 249.1L334.7 248.8L338.2 248.5L341.8 248.2L345.3 247.9L348.8 247.6L352.3 247.4L355.8 247.1L359.4 246.8L362.9 246.5L366.4 246.2L369.9 246L373.5 245.7L377 245.4L380.5 245.1L384 244.8L387.6 244.6L391.1 244.3L394.6 244L398.1 243.7L401.6 243.4L405.2 243.1L408.7 242.9L412.2 242.6L415.7 242.3L419.3 242L422.8 241.7L426.3 241.5L429.8 241.2L433.3 240.9L436.9 240.6L440.4 240.3L443.9 240.1L447.4 239.8L451 239.5L454.5 239.2L458 238.9L461.5 238.6L465.1 238.4L468.6 238.1L472.1 237.8L475.6 237.5L479.1 237.2L482.7 237L486.2 236.7L489.7 236.4L493.2 236.1L496.8 235.8L500.3 235.6L503.8 235.3L507.3 235L510.9 234.7L514.4 234.4L517.9 234.1L521.4 233.9L524.9 233.6L528.5 233.3L532 233L535.5 232.7L539 232.5L542.6 232.2L546.1 231.9L549.6 231.6L553.1 231.3L556.7 231.1L560.2 230.8L563.7 230.5L567.2 230.2L570.7 229.9L574.3 229.6L577.8 229.4L581.3 229.1L584.8 228.8L588.4 228.5L591.9 228.2L595.4 228L598.9 227.7L602.4 227.4L606 227.1L609.5 226.8L613 226.5L616.5 226.3L620.1 226L623.6 225.7L627.1 225.4L630.6 225.1L634.2 224.9L637.7 224.6L641.2 224.3L644.7 224L648.2 223.7L651.8 223.5L655.3 223.2L658.8 222.9L662.3 222.6L665.9 222.3L669.4 222L672.9 221.8L676.4 221.5L680 221.2L683.5 220.9L687 220.6L690.5 220.4L694 220.1L697.6 219.8L701.1 219.5L704.6 219.2L708.1 219L711.7 218.7L715.2 218.4L718.7 218.1L722.2 217.8L725.8 217.5L729.3 217.3L732.8 217L736.3 216.7L739.8 216.4L743.4 216.1L746.9 215.9L750.4 215.6L753.9 215.3L757.5 215L761 214.7L764.5 214.5L768 214.2L771.5 213.9L775.1 213.6L778.6 213.3L782.1 213L785.6 212.8L789.2 212.5L792.7 212.2L796.2 211.9L799.7 211.6L803.3 211.4L806.8 211.1L810.3 210.8L813.8 210.5L817.3 210.2L820.9 210L824.4 209.7L827.9 209.4L831.4 209.1L835 208.8L838.5 208.5L842 208.3L845.5 208L849.1 207.7L852.6 207.4L856.1 207.1L859.6 206.9L863.1 206.6L866.7 206.3L870.2 206L873.7 205.7L877.2 205.4L880.8 205.2L884.3 204.9L887.8 204.6L891.3 204.3L894.8 204L898.4 203.8L901.9 203.5L905.4 203.2L908.9 202.9L912.5 202.6L916 202.4L919.5 202.1L923 201.8L926.6 201.5L930.1 201.2" fill="none" stroke="#E34902" stroke-width="2" stroke-linejoin="bevel"></path>
</g>
<defs >
<clipPath id="zr0-c0">
<path d="M57 59l876 0l0 213l-876 0Z" fill="#000"></path>
</clipPath>
</defs>
</svg>