<svg width="1000" height="300" xmlns="http://www.w3.org/2000/svg" xmlns:xlink="http://www.w3.org/1999/xlink" version="1.1" baseProfile="full" viewBox="0 0 1000 300">
<rect width="1000" height="300" x="0" y="0" id="0" fill="#ffffff"></rect>
<path d="M77.5 60L77.5 271" fill="none" stroke="#E0E6F1"></path>
<path d="M165.5 60L165.5 271" fill="none" stroke="#E0E6F1"></path>
<path d="M254.5 60L254.5 271" fill="none" stroke="#E0E6F1"></path>
<path d="M342.5 60L342.5 271" fill="none" stroke="#E0E6F1"></path>
<path d="M430.5 60L430.5 271" fill="none" stroke="#E0E6F1"></path>
<path d="M518.5 60L518.5 271" fill="none" stroke="#E0E6F1"></path>
<path d="M607.5 60L607.5 271" fill="none" stroke="#E0E6F1"></path>
<path d="M695.5 60L695.5 271" fill="none" stroke="#E0E6F1"></path>
<path d="M783.5 60L783.5 271" fill="none" stroke="#E0E6F1"></path>
<path d="M871.5 60L871.5 271" fill="none" stroke="#E0E6F1"></path>
<path d="M960.5 60L960.5 271" fill="none" stroke="#E0E6F1"></path>
<path d="M77.5 271.5L960 271.5" fill="none" stroke="#6E7079" stroke-linecap="round"></path>
<text dominant-baseline="central" text-anchor="end" style="font-size:12px;font-family:sans-serif;" xml:space="preserve" transform="translate(69.48 271)" fill="#6E7079">0 km</text>
<text dominant-baseline="central" text-anchor="end" style="font-size:12px;font-family:sans-serif;" xml:space="preserve" transform="translate(69.48 228.8)" fill="#6E7079">30 km</text>
<text dominant-baseline="central" text-anchor="end" style="font-size:12px;font-family:sans-serif;" xml:space="preserve" transform="translate(69.48 186.6)" fill="#6E7079">60 km</text>
<text dominant-baseline="central" text-anchor="end" style="font-size:12px;font-family:sans-serif;" xml:space="preserve" transform="translate(69.48 144.4)" fill="#6E7079">90 km</text>
<text dominant-baseline="central" text-anchor="end" style="font-size:12px;font-family:sans-serif;" xml:space="preserve" transform="translate(69.48 102.2)" fill="#6E7079">120 km</text>
<text dominant-baseline="central" text-anchor="end" style="font-size:12px;font-family:sans-serif;" xml:space="preserve" transform="translate(69.48 60)" fill="#6E7079">150 km</text>
<text dominant-baseline="central" text-anchor="middle" style="font-size:12px;font-family:sans-serif;" xml:space="preserve" y="6" transform="translate(165.732 279)" fill="#6E7079">Oct 2023</text>
<text dominant-baseline="central" text-anchor="middle" style="font-size:12px;font-family:sans-serif;" xml:space="preserve" y="6" transform="translate(253.984 279)" fill="#6E7079">Nov 2023</text>
<text dominant-baseline="central" text-anchor="middle" style="font-size:12px;font-family:sans-serif;" xml:space="preserve" y="6" transform="translate(606.992 279)" fill="#6E7079">Dec 2023</text>
<text dominant-baseline="central" text-anchor="middle" style="font-size:12px;font-family:sans-serif;" xml:space="preserve" y="6" transform="translate(960 279)" fill="#6E7079">Jan 2024</text>
<g clip-path="url(#zr4-c0)">
<path d="M77.5 113.5L165.7 155.7L254 247.1L342.2 172.5L430.5 183.8L518.7 69.8L607 81.1L695.2 245.7L783.5 185.2L871.7 255.5L960 197.9L960 271L871.7 271L783.5 271L695.2 271L607 271L518.7 271L430.5 271L342.2 271L254 271L165.7 271L77.5 271Z" fill="rgb(227,73,2)" fill-opacity="0.09"></path>
<path d="M77.5 113.5L165.7 155.7L254 247.1L342.2 172.5L430.5 183.8L518.7 69.8L607 81.1L695.2 245.7L783.5 185.2L871.7 255.5L960 197.9" fill="none" stroke="#E34902" stroke-linejoin="bevel"></path>
</g>
<path d="M1 0A1 1 0 1 1 1 -0.1A1 1 0 0 1 1 0" transform="matrix(3,0,0,3,77.48,113.4533)" fill="#fff" stroke="#E34902" stroke-width="0.6666666666666666"></path>
<path d="M1 0A1 1 0 1 1 1 -0.1A1 1 0 0 1 1 0" transform="matrix(3,0,0,3,165.732,155.6533)" fill="#fff" stroke="#E34902" stroke-width="0.6666666666666666"></path>
<path d="M1 0A1 1 0 1 1 1 -0.1A1 1 0 0 1 1 0" transform="matrix(3,0,0,3,253.984,247.0867)" fill="#fff" stroke="#E34902" stroke-width="0.6666666666666666"></path>
<path d="M1 0A1 1 0 1 1 1 -0.1A1 1 0 0 1 1 0" transform="matrix(3,0,0,3,342.236,172.5333)" fill="#fff" stroke="#E34902" stroke-width="0.6666666666666666"></path>
<path d="M1 0A1 1 0 1 1 1 -0.1A1 1 0 0 1 1 0" transform="matrix(3,0,0,3,430.488,183.7867)" fill="#fff" stroke="#E34902" stroke-width="0.6666666666666666"></path>
<path d="M1 0A1 1 0 1 1 1 -0.1A1 1 0 0 1 1 0" transform="matrix(3,0,0,3,518.74,69.8467)" fill="#fff" stroke="#E34902" stroke-width="0.6666666666666666"></path>
<path d="M1 0A1 1 0 1 1 1 -0.1A1 1 0 0 1 1 0" transform="matrix(3,0,0,3,606.992,81.1)" fill="#fff" stroke="#E34902" stroke-width="0.6666666666666666"></path>
<path d="M1 0A1 1 0 1 1 1 -0.1A1 1 0 0 1 1 0" transform="matrix(3,0,0,3,695.244,245.68)" fill="#fff" stroke="#E34902" stroke-width="0.6666666666666666"></path>
<path d="M1 0A1 1 0 1 1 1 -0.1A1 1 0 0 1 1 0" transform="matrix(3,0,0,3,783.496,185.1933)" fill="#fff" stroke="#E34902" stroke-width="0.6666666666666666"></path>
<path d="M1 0A1 1 0 1 1 1 -0.1A1 1 0 0 1 1 0" transform="matrix(3,0,0,3,871.748,255.5267)" fill="#fff" stroke="#E34902" stroke-width="0.6666666666666666"></path>
<path d="M1 0A1 1 0 1 1 1 -0.1A1 1 0 0 1 1 0" transform="matrix(3,0,0,3,960,197.8533)" fill="#fff" stroke="#E34902" stroke-width="0.6666666666666666"></path>
<text dominant-baseline="central" text-anchor="middle" style="font-size:12px;font-family:sans-serif;" xml:space="preserve" y="-6" transform="matrix(0.707,0.707,-0.707,0.707,77.48,104.4533)" fill="#333" stroke="rgb(255,255,255)" stroke-width="2" paint-order="stroke" stroke-miterlimit="2">112 km</text>
<text dominant-baseline="central" text-anchor="middle" style="font-size:12px;font-family:sans-serif;" xml:space="preserve" y="-6" transform="matrix(0.707,0.707,-0.707,0.707,165.732,146.6533)" fill="#333" stroke="rgb(255,255,255)" stroke-width="2" paint-order="stroke" stroke-miterlimit="2">82 km</text>
<text dominant-baseline="central" text-anchor="middle" style="font-size:12px;font-family:sans-serif;" xml:space="preserve" y="-6" transform="matrix(0.707,0.707,-0.707,0.707,253.984,238.0867)" fill="#333" stroke="rgb(255,255,255)" stroke-width="2" paint-order="stroke" stroke-miterlimit="2">17 km</text>
<text dominant-baseline="central" text-anchor="middle" style="font-size:12px;font-family:sans-serif;" xml:space="preserve" y="-6" transform="matrix(0.707,0.707,-0.707,0.707,342.236,163.5333)" fill="#333" stroke="rgb(255,255,255)" stroke-width="2" paint-order="stroke" stroke-miterlimit="2">70 km</text>
<text dominant-baseline="central" text-anchor="middle" style="font-size:12px;font-family:sans-serif;" xml:space="preserve" y="-6" transform="matrix(0.707,0.707,-0.707,0.707,430.488,174.7867)" fill="#333" stroke="rgb(255,255,255)" stroke-width="2" paint-order="stroke" stroke-miterlimit="2">62 km</text>
<text dominant-baseline="central" text-anchor="middle" style="font-size:12px;font-family:sans-serif;" xml:space="preserve" y="-6" transform="matrix(0.707,0.707,-0.707,0.707,518.74,60.8467)" fill="#333" stroke="rgb(255,255,255)" stroke-width="2" paint-order="stroke" stroke-miterlimit="2">143 km</text>
<text dominant-baseline="central" text-anchor="middle" style="font-size:12px;font-family:sans-serif;" xml:space="preserve" y="-6" transform="matrix(0.707,0.707,-0.707,0.707,606.992,72.1)" fill="#333" stroke="rgb(255,255,255)" stroke-width="2" paint-order="stroke" stroke-miterlimit="2">135 km</text>
<text dominant-baseline="central" text-anchor="middle" style="font-size:12px;font-family:sans-serif;" xml:space="preserve" y="-6" transform="matrix(0.707,0.707,-0.707,0.707,695.244,236.68)" fill="#333" stroke="rgb(255,255,255)" stroke-width="2" paint-order="stroke" stroke-miterlimit="2">18 km</text>
<text dominant-baseline="central" text-anchor="middle" style="font-size:12px;font-family:sans-serif;" xml:space="preserve" y="-6" transform="matrix(0.707,0.707,-0.707,0.707,783.496,176.1933)" fill="#333" stroke="rgb(255,255,255)" stroke-width="2" paint-order="stroke" stroke-miterlimit="2">61 km</text>
<text dominant-baseline="central" text-anchor="middle" style="font-size:12px;font-family:sans-serif;" xml:space="preserve" y="-6" transform="matrix(0.707,0.707,-0.707,0.707,871.748,246.5267)" fill="#333" stroke="rgb(255,255,255)" stroke-width="2" paint-order="stroke" stroke-miterlimit="2">11 km</text>
<text dominant-baseline="central" text-anchor="middle" style="font-size:12px;font-family:sans-serif;" xml:space="preserve" y="-6" transform="matrix(0.707,0.707,-0.707,0.707,960,188.8533)" fill="#333" stroke="rgb(255,255,255)" stroke-width="2" paint-order="stroke" stroke-miterlimit="2">52 km</text>
<defs >
<clipPath id="zr4-c0">
<path d="M76 59.5l884 0l0 212l-884 0Z" fill="#000"></path>
</clipPath>
</defs>
</svg>