<svg width="1000" height="300" xmlns="http://www.w3.org/2000/svg" xmlns:xlink="http://www.w3.org/1999/xlink" version="1.1" baseProfile="full" viewBox="0 0 1000 300">
<rect width="1000" height="300" x="0" y="0" id="0" fill="#ffffff"></rect>
<path d="M58.2 271.5L931.8 271.5" fill="none" stroke="#E0E6F1"></path>
<path d="M58.2 222.5L931.8 222.5" fill="none" stroke="#E0E6F1"></path>
<path d="M58.2 173.5L931.8 173.5" fill="none" stroke="#E0E6F1"></path>
<path d="M58.2 125.5L931.8 125.5" fill="none" stroke="#E0E6F1"></path>
<path d="M58.2 76.5L931.8 76.5" fill="none" stroke="#E0E6F1"></path>
<path d="M58.2 60.5L931.8 60.5" fill="none" stroke="#E0E6F1"></path>
<path d="M58.2 271.5L931.8 271.5" fill="none" stroke="#6E7079" stroke-linecap="round"></path>
<path d="M60.5 271L60.5 276" fill="none" stroke="#6E7079"></path>
<path d="M109.5 271L109.5 276" fill="none" stroke="#6E7079"></path>
<path d="M158.5 271L158.5 276" fill="none" stroke="#6E7079"></path>
<path d="M208.5 271L208.5 276" fill="none" stroke="#6E7079"></path>
<path d="M257.5 271L257.5 276" fill="none" stroke="#6E7079"></path>
<path d="M306.5 271L306.5 276" fill="none" stroke="#6E7079"></path>
<path d="M356.5 271L356.5 276" fill="none" stroke="#6E7079"></path>
<path d="M405.5 271L405.5 276" fill="none" stroke="#6E7079"></path>
<path d="M454.5 271L454.5 276" fill="none" stroke="#6E7079"></path>
<path d="M504.5 271L504.5 276" fill="none" stroke="#6E7079"></path>
<path d="M553.5 271L553.5 276" fill="none" stroke="#6E7079"></path>
<path d="M602.5 271L602.5 276" fill="none" stroke="#6E7079"></path>
<path d="M652.5 271L652.5 276" fill="none" stroke="#6E7079"></path>
<path d="M701.5 271L701.5 276" fill="none" stroke="#6E7079"></path>
<path d="M750.5 271L750.5 276" fill="none" stroke="#6E7079"></path>
<path d="M799.5 271L799.5 276" fill="none" stroke="#6E7079"></path>
<path d="M849.5 271L849.5 276" fill="none" stroke="#6E7079"></path>
<path d="M898.5 271L898.5 276" fill="none" stroke="#6E7079"></path>
<text dominant-baseline="central" text-anchor="end" style="font-size:12px;font-family:sans-serif;" transform="translate(50.16 271)" fill="#6E7079">0</text>
<text dominant-baseline="central" text-anchor="end" style="font-size:12px;font-family:sans-serif;" transform="translate(50.16 222.3077)" fill="#6E7079">180</text>
<text dominant-baseline="central" text-anchor="end" style="font-size:12px;font-family:sans-serif;" transform="translate(50.16 173.6154)" fill="#6E7079">360</text>
<text dominant-baseline="central" text-anchor="end" style="font-size:12px;font-family:sans-serif;" transform="translate(50.16 124.9231)" fill="#6E7079">540</text>
<text dominant-baseline="central" text-anchor="end" style="font-size:12px;font-family:sans-serif;" transform="translate(50.16 76.2308)" fill="#6E7079">720</text>
<text dominant-baseline="central" text-anchor="end" style="font-size:12px;font-family:sans-serif;" transform="translate(50.16 60)" fill="#6E7079">780</text>
<text dominant-baseline="central" text-anchor="start" style="font-size:12px;font-family:sans-serif;" transform="translate(939.84 271)" fill="#6E7079">0</text>
<text dominant-baseline="central" text-anchor="start" style="font-size:12px;font-family:sans-serif;" transform="translate(939.84 222.3077)" fill="#6E7079">180</text>
<text dominant-baseline="central" text-anchor="start" style="font-size:12px;font-family:sans-serif;" transform="translate(939.84 173.6154)" fill="#6E7079">360</text>
<text dominant-baseline="central" text-anchor="start" style="font-size:12px;font-family:sans-serif;" transform="translate(939.84 124.9231)" fill="#6E7079">540</text>
<text dominant-baseline="central" text-anchor="start" style="font-size:12px;font-family:sans-serif;" transform="translate(939.84 76.2308)" fill="#6E7079">720</text>
<text dominant-baseline="central" text-anchor="start" style="font-size:12px;font-family:sans-serif;" transform="translate(939.84 60)" fill="#6E7079">780</text>
<text dominant-baseline="central" text-anchor="middle" style="font-size:12px;font-family:sans-serif;" y="6" transform="translate(59.9215 279)" fill="#6E7079">1km</text>
<text dominant-baseline="central" text-anchor="middle" style="font-size:12px;font-family:sans-serif;" y="6" transform="translate(109.2421 279)" fill="#6E7079">15km</text>
<text dominant-baseline="central" text-anchor="middle" style="font-size:12px;font-family:sans-serif;" y="6" transform="translate(158.5627 279)" fill="#6E7079">29km</text>
<text dominant-baseline="central" text-anchor="middle" style="font-size:12px;font-family:sans-serif;" y="6" transform="translate(207.8834 279)" fill="#6E7079">43km</text>
<text dominant-baseline="central" text-anchor="middle" style="font-size:12px;font-family:sans-serif;" y="6" transform="translate(257.204 279)" fill="#6E7079">57km</text>
<text dominant-baseline="central" text-anchor="middle" style="font-size:12px;font-family:sans-serif;" y="6" transform="translate(306.5247 279)" fill="#6E7079">71km</text>
<text dominant-baseline="central" text-anchor="middle" style="font-size:12px;font-family:sans-serif;" y="6" transform="translate(355.8453 279)" fill="#6E7079">85km</text>
<text dominant-baseline="central" text-anchor="middle" style="font-size:12px;font-family:sans-serif;" y="6" transform="translate(405.166 279)" fill="#6E7079">99km</text>
<text dominant-baseline="central" text-anchor="middle" style="font-size:12px;font-family:sans-serif;" y="6" transform="translate(454.4866 279)" fill="#6E7079">113km</text>
<text dominant-baseline="central" text-anchor="middle" style="font-size:12px;font-family:sans-serif;" y="6" transform="translate(503.8073 279)" fill="#6E7079">127km</text>
<text dominant-baseline="central" text-anchor="middle" style="font-size:12px;font-family:sans-serif;" y="6" transform="translate(553.1279 279)" fill="#6E7079">141km</text>
<text dominant-baseline="central" text-anchor="middle" style="font-size:12px;font-family:sans-serif;" y="6" transform="translate(602.4485 279)" fill="#6E7079">155km</text>
<text dominant-baseline="central" text-anchor="middle" style="font-size:12px;font-family:sans-serif;" y="6" transform="translate(651.7692 279)" fill="#6E7079">169km</text>
<text dominant-baseline="central" text-anchor="middle" style="font-size:12px;font-family:sans-serif;" y="6" transform="translate(701.0898 279)" fill="#6E7079">183km</text>
<text dominant-baseline="central" text-anchor="middle" style="font-size:12px;font-family:sans-serif;" y="6" transform="translate(750.4105 279)" fill="#6E7079">197km</text>
<text dominant-baseline="central" text-anchor="middle" style="font-size:12px;font-family:sans-serif;" y="6" transform="translate(799.7311 279)" fill="#6E7079">211km</text>
<text dominant-baseline="central" text-anchor="middle" style="font-size:12px;font-family:sans-serif;" y="6" transform="translate(849.0518 279)" fill="#6E7079">225km</text>
<text dominant-baseline="central" text-anchor="middle" style="font-size:12px;font-family:sans-serif;" y="6" transform="translate(898.3724 279)" fill="#6E7079">239km</text>
<path d="M58.7 271l2.4 0l0 -209.9l-2.4 0Z" fill="rgb(227,73,2)" fill-opacity="0.3"></path>
<path d="M62.2 271l2.4 0l0 -209.9l-2.4 0Z" fill="rgb(227,73,2)" fill-opacity="0.3"></path>
<path d="M65.8 271l2.4 0l0 -209.9l-2.4 0Z" fill="rgb(227,73,2)" fill-opacity="0.3"></path>
<path d="M69.3 271l2.4 0l0 -209.1l-2.4 0Z" fill="rgb(227,73,2)" fill-opacity="0.3"></path>
<path d="M72.8 271l2.4 0l0 -208.8l-2.4 0Z" fill="rgb(227,73,2)" fill-opacity="0.3"></path>
<path d="M76.3 271l2.4 0l0 -207.8l-2.4 0Z" fill="rgb(227,73,2)" fill-opacity="0.3"></path>
<path d="M79.8 271l2.4 0l0 -207.5l-2.4 0Z" fill="rgb(227,73,2)" fill-opacity="0.3"></path>
<path d="M83.4 271l2.4 0l0 -204.8l-2.4 0Z" fill="rgb(227,73,2)" fill-opacity="0.3"></path>
<path d="M86.9 271l2.4 0l0 -202.6l-2.4 0Z" fill="rgb(227,73,2)" fill-opacity="0.3"></path>
<path d="M90.4 271l2.4 0l0 -199.9l-2.4 0Z" fill="rgb(227,73,2)" fill-opacity="0.3"></path>
<path d="M93.9 271l2.4 0l0 -184.8l-2.4 0Z" fill="rgb(227,73,2)" fill-opacity="0.3"></path>
<path d="M97.5 271l2.4 0l0 -178l-2.4 0Z" fill="rgb(227,73,2)" fill-opacity="0.3"></path>
<path d="M101 271l2.4 0l0 -171.8l-2.4 0Z" fill="rgb(227,73,2)" fill-opacity="0.3"></path>
<path d="M104.5 271l2.4 0l0 -165.8l-2.4 0Z" fill="rgb(227,73,2)" fill-opacity="0.3"></path>
<path d="M108 271l2.4 0l0 -162l-2.4 0Z" fill="rgb(227,73,2)" fill-opacity="0.3"></path>
<path d="M111.5 271l2.4 0l0 -155.8l-2.4 0Z" fill="rgb(227,73,2)" fill-opacity="0.3"></path>
<path d="M115.1 271l2.4 0l0 -150.4l-2.4 0Z" fill="rgb(227,73,2)" fill-opacity="0.3"></path>
<path d="M118.6 271l2.4 0l0 -146.9l-2.4 0Z" fill="rgb(227,73,2)" fill-opacity="0.3"></path>
<path d="M122.1 271l2.4 0l0 -143.4l-2.4 0Z" fill="rgb(227,73,2)" fill-opacity="0.3"></path>
<path d="M125.6 271l2.4 0l0 -140.9l-2.4 0Z" fill="rgb(227,73,2)" fill-opacity="0.3"></path>
<path d="M129.2 271l2.4 0l0 -132.3l-2.4 0Z" fill="rgb(227,73,2)" fill-opacity="0.3"></path>
<path d="M132.7 271l2.4 0l0 -125.2l-2.4 0Z" fill="rgb(227,73,2)" fill-opacity="0.3"></path>
<path d="M136.2 271l2.4 0l0 -120.6l-2.4 0Z" fill="rgb(227,73,2)" fill-opacity="0.3"></path>
<path d="M139.7 271l2.4 0l0 -115.2l-2.4 0Z" fill="rgb(227,73,2)" fill-opacity="0.3"></path>
<path d="M143.3 271l2.4 0l0 -110.9l-2.4 0Z" fill="rgb(227,73,2)" fill-opacity="0.3"></path>
<path d="M146.8 271l2.4 0l0 -100.9l-2.4 0Z" fill="rgb(227,73,2)" fill-opacity="0.3"></path>
<path d="M150.3 271l2.4 0l0 -96.6l-2.4 0Z" fill="rgb(227,73,2)" fill-opacity="0.3"></path>
<path d="M153.8 271l2.4 0l0 -92.8l-2.4 0Z" fill="rgb(227,73,2)" fill-opacity="0.3"></path>
<path d="M157.3 271l2.4 0l0 -89.3l-2.4 0Z" fill="rgb(227,73,2)" fill-opacity="0.3"></path>
<path d="M160.9 271l2.4 0l0 -86.3l-2.4 0Z" fill="rgb(227,73,2)" fill-opacity="0.3"></path>
<path d="M164.4 271l2.4 0l0 -80.9l-2.4 0Z" fill="rgb(227,73,2)" fill-opacity="0.3"></path>
<path d="M167.9 271l2.4 0l0 -78.2l-2.4 0Z" fill="rgb(227,73,2)" fill-opacity="0.3"></path>
<path d="M171.4 271l2.4 0l0 -75.2l-2.4 0Z" fill="rgb(227,73,2)" fill-opacity="0.3"></path>
<path d="M175 271l2.4 0l0 -73.8l-2.4 0Z" fill="rgb(227,73,2)" fill-opacity="0.3"></path>
<path d="M178.5 271l2.4 0l0 -72.5l-2.4 0Z" fill="rgb(227,73,2)" fill-opacity="0.3"></path>
<path d="M182 271l2.4 0l0 -70.3l-2.4 0Z" fill="rgb(227,73,2)" fill-opacity="0.3"></path>
<path d="M185.5 271l2.4 0l0 -68.4l-2.4 0Z" fill="rgb(227,73,2)" fill-opacity="0.3"></path>
<path d="M189.1 271l2.4 0l0 -66.8l-2.4 0Z" fill="rgb(227,73,2)" fill-opacity="0.3"></path>
<path d="M192.6 271l2.4 0l0 -65.2l-2.4 0Z" fill="rgb(227,73,2)" fill-opacity="0.3"></path>
<path d="M196.1 271l2.4 0l0 -64.4l-2.4 0Z" fill="rgb(227,73,2)" fill-opacity="0.3"></path>
<path d="M199.6 271l2.4 0l0 -59l-2.4 0Z" fill="rgb(227,73,2)" fill-opacity="0.3"></path>
<path d="M203.1 271l2.4 0l0 -57.9l-2.4 0Z" fill="rgb(227,73,2)" fill-opacity="0.3"></path>
<path d="M206.7 271l2.4 0l0 -55.7l-2.4 0Z" fill="rgb(227,73,2)" fill-opacity="0.3"></path>
<path d="M210.2 271l2.4 0l0 -54.1l-2.4 0Z" fill="rgb(227,73,2)" fill-opacity="0.3"></path>
<path d="M213.7 271l2.4 0l0 -51.9l-2.4 0Z" fill="rgb(227,73,2)" fill-opacity="0.3"></path>
<path d="M217.2 271l2.4 0l0 -50.9l-2.4 0Z" fill="rgb(227,73,2)" fill-opacity="0.3"></path>
<path d="M220.8 271l2.4 0l0 -50l-2.4 0Z" fill="rgb(227,73,2)" fill-opacity="0.3"></path>
<path d="M224.3 271l2.4 0l0 -48.4l-2.4 0Z" fill="rgb(227,73,2)" fill-opacity="0.3"></path>
<path d="M227.8 271l2.4 0l0 -48.2l-2.4 0Z" fill="rgb(227,73,2)" fill-opacity="0.3"></path>
<path d="M231.3 271l2.4 0l0 -47.9l-2.4 0Z" fill="rgb(227,73,2)" fill-opacity="0.3"></path>
<path d="M234.9 271l2.4 0l0 -44.4l-2.4 0Z" fill="rgb(227,73,2)" fill-opacity="0.3"></path>
<path d="M238.4 271l2.4 0l0 -43.6l-2.4 0Z" fill="rgb(227,73,2)" fill-opacity="0.3"></path>
<path d="M241.9 271l2.4 0l0 -40.8l-2.4 0Z" fill="rgb(227,73,2)" fill-opacity="0.3"></path>
<path d="M245.4 271l2.4 0l0 -39l-2.4 0Z" fill="rgb(227,73,2)" fill-opacity="0.3"></path>
<path d="M248.9 271l2.4 0l0 -38.7l-2.4 0Z" fill="rgb(227,73,2)" fill-opacity="0.3"></path>
<path d="M252.5 271l2.4 0l0 -36l-2.4 0Z" fill="rgb(227,73,2)" fill-opacity="0.3"></path>
<path d="M256 271l2.4 0l0 -35.2l-2.4 0Z" fill="rgb(227,73,2)" fill-opacity="0.3"></path>
<path d="M259.5 271l2.4 0l0 -34.6l-2.4 0Z" fill="rgb(227,73,2)" fill-opacity="0.3"></path>
<path d="M263 271l2.4 0l0 -33.8l-2.4 0Z" fill="rgb(227,73,2)" fill-opacity="0.3"></path>
<path d="M266.6 271l2.4 0l0 -33.5l-2.4 0Z" fill="rgb(227,73,2)" fill-opacity="0.3"></path>
<path d="M270.1 271l2.4 0l0 -32.2l-2.4 0Z" fill="rgb(227,73,2)" fill-opacity="0.3"></path>
<path d="M273.6 271l2.4 0l0 -31.4l-2.4 0Z" fill="rgb(227,73,2)" fill-opacity="0.3"></path>
<path d="M277.1 271l2.4 0l0 -31.1l-2.4 0Z" fill="rgb(227,73,2)" fill-opacity="0.3"></path>
<path d="M280.6 271l2.4 0l0 -30.6l-2.4 0Z" fill="rgb(227,73,2)" fill-opacity="0.3"></path>
<path d="M284.2 271l2.4 0l0 -29.5l-2.4 0Z" fill="rgb(227,73,2)" fill-opacity="0.3"></path>
<path d="M287.7 271l2.4 0l0 -28.7l-2.4 0Z" fill="rgb(227,73,2)" fill-opacity="0.3"></path>
<path d="M291.2 271l2.4 0l0 -28.7l-2.4 0Z" fill="rgb(227,73,2)" fill-opacity="0.3"></path>
<path d="M294.7 271l2.4 0l0 -27.9l-2.4 0Z" fill="rgb(227,73,2)" fill-opacity="0.3"></path>
<path d="M298.3 271l2.4 0l0 -27.1l-2.4 0Z" fill="rgb(227,73,2)" fill-opacity="0.3"></path>
<path d="M301.8 271l2.4 0l0 -26.2l-2.4 0Z" fill="rgb(227,73,2)" fill-opacity="0.3"></path>
<path d="M305.3 271l2.4 0l0 -24.9l-2.4 0Z" fill="rgb(227,73,2)" fill-opacity="0.3"></path>
<path d="M308.8 271l2.4 0l0 -24.3l-2.4 0Z" fill="rgb(227,73,2)" fill-opacity="0.3"></path>
<path d="M312.4 271l2.4 0l0 -23.8l-2.4 0Z" fill="rgb(227,73,2)" fill-opacity="0.3"></path>
<path d="M315.9 271l2.4 0l0 -23.3l-2.4 0Z" fill="rgb(227,73,2)" fill-opacity="0.3"></path>
<path d="M319.4 271l2.4 0l0 -23l-2.4 0Z" fill="rgb(227,73,2)" fill-opacity="0.3"></path>
<path d="M322.9 271l2.4 0l0 -22.2l-2.4 0Z" fill="rgb(227,73,2)" fill-opacity="0.3"></path>
<path d="M326.4 271l2.4 0l0 -21.6l-2.4 0Z" fill="rgb(227,73,2)" fill-opacity="0.8"></path>
<path d="M330 271l2.4 0l0 -20.6l-2.4 0Z" fill="rgb(227,73,2)" fill-opacity="0.3"></path>
<path d="M333.5 271l2.4 0l0 -20l-2.4 0Z" fill="rgb(227,73,2)" fill-opacity="0.3"></path>
<path d="M337 271l2.4 0l0 -19.7l-2.4 0Z" fill="rgb(227,73,2)" fill-opacity="0.3"></path>
<path d="M340.5 271l2.4 0l0 -18.4l-2.4 0Z" fill="rgb(227,73,2)" fill-opacity="0.3"></path>
<path d="M344.1 271l2.4 0l0 -17.3l-2.4 0Z" fill="rgb(227,73,2)" fill-opacity="0.3"></path>
<path d="M347.6 271l2.4 0l0 -16.5l-2.4 0Z" fill="rgb(227,73,2)" fill-opacity="0.3"></path>
<path d="M351.1 271l2.4 0l0 -15.4l-2.4 0Z" fill="rgb(227,73,2)" fill-opacity="0.3"></path>
<path d="M354.6 271l2.4 0l0 -15.1l-2.4 0Z" fill="rgb(227,73,2)" fill-opacity="0.3"></path>
<path d="M358.2 271l2.4 0l0 -14.3l-2.4 0Z" fill="rgb(227,73,2)" fill-opacity="0.3"></path>
<path d="M361.7 271l2.4 0l0 -14.1l-2.4 0Z" fill="rgb(227,73,2)" fill-opacity="0.3"></path>
<path d="M365.2 271l2.4 0l0 -14.1l-2.4 0Z" fill="rgb(227,73,2)" fill-opacity="0.3"></path>
<path d="M368.7 271l2.4 0l0 -14.1l-2.4 0Z" fill="rgb(227,73,2)" fill-opacity="0.3"></path>
<path d="M372.2 271l2.4 0l0 -13.5l-2.4 0Z" fill="rgb(227,73,2)" fill-opacity="0.3"></path>
<path d="M375.8 271l2.4 0l0 -13.3l-2.4 0Z" fill="rgb(227,73,2)" fill-opacity="0.3"></path>
<path d="M379.3 271l2.4 0l0 -13l-2.4 0Z" fill="rgb(227,73,2)" fill-opacity="0.3"></path>
<path d="M382.8 271l2.4 0l0 -12.7l-2.4 0Z" fill="rgb(227,73,2)" fill-opacity="0.3"></path>
<path d="M386.3 271l2.4 0l0 -12.7l-2.4 0Z" fill="rgb(227,73,2)" fill-opacity="0.3"></path>
<path d="M389.9 271l2.4 0l0 -12.7l-2.4 0Z" fill="rgb(227,73,2)" fill-opacity="0.3"></path>
<path d="M393.4 271l2.4 0l0 -12.7l-2.4 0Z" fill="rgb(227,73,2)" fill-opacity="0.3"></path>
<path d="M396.9 271l2.4 0l0 -12.7l-2.4 0Z" fill="rgb(227,73,2)" fill-opacity="0.3"></path>
<path d="M400.4 271l2.4 0l0 -12.4l-2.4 0Z" fill="rgb(227,73,2)" fill-opacity="0.3"></path>
<path d="M404 271l2.4 0l0 -12.4l-2.4 0Z" fill="rgb(227,73,2)" fill-opacity="0.3"></path>
<path d="M407.5 271l2.4 0l0 -12.4l-2.4 0Z" fill="rgb(227,73,2)" fill-opacity="0.3"></path>
<path d="M411 271l2.4 0l0 -10.6l-2.4 0Z" fill="rgb(227,73,2)" fill-opacity="0.3"></path>
<path d="M414.5 271l2.4 0l0 -10l-2.4 0Z" fill="rgb(227,73,2)" fill-opacity="0.3"></path>
<path d="M418 271l2.4 0l0 -9.5l-2.4 0Z" fill="rgb(227,73,2)" fill-opacity="0.3"></path>
<path d="M421.6 271l2.4 0l0 -9.2l-2.4 0Z" fill="rgb(227,73,2)" fill-opacity="0.3"></path>
<path d="M425.1 271l2.4 0l0 -9.2l-2.4 0Z" fill="rgb(227,73,2)" fill-opacity="0.3"></path>
<path d="M428.6 271l2.4 0l0 -8.9l-2.4 0Z" fill="rgb(227,73,2)" fill-opacity="0.3"></path>
<path d="M432.1 271l2.4 0l0 -8.1l-2.4 0Z" fill="rgb(227,73,2)" fill-opacity="0.3"></path>
<path d="M435.7 271l2.4 0l0 -7.8l-2.4 0Z" fill="rgb(227,73,2)" fill-opacity="0.3"></path>
<path d="M439.2 271l2.4 0l0 -7.6l-2.4 0Z" fill="rgb(227,73,2)" fill-opacity="0.3"></path>
<path d="M442.7 271l2.4 0l0 -7.3l-2.4 0Z" fill="rgb(227,73,2)" fill-opacity="0.3"></path>
<path d="M446.2 271l2.4 0l0 -6.8l-2.4 0Z" fill="rgb(227,73,2)" fill-opacity="0.3"></path>
<path d="M449.7 271l2.4 0l0 -6l-2.4 0Z" fill="rgb(227,73,2)" fill-opacity="0.3"></path>
<path d="M453.3 271l2.4 0l0 -5.4l-2.4 0Z" fill="rgb(227,73,2)" fill-opacity="0.3"></path>
<path d="M456.8 271l2.4 0l0 -5.4l-2.4 0Z" fill="rgb(227,73,2)" fill-opacity="0.3"></path>
<path d="M460.3 271l2.4 0l0 -5.1l-2.4 0Z" fill="rgb(227,73,2)" fill-opacity="0.3"></path>
<path d="M463.8 271l2.4 0l0 -5.1l-2.4 0Z" fill="rgb(227,73,2)" fill-opacity="0.3"></path>
<path d="M467.4 271l2.4 0l0 -5.1l-2.4 0Z" fill="rgb(227,73,2)" fill-opacity="0.3"></path>
<path d="M470.9 271l2.4 0l0 -4.3l-2.4 0Z" fill="rgb(227,73,2)" fill-opacity="0.3"></path>
<path d="M474.4 271l2.4 0l0 -4.1l-2.4 0Z" fill="rgb(227,73,2)" fill-opacity="0.3"></path>
<path d="M477.9 271l2.4 0l0 -3.8l-2.4 0Z" fill="rgb(227,73,2)" fill-opacity="0.3"></path>
<path d="M481.5 271l2.4 0l0 -3.2l-2.4 0Z" fill="rgb(227,73,2)" fill-opacity="0.3"></path>
<path d="M485 271l2.4 0l0 -3l-2.4 0Z" fill="rgb(227,73,2)" fill-opacity="0.3"></path>
<path d="M488.5 271l2.4 0l0 -2.7l-2.4 0Z" fill="rgb(227,73,2)" fill-opacity="0.3"></path>
<path d="M492 271l2.4 0l0 -2.7l-2.4 0Z" fill="rgb(227,73,2)" fill-opacity="0.3"></path>
<path d="M495.5 271l2.4 0l0 -2.4l-2.4 0Z" fill="rgb(227,73,2)" fill-opacity="0.3"></path>
<path d="M499.1 271l2.4 0l0 -2.4l-2.4 0Z" fill="rgb(227,73,2)" fill-opacity="0.3"></path>
<path d="M502.6 271l2.4 0l0 -2.4l-2.4 0Z" fill="rgb(227,73,2)" fill-opacity="0.3"></path>
<path d="M506.1 271l2.4 0l0 -2.4l-2.4 0Z" fill="rgb(227,73,2)" fill-opacity="0.3"></path>
<path d="M509.6 271l2.4 0l0 -2.4l-2.4 0Z" fill="rgb(227,73,2)" fill-opacity="0.3"></path>
<path d="M513.2 271l2.4 0l0 -2.4l-2.4 0Z" fill="rgb(227,73,2)" fill-opacity="0.3"></path>
<path d="M516.7 271l2.4 0l0 -2.2l-2.4 0Z" fill="rgb(227,73,2)" fill-opacity="0.3"></path>
<path d="M520.2 271l2.4 0l0 -2.2l-2.4 0Z" fill="rgb(227,73,2)" fill-opacity="0.3"></path>
<path d="M523.7 271l2.4 0l0 -2.2l-2.4 0Z" fill="rgb(227,73,2)" fill-opacity="0.3"></path>
<path d="M527.3 271l2.4 0l0 -2.2l-2.4 0Z" fill="rgb(227,73,2)" fill-opacity="0.3"></path>
<path d="M530.8 271l2.4 0l0 -2.2l-2.4 0Z" fill="rgb(227,73,2)" fill-opacity="0.3"></path>
<path d="M534.3 271l2.4 0l0 -2.2l-2.4 0Z" fill="rgb(227,73,2)" fill-opacity="0.3"></path>
<path d="M537.8 271l2.4 0l0 -2.2l-2.4 0Z" fill="rgb(227,73,2)" fill-opacity="0.3"></path>
<path d="M541.3 271l2.4 0l0 -2.2l-2.4 0Z" fill="rgb(227,73,2)" fill-opacity="0.3"></path>
<path d="M544.9 271l2.4 0l0 -2.2l-2.4 0Z" fill="rgb(227,73,2)" fill-opacity="0.3"></path>
<path d="M548.4 271l2.4 0l0 -2.2l-2.4 0Z" fill="rgb(227,73,2)" fill-opacity="0.3"></path>
<path d="M551.9 271l2.4 0l0 -2.2l-2.4 0Z" fill="rgb(227,73,2)" fill-opacity="0.3"></path>
<path d="M555.4 271l2.4 0l0 -1.9l-2.4 0Z" fill="rgb(227,73,2)" fill-opacity="0.3"></path>
<path d="M559 271l2.4 0l0 -1.9l-2.4 0Z" fill="rgb(227,73,2)" fill-opacity="0.3"></path>
<path d="M562.5 271l2.4 0l0 -1.9l-2.4 0Z" fill="rgb(227,73,2)" fill-opacity="0.3"></path>
<path d="M566 271l2.4 0l0 -1.9l-2.4 0Z" fill="rgb(227,73,2)" fill-opacity="0.3"></path>
<path d="M569.5 271l2.4 0l0 -1.9l-2.4 0Z" fill="rgb(227,73,2)" fill-opacity="0.3"></path>
<path d="M573 271l2.4 0l0 -1.6l-2.4 0Z" fill="rgb(227,73,2)" fill-opacity="0.3"></path>
<path d="M576.6 271l2.4 0l0 -1.6l-2.4 0Z" fill="rgb(227,73,2)" fill-opacity="0.3"></path>
<path d="M580.1 271l2.4 0l0 -1.6l-2.4 0Z" fill="rgb(227,73,2)" fill-opacity="0.3"></path>
<path d="M583.6 271l2.4 0l0 -1.4l-2.4 0Z" fill="rgb(227,73,2)" fill-opacity="0.3"></path>
<path d="M587.1 271l2.4 0l0 -1.4l-2.4 0Z" fill="rgb(227,73,2)" fill-opacity="0.3"></path>
<path d="M590.7 271l2.4 0l0 -1.4l-2.4 0Z" fill="rgb(227,73,2)" fill-opacity="0.3"></path>
<path d="M594.2 271l2.4 0l0 -1.4l-2.4 0Z" fill="rgb(227,73,2)" fill-opacity="0.3"></path>
<path d="M597.7 271l2.4 0l0 -1.4l-2.4 0Z" fill="rgb(227,73,2)" fill-opacity="0.3"></path>
<path d="M601.2 271l2.4 0l0 -1.1l-2.4 0Z" fill="rgb(227,73,2)" fill-opacity="0.3"></path>
<path d="M604.8 271l2.4 0l0 -1.1l-2.4 0Z" fill="rgb(227,73,2)" fill-opacity="0.3"></path>
<path d="M608.3 271l2.4 0l0 -0.8l-2.4 0Z" fill="rgb(227,73,2)" fill-opacity="0.3"></path>
<path d="M611.8 271l2.4 0l0 -0.8l-2.4 0Z" fill="rgb(227,73,2)" fill-opacity="0.3"></path>
<path d="M615.3 271l2.4 0l0 -0.5l-2.4 0Z" fill="rgb(227,73,2)" fill-opacity="0.3"></path>
<path d="M618.8 271l2.4 0l0 -0.5l-2.4 0Z" fill="rgb(227,73,2)" fill-opacity="0.3"></path>
<path d="M622.4 271l2.4 0l0 -0.5l-2.4 0Z" fill="rgb(227,73,2)" fill-opacity="0.3"></path>
<path d="M625.9 271l2.4 0l0 -0.3l-2.4 0Z" fill="rgb(227,73,2)" fill-opacity="0.3"></path>
<path d="M629.4 271l2.4 0l0 -0.3l-2.4 0Z" fill="rgb(227,73,2)" fill-opacity="0.3"></path>
<path d="M632.9 271l2.4 0l0 -0.3l-2.4 0Z" fill="rgb(227,73,2)" fill-opacity="0.3"></path>
<path d="M636.5 271l2.4 0l0 -0.3l-2.4 0Z" fill="rgb(227,73,2)" fill-opacity="0.3"></path>
<path d="M640 271l2.4 0l0 -0.3l-2.4 0Z" fill="rgb(227,73,2)" fill-opacity="0.3"></path>
<path d="M643.5 271l2.4 0l0 -0.3l-2.4 0Z" fill="rgb(227,73,2)" fill-opacity="0.3"></path>
<path d="M647 271l2.4 0l0 -0.3l-2.4 0Z" fill="rgb(227,73,2)" fill-opacity="0.3"></path>
<path d="M650.6 271l2.4 0l0 -0.3l-2.4 0Z" fill="rgb(227,73,2)" fill-opacity="0.3"></path>
<path d="M654.1 271l2.4 0l0 -0.3l-2.4 0Z" fill="rgb(227,73,2)" fill-opacity="0.3"></path>
<path d="M657.6 271l2.4 0l0 -0.3l-2.4 0Z" fill="rgb(227,73,2)" fill-opacity="0.3"></path>
<path d="M661.1 271l2.4 0l0 -0.3l-2.4 0Z" fill="rgb(227,73,2)" fill-opacity="0.3"></path>
<path d="M664.6 271l2.4 0l0 -0.3l-2.4 0Z" fill="rgb(227,73,2)" fill-opacity="0.3"></path>
<path d="M668.2 271l2.4 0l0 -0.3l-2.4 0Z" fill="rgb(227,73,2)" fill-opacity="0.3"></path>
<path d="M671.7 271l2.4 0l0 -0.3l-2.4 0Z" fill="rgb(227,73,2)" fill-opacity="0.3"></path>
<path d="M675.2 271l2.4 0l0 -0.3l-2.4 0Z" fill="rgb(227,73,2)" fill-opacity="0.3"></path>
<path d="M678.7 271l2.4 0l0 -0.3l-2.4 0Z" fill="rgb(227,73,2)" fill-opacity="0.3"></path>
<path d="M682.3 271l2.4 0l0 -0.3l-2.4 0Z" fill="rgb(227,73,2)" fill-opacity="0.3"></path>
<path d="M685.8 271l2.4 0l0 -0.3l-2.4 0Z" fill="rgb(227,73,2)" fill-opacity="0.3"></path>
<path d="M689.3 271l2.4 0l0 -0.3l-2.4 0Z" fill="rgb(227,73,2)" fill-opacity="0.3"></path>
<path d="M692.8 271l2.4 0l0 -0.3l-2.4 0Z" fill="rgb(227,73,2)" fill-opacity="0.3"></path>
<path d="M696.4 271l2.4 0l0 -0.3l-2.4 0Z" fill="rgb(227,73,2)" fill-opacity="0.3"></path>
<path d="M699.9 271l2.4 0l0 -0.3l-2.4 0Z" fill="rgb(227,73,2)" fill-opacity="0.3"></path>
<path d="M703.4 271l2.4 0l0 -0.3l-2.4 0Z" fill="rgb(227,73,2)" fill-opacity="0.3"></path>
<path d="M706.9 271l2.4 0l0 -0.3l-2.4 0Z" fill="rgb(227,73,2)" fill-opacity="0.3"></path>
<path d="M710.4 271l2.4 0l0 -0.3l-2.4 0Z" fill="rgb(227,73,2)" fill-opacity="0.3"></path>
<path d="M714 271l2.4 0l0 -0.3l-2.4 0Z" fill="rgb(227,73,2)" fill-opacity="0.3"></path>
<path d="M717.5 271l2.4 0l0 -0.3l-2.4 0Z" fill="rgb(227,73,2)" fill-opacity="0.3"></path>
<path d="M721 271l2.4 0l0 -0.3l-2.4 0Z" fill="rgb(227,73,2)" fill-opacity="0.3"></path>
<path d="M724.5 271l2.4 0l0 -0.3l-2.4 0Z" fill="rgb(227,73,2)" fill-opacity="0.3"></path>
<path d="M728.1 271l2.4 0l0 -0.3l-2.4 0Z" fill="rgb(227,73,2)" fill-opacity="0.3"></path>
<path d="M731.6 271l2.4 0l0 -0.3l-2.4 0Z" fill="rgb(227,73,2)" fill-opacity="0.3"></path>
<path d="M735.1 271l2.4 0l0 -0.3l-2.4 0Z" fill="rgb(227,73,2)" fill-opacity="0.3"></path>
<path d="M738.6 271l2.4 0l0 -0.3l-2.4 0Z" fill="rgb(227,73,2)" fill-opacity="0.3"></path>
<path d="M742.1 271l2.4 0l0 -0.3l-2.4 0Z" fill="rgb(227,73,2)" fill-opacity="0.3"></path>
<path d="M745.7 271l2.4 0l0 -0.3l-2.4 0Z" fill="rgb(227,73,2)" fill-opacity="0.3"></path>
<path d="M749.2 271l2.4 0l0 -0.3l-2.4 0Z" fill="rgb(227,73,2)" fill-opacity="0.3"></path>
<path d="M752.7 271l2.4 0l0 -0.3l-2.4 0Z" fill="rgb(227,73,2)" fill-opacity="0.3"></path>
<path d="M756.2 271l2.4 0l0 -0.3l-2.4 0Z" fill="rgb(227,73,2)" fill-opacity="0.3"></path>
<path d="M759.8 271l2.4 0l0 -0.3l-2.4 0Z" fill="rgb(227,73,2)" fill-opacity="0.3"></path>
<path d="M763.3 271l2.4 0l0 -0.3l-2.4 0Z" fill="rgb(227,73,2)" fill-opacity="0.3"></path>
<path d="M766.8 271l2.4 0l0 -0.3l-2.4 0Z" fill="rgb(227,73,2)" fill-opacity="0.3"></path>
<path d="M770.3 271l2.4 0l0 -0.3l-2.4 0Z" fill="rgb(227,73,2)" fill-opacity="0.3"></path>
<path d="M773.9 271l2.4 0l0 -0.3l-2.4 0Z" fill="rgb(227,73,2)" fill-opacity="0.3"></path>
<path d="M777.4 271l2.4 0l0 -0.3l-2.4 0Z" fill="rgb(227,73,2)" fill-opacity="0.3"></path>
<path d="M780.9 271l2.4 0l0 -0.3l-2.4 0Z" fill="rgb(227,73,2)" fill-opacity="0.3"></path>
<path d="M784.4 271l2.4 0l0 -0.3l-2.4 0Z" fill="rgb(227,73,2)" fill-opacity="0.3"></path>
<path d="M787.9 271l2.4 0l0 -0.3l-2.4 0Z" fill="rgb(227,73,2)" fill-opacity="0.3"></path>
<path d="M791.5 271l2.4 0l0 -0.3l-2.4 0Z" fill="rgb(227,73,2)" fill-opacity="0.3"></path>
<path d="M795 271l2.4 0l0 -0.3l-2.4 0Z" fill="rgb(227,73,2)" fill-opacity="0.3"></path>
<path d="M798.5 271l2.4 0l0 -0.3l-2.4 0Z" fill="rgb(227,73,2)" fill-opacity="0.3"></path>
<path d="M802 271l2.4 0l0 -0.3l-2.4 0Z" fill="rgb(227,73,2)" fill-opacity="0.3"></path>
<path d="M805.6 271l2.4 0l0 -0.3l-2.4 0Z" fill="rgb(227,73,2)" fill-opacity="0.3"></path>
<path d="M809.1 271l2.4 0l0 -0.3l-2.4 0Z" fill="rgb(227,73,2)" fill-opacity="0.3"></path>
<path d="M812.6 271l2.4 0l0 -0.3l-2.4 0Z" fill="rgb(227,73,2)" fill-opacity="0.3"></path>
<path d="M816.1 271l2.4 0l0 -0.3l-2.4 0Z" fill="rgb(227,73,2)" fill-opacity="0.3"></path>
<path d="M819.7 271l2.4 0l0 -0.3l-2.4 0Z" fill="rgb(227,73,2)" fill-opacity="0.3"></path>
<path d="M823.2 271l2.4 0l0 -0.3l-2.4 0Z" fill="rgb(227,73,2)" fill-opacity="0.3"></path>
<path d="M826.7 271l2.4 0l0 -0.3l-2.4 0Z" fill="rgb(227,73,2)" fill-opacity="0.3"></path>
<path d="M830.2 271l2.4 0l0 -0.3l-2.4 0Z" fill="rgb(227,73,2)" fill-opacity="0.3"></path>
<path d="M833.7 271l2.4 0l0 -0.3l-2.4 0Z" fill="rgb(227,73,2)" fill-opacity="0.3"></path>
<path d="M837.3 271l2.4 0l0 -0.3l-2.4 0Z" fill="rgb(227,73,2)" fill-opacity="0.3"></path>
<path d="M840.8 271l2.4 0l0 -0.3l-2.4 0Z" fill="rgb(227,73,2)" fill-opacity="0.3"></path>
<path d="M844.3 271l2.4 0l0 -0.3l-2.4 0Z" fill="rgb(227,73,2)" fill-opacity="0.3"></path>
<path d="M847.8 271l2.4 0l0 -0.3l-2.4 0Z" fill="rgb(227,73,2)" fill-opacity="0.3"></path>
<path d="M851.4 271l2.4 0l0 -0.3l-2.4 0Z" fill="rgb(227,73,2)" fill-opacity="0.3"></path>
<path d="M854.9 271l2.4 0l0 -0.3l-2.4 0Z" fill="rgb(227,73,2)" fill-opacity="0.3"></path>
<path d="M858.4 271l2.4 0l0 -0.3l-2.4 0Z" fill="rgb(227,73,2)" fill-opacity="0.3"></path>
<path d="M861.9 271l2.4 0l0 -0.3l-2.4 0Z" fill="rgb(227,73,2)" fill-opacity="0.3"></path>
<path d="M865.5 271l2.4 0l0 -0.3l-2.4 0Z" fill="rgb(227,73,2)" fill-opacity="0.3"></path>
<path d="M869 271l2.4 0l0 -0.3l-2.4 0Z" fill="rgb(227,73,2)" fill-opacity="0.3"></path>
<path d="M872.5 271l2.4 0l0 -0.3l-2.4 0Z" fill="rgb(227,73,2)" fill-opacity="0.3"></path>
<path d="M876 271l2.4 0l0 -0.3l-2.4 0Z" fill="rgb(227,73,2)" fill-opacity="0.3"></path>
<path d="M879.5 271l2.4 0l0 -0.3l-2.4 0Z" fill="rgb(227,73,2)" fill-opacity="0.3"></path>
<path d="M883.1 271l2.4 0l0 -0.3l-2.4 0Z" fill="rgb(227,73,2)" fill-opacity="0.3"></path>
<path d="M886.6 271l2.4 0l0 -0.3l-2.4 0Z" fill="rgb(227,73,2)" fill-opacity="0.3"></path>
<path d="M890.1 271l2.4 0l0 -0.3l-2.4 0Z" fill="rgb(227,73,2)" fill-opacity="0.3"></path>
<path d="M893.6 271l2.4 0l0 -0.3l-2.4 0Z" fill="rgb(227,73,2)" fill-opacity="0.3"></path>
<path d="M897.2 271l2.4 0l0 -0.3l-2.4 0Z" fill="rgb(227,73,2)" fill-opacity="0.3"></path>
<path d="M900.7 271l2.4 0l0 -0.3l-2.4 0Z" fill="rgb(227,73,2)" fill-opacity="0.3"></path>
<path d="M904.2 271l2.4 0l0 -0.3l-2.4 0Z" fill="rgb(227,73,2)" fill-opacity="0.3"></path>
<path d="M907.7 271l2.4 0l0 -0.3l-2.4 0Z" fill="rgb(227,73,2)" fill-opacity="0.3"></path>
<path d="M911.2 271l2.4 0l0 -0.3l-2.4 0Z" fill="rgb(227,73,2)" fill-opacity="0.3"></path>
<path d="M914.8 271l2.4 0l0 -0.3l-2.4 0Z" fill="rgb(227,73,2)" fill-opacity="0.3"></path>
<path d="M918.3 271l2.4 0l0 -0.3l-2.4 0Z" fill="rgb(227,73,2)" fill-opacity="0.3"></path>
<path d="M921.8 271l2.4 0l0 -0.3l-2.4 0Z" fill="rgb(227,73,2)" fill-opacity="0.3"></path>
<path d="M925.3 271l2.4 0l0 -0.3l-2.4 0Z" fill="rgb(227,73,2)" fill-opacity="0.3"></path>
<path d="M928.9 271l2.4 0l0 -0.3l-2.4 0Z" fill="rgb(227,73,2)" fill-opacity="0.3"></path>
<path d="M-5 -5l226.9 0l0 24l-226.9 0Z" transform="translate(391.54 5)" fill="rgb(0,0,0)" fill-opacity="0" stroke="#ccc" stroke-width="0"></path>
<path d="M3.5 0L21.5 0A3.5 3.5 0 0 1 25 3.5L25 10.5A3.5 3.5 0 0 1 21.5 14L3.5 14A3.5 3.5 0 0 1 0 10.5L0 3.5A3.5 3.5 0 0 1 3.5 0" transform="translate(391.54 5)" fill="rgb(227,73,2)" fill-opacity="0.3"></path>
<text dominant-baseline="central" text-anchor="start" style="font-size:12px;font-family:sans-serif;" xml:space="preserve" x="30" y="7" transform="translate(391.54 5)" fill="#333">Times completed</text>
<path d="M0 7L25 7" transform="translate(524.1 5)" fill="#000" stroke="#E34902" stroke-width="2" stroke-linecap="butt" stroke-miterlimit="10"></path>
<path d="M18.1 7A5.6 5.6 0 1 1 18.1 6.4A5.6 5.6 0 0 1 18.1 7" transform="translate(524.1 5)" fill="#fff" stroke="#E34902" stroke-width="2" stroke-linecap="butt" stroke-miterlimit="10"></path>
<text dominant-baseline="central" text-anchor="start" style="font-size:12px;font-family:sans-serif;" x="30" y="7" transform="translate(524.1 5)" fill="#333">Eddington</text>
<path d="M-0.54 -0.89A0.6 0.6 0 1 1 0.54 -0.89C0.39 -0.56 0 -0.42 0 0C0 -0.42 -0.39 -0.56 -0.54 -0.89Z" transform="matrix(25,0,0,25,327.6621,244.6295)" fill="rgb(227,73,2)" fill-opacity="0.8"></path>
<text dominant-baseline="central" text-anchor="middle" style="font-size:12px;font-family:sans-serif;" transform="translate(327.6621 218.4866)" fill="#eee" stroke="rgb(227,73,2)" stroke-width="2" paint-order="stroke" stroke-opacity="0.8" stroke-miterlimit="2">77</text>
<g clip-path="url(#zr0-c0)">
<path d="M59.9 270.7L63.4 270.5L67 270.2L70.5 269.9L74 269.6L77.5 269.4L81.1 269.1L84.6 268.8L88.1 268.6L91.6 268.3L95.2 268L98.7 267.8L102.2 267.5L105.7 267.2L109.2 266.9L112.8 266.7L116.3 266.4L119.8 266.1L123.3 265.9L126.9 265.6L130.4 265.3L133.9 265L137.4 264.8L140.9 264.5L144.5 264.2L148 264L151.5 263.7L155 263.4L158.6 263.2L162.1 262.9L165.6 262.6L169.1 262.3L172.7 262.1L176.2 261.8L179.7 261.5L183.2 261.3L186.7 261L190.3 260.7L193.8 260.5L197.3 260.2L200.8 259.9L204.4 259.6L207.9 259.4L211.4 259.1L214.9 258.8L218.5 258.6L222 258.3L225.5 258L229 257.7L232.5 257.5L236.1 257.2L239.6 256.9L243.1 256.7L246.6 256.4L250.2 256.1L253.7 255.9L257.2 255.6L260.7 255.3L264.2 255L267.8 254.8L271.3 254.5L274.8 254.2L278.3 254L281.9 253.7L285.4 253.4L288.9 253.1L292.4 252.9L296 252.6L299.5 252.3L303 252.1L306.5 251.8L310 251.5L313.6 251.3L317.1 251L320.6 250.7L324.1 250.4L327.7 250.2L331.2 249.9L334.7 249.6L338.2 249.4L341.8 249.1L345.3 248.8L348.8 248.5L352.3 248.3L355.8 248L359.4 247.7L362.9 247.5L366.4 247.2L369.9 246.9L373.5 246.7L377 246.4L380.5 246.1L384 245.8L387.6 245.6L391.1 245.3L394.6 245L398.1 244.8L401.6 244.5L405.2 244.2L408.7 243.9L412.2 243.7L415.7 243.4L419.3 243.1L422.8 242.9L426.3 242.6L429.8 242.3L433.3 242.1L436.9 241.8L440.4 241.5L443.9 241.2L447.4 241L451 240.7L454.5 240.4L458 240.2L461.5 239.9L465.1 239.6L468.6 239.4L472.1 239.1L475.6 238.8L479.1 238.5L482.7 238.3L486.2 238L489.7 237.7L493.2 237.5L496.8 237.2L500.3 236.9L503.8 236.6L507.3 236.4L510.9 236.1L514.4 235.8L517.9 235.6L521.4 235.3L524.9 235L528.5 234.8L532 234.5L535.5 234.2L539 233.9L542.6 233.7L546.1 233.4L549.6 233.1L553.1 232.9L556.7 232.6L560.2 232.3L563.7 232L567.2 231.8L570.7 231.5L574.3 231.2L577.8 231L581.3 230.7L584.8 230.4L588.4 230.2L591.9 229.9L595.4 229.6L598.9 229.3L602.4 229.1L606 228.8L609.5 228.5L613 228.3L616.5 228L620.1 227.7L623.6 227.4L627.1 227.2L630.6 226.9L634.2 226.6L637.7 226.4L641.2 226.1L644.7 225.8L648.2 225.6L651.8 225.3L655.3 225L658.8 224.7L662.3 224.5L665.9 224.2L669.4 223.9L672.9 223.7L676.4 223.4L680 223.1L683.5 222.8L687 222.6L690.5 222.3L694 222L697.6 221.8L701.1 221.5L704.6 221.2L708.1 221L711.7 220.7L715.2 220.4L718.7 220.1L722.2 219.9L725.8 219.6L729.3 219.3L732.8 219.1L736.3 218.8L739.8 218.5L743.4 218.3L746.9 218L750.4 217.7L753.9 217.4L757.5 217.2L761 216.9L764.5 216.6L768 216.4L771.5 216.1L775.1 215.8L778.6 215.5L782.1 215.3L785.6 215L789.2 214.7L792.7 214.5L796.2 214.2L799.7 213.9L803.3 213.7L806.8 213.4L810.3 213.1L813.8 212.8L817.3 212.6L820.9 212.3L824.4 212L827.9 211.8L831.4 211.5L835 211.2L838.5 210.9L842 210.7L845.5 210.4L849.1 210.1L852.6 209.9L856.1 209.6L859.6 209.3L863.1 209.1L866.7 208.8L870.2 208.5L873.7 208.2L877.2 208L880.8 207.7L884.3 207.4L887.8 207.2L891.3 206.9L894.8 206.6L898.4 206.3L901.9 206.1L905.4 205.8L908.9 205.5L912.5 205.3L916 205L919.5 204.7L923 204.5L926.6 204.2L930.1 203.9" fill="none" stroke="#E34902" stroke-width="2" stroke-linejoin="bevel"></path>
</g>
<defs >
<clipPath id="zr0-c0">
<path d="M57 59l876 0l0 213l-876 0Z" fill="#000"></path>
</clipPath>
</defs>
</svg>