<svg width="1000" height="300" xmlns="http://www.w3.org/2000/svg" xmlns:xlink="http://www.w3.org/1999/xlink" version="1.1" baseProfile="full" viewBox="0 0 1000 300">
<rect width="1000" height="300" x="0" y="0" id="0" fill="#ffffff"></rect>
<path d="M58.2 271.5L931.8 271.5" fill="none" stroke="#E0E6F1"></path>
<path d="M58.2 229.5L931.8 229.5" fill="none" stroke="#E0E6F1"></path>
<path d="M58.2 186.5L931.8 186.5" fill="none" stroke="#E0E6F1"></path>
<path d="M58.2 144.5L931.8 144.5" fill="none" stroke="#E0E6F1"></path>
<path d="M58.2 102.5L931.8 102.5" fill="none" stroke="#E0E6F1"></path>
<path d="M58.2 60.5L931.8 60.5" fill="none" stroke="#E0E6F1"></path>
<path d="M58.2 271.5L931.8 271.5" fill="none" stroke="#6E7079" stroke-linecap="round"></path>
<path d="M61.5 271L61.5 276" fill="none" stroke="#6E7079"></path>
<path d="M109.5 271L109.5 276" fill="none" stroke="#6E7079"></path>
<path d="M158.5 271L158.5 276" fill="none" stroke="#6E7079"></path>
<path d="M207.5 271L207.5 276" fill="none" stroke="#6E7079"></path>
<path d="M256.5 271L256.5 276" fill="none" stroke="#6E7079"></path>
<path d="M305.5 271L305.5 276" fill="none" stroke="#6E7079"></path>
<path d="M354.5 271L354.5 276" fill="none" stroke="#6E7079"></path>
<path d="M402.5 271L402.5 276" fill="none" stroke="#6E7079"></path>
<path d="M451.5 271L451.5 276" fill="none" stroke="#6E7079"></path>
<path d="M500.5 271L500.5 276" fill="none" stroke="#6E7079"></path>
<path d="M549.5 271L549.5 276" fill="none" stroke="#6E7079"></path>
<path d="M598.5 271L598.5 276" fill="none" stroke="#6E7079"></path>
<path d="M647.5 271L647.5 276" fill="none" stroke="#6E7079"></path>
<path d="M696.5 271L696.5 276" fill="none" stroke="#6E7079"></path>
<path d="M744.5 271L744.5 276" fill="none" stroke="#6E7079"></path>
<path d="M793.5 271L793.5 276" fill="none" stroke="#6E7079"></path>
<path d="M842.5 271L842.5 276" fill="none" stroke="#6E7079"></path>
<path d="M891.5 271L891.5 276" fill="none" stroke="#6E7079"></path>
<text dominant-baseline="central" text-anchor="end" style="font-size:12px;font-family:sans-serif;" transform="translate(50.16 271)" fill="#6E7079">0</text>
<text dominant-baseline="central" text-anchor="end" style="font-size:12px;font-family:sans-serif;" transform="translate(50.16 228.8)" fill="#6E7079">150</text>
<text dominant-baseline="central" text-anchor="end" style="font-size:12px;font-family:sans-serif;" transform="translate(50.16 186.6)" fill="#6E7079">300</text>
<text dominant-baseline="central" text-anchor="end" style="font-size:12px;font-family:sans-serif;" transform="translate(50.16 144.4)" fill="#6E7079">450</text>
<text dominant-baseline="central" text-anchor="end" style="font-size:12px;font-family:sans-serif;" transform="translate(50.16 102.2)" fill="#6E7079">600</text>
<text dominant-baseline="central" text-anchor="end" style="font-size:12px;font-family:sans-serif;" transform="translate(50.16 60)" fill="#6E7079">750</text>
<text dominant-baseline="central" text-anchor="start" style="font-size:12px;font-family:sans-serif;" transform="translate(939.84 271)" fill="#6E7079">0</text>
<text dominant-baseline="central" text-anchor="start" style="font-size:12px;font-family:sans-serif;" transform="translate(939.84 228.8)" fill="#6E7079">150</text>
<text dominant-baseline="central" text-anchor="start" style="font-size:12px;font-family:sans-serif;" transform="translate(939.84 186.6)" fill="#6E7079">300</text>
<text dominant-baseline="central" text-anchor="start" style="font-size:12px;font-family:sans-serif;" transform="translate(939.84 144.4)" fill="#6E7079">450</text>
<text dominant-baseline="central" text-anchor="start" style="font-size:12px;font-family:sans-serif;" transform="translate(939.84 102.2)" fill="#6E7079">600</text>
<text dominant-baseline="central" text-anchor="start" style="font-size:12px;font-family:sans-serif;" transform="translate(939.84 60)" fill="#6E7079">750</text>
<text dominant-baseline="central" text-anchor="middle" style="font-size:12px;font-family:sans-serif;" y="6" transform="translate(60.8733 279)" fill="#6E7079">1km</text>
<text dominant-baseline="central" text-anchor="middle" style="font-size:12px;font-family:sans-serif;" y="6" transform="translate(109.7125 279)" fill="#6E7079">10km</text>
<text dominant-baseline="central" text-anchor="middle" style="font-size:12px;font-family:sans-serif;" y="6" transform="translate(158.5518 279)" fill="#6E7079">19km</text>
<text dominant-baseline="central" text-anchor="middle" style="font-size:12px;font-family:sans-serif;" y="6" transform="translate(207.3911 279)" fill="#6E7079">28km</text>
<text dominant-baseline="central" text-anchor="middle" style="font-size:12px;font-family:sans-serif;" y="6" transform="translate(256.2303 279)" fill="#6E7079">37km</text>
<text dominant-baseline="central" text-anchor="middle" style="font-size:12px;font-family:sans-serif;" y="6" transform="translate(305.0696 279)" fill="#6E7079">46km</text>
<text dominant-baseline="central" text-anchor="middle" style="font-size:12px;font-family:sans-serif;" y="6" transform="translate(353.9088 279)" fill="#6E7079">55km</text>
<text dominant-baseline="central" text-anchor="middle" style="font-size:12px;font-family:sans-serif;" y="6" transform="translate(402.7481 279)" fill="#6E7079">64km</text>
<text dominant-baseline="central" text-anchor="middle" style="font-size:12px;font-family:sans-serif;" y="6" transform="translate(451.5873 279)" fill="#6E7079">73km</text>
<text dominant-baseline="central" text-anchor="middle" style="font-size:12px;font-family:sans-serif;" y="6" transform="translate(500.4266 279)" fill="#6E7079">82km</text>
<text dominant-baseline="central" text-anchor="middle" style="font-size:12px;font-family:sans-serif;" y="6" transform="translate(549.2658 279)" fill="#6E7079">91km</text>
<text dominant-baseline="central" text-anchor="middle" style="font-size:12px;font-family:sans-serif;" y="6" transform="translate(598.1051 279)" fill="#6E7079">100km</text>
<text dominant-baseline="central" text-anchor="middle" style="font-size:12px;font-family:sans-serif;" y="6" transform="translate(646.9443 279)" fill="#6E7079">109km</text>
<text dominant-baseline="central" text-anchor="middle" style="font-size:12px;font-family:sans-serif;" y="6" transform="translate(695.7836 279)" fill="#6E7079">118km</text>
<text dominant-baseline="central" text-anchor="middle" style="font-size:12px;font-family:sans-serif;" y="6" transform="translate(744.6229 279)" fill="#6E7079">127km</text>
<text dominant-baseline="central" text-anchor="middle" style="font-size:12px;font-family:sans-serif;" y="6" transform="translate(793.4621 279)" fill="#6E7079">136km</text>
<text dominant-baseline="central" text-anchor="middle" style="font-size:12px;font-family:sans-serif;" y="6" transform="translate(842.3014 279)" fill="#6E7079">145km</text>
<text dominant-baseline="central" text-anchor="middle" style="font-size:12px;font-family:sans-serif;" y="6" transform="translate(891.1406 279)" fill="#6E7079">154km</text>
<path d="M59 271l3.7 0l0 -203.4l-3.7 0Z" fill="rgb(227,73,2)" fill-opacity="0.3"></path>
<path d="M64.4 271l3.7 0l0 -203.4l-3.7 0Z" fill="rgb(227,73,2)" fill-opacity="0.3"></path>
<path d="M69.9 271l3.7 0l0 -203.4l-3.7 0Z" fill="rgb(227,73,2)" fill-opacity="0.3"></path>
<path d="M75.3 271l3.7 0l0 -202.8l-3.7 0Z" fill="rgb(227,73,2)" fill-opacity="0.3"></path>
<path d="M80.7 271l3.7 0l0 -202.6l-3.7 0Z" fill="rgb(227,73,2)" fill-opacity="0.3"></path>
<path d="M86.1 271l3.7 0l0 -201.7l-3.7 0Z" fill="rgb(227,73,2)" fill-opacity="0.3"></path>
<path d="M91.6 271l3.7 0l0 -201.4l-3.7 0Z" fill="rgb(227,73,2)" fill-opacity="0.3"></path>
<path d="M97 271l3.7 0l0 -200.3l-3.7 0Z" fill="rgb(227,73,2)" fill-opacity="0.3"></path>
<path d="M102.4 271l3.7 0l0 -198.6l-3.7 0Z" fill="rgb(227,73,2)" fill-opacity="0.3"></path>
<path d="M107.8 271l3.7 0l0 -196.1l-3.7 0Z" fill="rgb(227,73,2)" fill-opacity="0.3"></path>
<path d="M113.3 271l3.7 0l0 -181.2l-3.7 0Z" fill="rgb(227,73,2)" fill-opacity="0.3"></path>
<path d="M118.7 271l3.7 0l0 -174.4l-3.7 0Z" fill="rgb(227,73,2)" fill-opacity="0.3"></path>
<path d="M124.1 271l3.7 0l0 -168.2l-3.7 0Z" fill="rgb(227,73,2)" fill-opacity="0.3"></path>
<path d="M129.5 271l3.7 0l0 -162.3l-3.7 0Z" fill="rgb(227,73,2)" fill-opacity="0.3"></path>
<path d="M135 271l3.7 0l0 -159l-3.7 0Z" fill="rgb(227,73,2)" fill-opacity="0.3"></path>
<path d="M140.4 271l3.7 0l0 -152.8l-3.7 0Z" fill="rgb(227,73,2)" fill-opacity="0.3"></path>
<path d="M145.8 271l3.7 0l0 -148l-3.7 0Z" fill="rgb(227,73,2)" fill-opacity="0.3"></path>
<path d="M151.3 271l3.7 0l0 -144.3l-3.7 0Z" fill="rgb(227,73,2)" fill-opacity="0.3"></path>
<path d="M156.7 271l3.7 0l0 -140.9l-3.7 0Z" fill="rgb(227,73,2)" fill-opacity="0.3"></path>
<path d="M162.1 271l3.7 0l0 -138.4l-3.7 0Z" fill="rgb(227,73,2)" fill-opacity="0.3"></path>
<path d="M167.5 271l3.7 0l0 -130l-3.7 0Z" fill="rgb(227,73,2)" fill-opacity="0.3"></path>
<path d="M173 271l3.7 0l0 -122.9l-3.7 0Z" fill="rgb(227,73,2)" fill-opacity="0.3"></path>
<path d="M178.4 271l3.7 0l0 -118.2l-3.7 0Z" fill="rgb(227,73,2)" fill-opacity="0.3"></path>
<path d="M183.8 271l3.7 0l0 -112.8l-3.7 0Z" fill="rgb(227,73,2)" fill-opacity="0.3"></path>
<path d="M189.2 271l3.7 0l0 -108.3l-3.7 0Z" fill="rgb(227,73,2)" fill-opacity="0.3"></path>
<path d="M194.7 271l3.7 0l0 -98.5l-3.7 0Z" fill="rgb(227,73,2)" fill-opacity="0.3"></path>
<path d="M200.1 271l3.7 0l0 -94l-3.7 0Z" fill="rgb(227,73,2)" fill-opacity="0.3"></path>
<path d="M205.5 271l3.7 0l0 -90.3l-3.7 0Z" fill="rgb(227,73,2)" fill-opacity="0.3"></path>
<path d="M210.9 271l3.7 0l0 -86.9l-3.7 0Z" fill="rgb(227,73,2)" fill-opacity="0.3"></path>
<path d="M216.4 271l3.7 0l0 -83.8l-3.7 0Z" fill="rgb(227,73,2)" fill-opacity="0.3"></path>
<path d="M221.8 271l3.7 0l0 -78.2l-3.7 0Z" fill="rgb(227,73,2)" fill-opacity="0.3"></path>
<path d="M227.2 271l3.7 0l0 -75.4l-3.7 0Z" fill="rgb(227,73,2)" fill-opacity="0.3"></path>
<path d="M232.7 271l3.7 0l0 -72.6l-3.7 0Z" fill="rgb(227,73,2)" fill-opacity="0.3"></path>
<path d="M238.1 271l3.7 0l0 -71.2l-3.7 0Z" fill="rgb(227,73,2)" fill-opacity="0.3"></path>
<path d="M243.5 271l3.7 0l0 -70.1l-3.7 0Z" fill="rgb(227,73,2)" fill-opacity="0.3"></path>
<path d="M248.9 271l3.7 0l0 -67.8l-3.7 0Z" fill="rgb(227,73,2)" fill-opacity="0.3"></path>
<path d="M254.4 271l3.7 0l0 -65.8l-3.7 0Z" fill="rgb(227,73,2)" fill-opacity="0.3"></path>
<path d="M259.8 271l3.7 0l0 -64.1l-3.7 0Z" fill="rgb(227,73,2)" fill-opacity="0.3"></path>
<path d="M265.2 271l3.7 0l0 -63l-3.7 0Z" fill="rgb(227,73,2)" fill-opacity="0.3"></path>
<path d="M270.6 271l3.7 0l0 -62.5l-3.7 0Z" fill="rgb(227,73,2)" fill-opacity="0.3"></path>
<path d="M276.1 271l3.7 0l0 -57.4l-3.7 0Z" fill="rgb(227,73,2)" fill-opacity="0.3"></path>
<path d="M281.5 271l3.7 0l0 -56.3l-3.7 0Z" fill="rgb(227,73,2)" fill-opacity="0.3"></path>
<path d="M286.9 271l3.7 0l0 -54.3l-3.7 0Z" fill="rgb(227,73,2)" fill-opacity="0.3"></path>
<path d="M292.3 271l3.7 0l0 -52.6l-3.7 0Z" fill="rgb(227,73,2)" fill-opacity="0.3"></path>
<path d="M297.8 271l3.7 0l0 -50.4l-3.7 0Z" fill="rgb(227,73,2)" fill-opacity="0.3"></path>
<path d="M303.2 271l3.7 0l0 -49.2l-3.7 0Z" fill="rgb(227,73,2)" fill-opacity="0.3"></path>
<path d="M308.6 271l3.7 0l0 -48.7l-3.7 0Z" fill="rgb(227,73,2)" fill-opacity="0.3"></path>
<path d="M314.1 271l3.7 0l0 -47l-3.7 0Z" fill="rgb(227,73,2)" fill-opacity="0.3"></path>
<path d="M319.5 271l3.7 0l0 -46.7l-3.7 0Z" fill="rgb(227,73,2)" fill-opacity="0.3"></path>
<path d="M324.9 271l3.7 0l0 -46.4l-3.7 0Z" fill="rgb(227,73,2)" fill-opacity="0.3"></path>
<path d="M330.3 271l3.7 0l0 -43l-3.7 0Z" fill="rgb(227,73,2)" fill-opacity="0.3"></path>
<path d="M335.8 271l3.7 0l0 -42.2l-3.7 0Z" fill="rgb(227,73,2)" fill-opacity="0.3"></path>
<path d="M341.2 271l3.7 0l0 -39.4l-3.7 0Z" fill="rgb(227,73,2)" fill-opacity="0.3"></path>
<path d="M346.6 271l3.7 0l0 -37.4l-3.7 0Z" fill="rgb(227,73,2)" fill-opacity="0.3"></path>
<path d="M352 271l3.7 0l0 -37.1l-3.7 0Z" fill="rgb(227,73,2)" fill-opacity="0.3"></path>
<path d="M357.5 271l3.7 0l0 -34.3l-3.7 0Z" fill="rgb(227,73,2)" fill-opacity="0.3"></path>
<path d="M362.9 271l3.7 0l0 -33.8l-3.7 0Z" fill="rgb(227,73,2)" fill-opacity="0.3"></path>
<path d="M368.3 271l3.7 0l0 -33.2l-3.7 0Z" fill="rgb(227,73,2)" fill-opacity="0.3"></path>
<path d="M373.7 271l3.7 0l0 -32.4l-3.7 0Z" fill="rgb(227,73,2)" fill-opacity="0.3"></path>
<path d="M379.2 271l3.7 0l0 -32.1l-3.7 0Z" fill="rgb(227,73,2)" fill-opacity="0.3"></path>
<path d="M384.6 271l3.7 0l0 -30.7l-3.7 0Z" fill="rgb(227,73,2)" fill-opacity="0.3"></path>
<path d="M390 271l3.7 0l0 -29.8l-3.7 0Z" fill="rgb(227,73,2)" fill-opacity="0.3"></path>
<path d="M395.4 271l3.7 0l0 -29.5l-3.7 0Z" fill="rgb(227,73,2)" fill-opacity="0.3"></path>
<path d="M400.9 271l3.7 0l0 -29l-3.7 0Z" fill="rgb(227,73,2)" fill-opacity="0.3"></path>
<path d="M406.3 271l3.7 0l0 -27.9l-3.7 0Z" fill="rgb(227,73,2)" fill-opacity="0.3"></path>
<path d="M411.7 271l3.7 0l0 -27l-3.7 0Z" fill="rgb(227,73,2)" fill-opacity="0.3"></path>
<path d="M417.2 271l3.7 0l0 -27l-3.7 0Z" fill="rgb(227,73,2)" fill-opacity="0.3"></path>
<path d="M422.6 271l3.7 0l0 -26.2l-3.7 0Z" fill="rgb(227,73,2)" fill-opacity="0.3"></path>
<path d="M428 271l3.7 0l0 -25.3l-3.7 0Z" fill="rgb(227,73,2)" fill-opacity="0.3"></path>
<path d="M433.4 271l3.7 0l0 -24.5l-3.7 0Z" fill="rgb(227,73,2)" fill-opacity="0.3"></path>
<path d="M438.9 271l3.7 0l0 -23.9l-3.7 0Z" fill="rgb(227,73,2)" fill-opacity="0.3"></path>
<path d="M444.3 271l3.7 0l0 -23.6l-3.7 0Z" fill="rgb(227,73,2)" fill-opacity="0.3"></path>
<path d="M449.7 271l3.7 0l0 -23.1l-3.7 0Z" fill="rgb(227,73,2)" fill-opacity="0.3"></path>
<path d="M455.1 271l3.7 0l0 -22.5l-3.7 0Z" fill="rgb(227,73,2)" fill-opacity="0.3"></path>
<path d="M460.6 271l3.7 0l0 -22.2l-3.7 0Z" fill="rgb(227,73,2)" fill-opacity="0.3"></path>
<path d="M466 271l3.7 0l0 -21.4l-3.7 0Z" fill="rgb(227,73,2)" fill-opacity="0.8"></path>
<path d="M471.4 271l3.7 0l0 -20.8l-3.7 0Z" fill="rgb(227,73,2)" fill-opacity="0.3"></path>
<path d="M476.8 271l3.7 0l0 -20l-3.7 0Z" fill="rgb(227,73,2)" fill-opacity="0.3"></path>
<path d="M482.3 271l3.7 0l0 -19.4l-3.7 0Z" fill="rgb(227,73,2)" fill-opacity="0.3"></path>
<path d="M487.7 271l3.7 0l0 -19.1l-3.7 0Z" fill="rgb(227,73,2)" fill-opacity="0.3"></path>
<path d="M493.1 271l3.7 0l0 -17.7l-3.7 0Z" fill="rgb(227,73,2)" fill-opacity="0.3"></path>
<path d="M498.6 271l3.7 0l0 -16.6l-3.7 0Z" fill="rgb(227,73,2)" fill-opacity="0.3"></path>
<path d="M504 271l3.7 0l0 -15.8l-3.7 0Z" fill="rgb(227,73,2)" fill-opacity="0.3"></path>
<path d="M509.4 271l3.7 0l0 -14.6l-3.7 0Z" fill="rgb(227,73,2)" fill-opacity="0.3"></path>
<path d="M514.8 271l3.7 0l0 -14.6l-3.7 0Z" fill="rgb(227,73,2)" fill-opacity="0.3"></path>
<path d="M520.3 271l3.7 0l0 -13.8l-3.7 0Z" fill="rgb(227,73,2)" fill-opacity="0.3"></path>
<path d="M525.7 271l3.7 0l0 -13.5l-3.7 0Z" fill="rgb(227,73,2)" fill-opacity="0.3"></path>
<path d="M531.1 271l3.7 0l0 -13.5l-3.7 0Z" fill="rgb(227,73,2)" fill-opacity="0.3"></path>
<path d="M536.5 271l3.7 0l0 -13.5l-3.7 0Z" fill="rgb(227,73,2)" fill-opacity="0.3"></path>
<path d="M542 271l3.7 0l0 -13.2l-3.7 0Z" fill="rgb(227,73,2)" fill-opacity="0.3"></path>
<path d="M547.4 271l3.7 0l0 -12.9l-3.7 0Z" fill="rgb(227,73,2)" fill-opacity="0.3"></path>
<path d="M552.8 271l3.7 0l0 -12.9l-3.7 0Z" fill="rgb(227,73,2)" fill-opacity="0.3"></path>
<path d="M558.2 271l3.7 0l0 -12.7l-3.7 0Z" fill="rgb(227,73,2)" fill-opacity="0.3"></path>
<path d="M563.7 271l3.7 0l0 -12.7l-3.7 0Z" fill="rgb(227,73,2)" fill-opacity="0.3"></path>
<path d="M569.1 271l3.7 0l0 -12.7l-3.7 0Z" fill="rgb(227,73,2)" fill-opacity="0.3"></path>
<path d="M574.5 271l3.7 0l0 -12.7l-3.7 0Z" fill="rgb(227,73,2)" fill-opacity="0.3"></path>
<path d="M580 271l3.7 0l0 -12.7l-3.7 0Z" fill="rgb(227,73,2)" fill-opacity="0.3"></path>
<path d="M585.4 271l3.7 0l0 -12.4l-3.7 0Z" fill="rgb(227,73,2)" fill-opacity="0.3"></path>
<path d="M590.8 271l3.7 0l0 -12.4l-3.7 0Z" fill="rgb(227,73,2)" fill-opacity="0.3"></path>
<path d="M596.2 271l3.7 0l0 -12.4l-3.7 0Z" fill="rgb(227,73,2)" fill-opacity="0.3"></path>
<path d="M601.7 271l3.7 0l0 -10.4l-3.7 0Z" fill="rgb(227,73,2)" fill-opacity="0.3"></path>
<path d="M607.1 271l3.7 0l0 -9.8l-3.7 0Z" fill="rgb(227,73,2)" fill-opacity="0.3"></path>
<path d="M612.5 271l3.7 0l0 -9.3l-3.7 0Z" fill="rgb(227,73,2)" fill-opacity="0.3"></path>
<path d="M617.9 271l3.7 0l0 -9l-3.7 0Z" fill="rgb(227,73,2)" fill-opacity="0.3"></path>
<path d="M623.4 271l3.7 0l0 -9l-3.7 0Z" fill="rgb(227,73,2)" fill-opacity="0.3"></path>
<path d="M628.8 271l3.7 0l0 -9l-3.7 0Z" fill="rgb(227,73,2)" fill-opacity="0.3"></path>
<path d="M634.2 271l3.7 0l0 -8.2l-3.7 0Z" fill="rgb(227,73,2)" fill-opacity="0.3"></path>
<path d="M639.6 271l3.7 0l0 -7.9l-3.7 0Z" fill="rgb(227,73,2)" fill-opacity="0.3"></path>
<path d="M645.1 271l3.7 0l0 -7.6l-3.7 0Z" fill="rgb(227,73,2)" fill-opacity="0.3"></path>
<path d="M650.5 271l3.7 0l0 -7.3l-3.7 0Z" fill="rgb(227,73,2)" fill-opacity="0.3"></path>
<path d="M655.9 271l3.7 0l0 -6.8l-3.7 0Z" fill="rgb(227,73,2)" fill-opacity="0.3"></path>
<path d="M661.4 271l3.7 0l0 -5.9l-3.7 0Z" fill="rgb(227,73,2)" fill-opacity="0.3"></path>
<path d="M666.8 271l3.7 0l0 -5.3l-3.7 0Z" fill="rgb(227,73,2)" fill-opacity="0.3"></path>
<path d="M672.2 271l3.7 0l0 -5.3l-3.7 0Z" fill="rgb(227,73,2)" fill-opacity="0.3"></path>
<path d="M677.6 271l3.7 0l0 -5.1l-3.7 0Z" fill="rgb(227,73,2)" fill-opacity="0.3"></path>
<path d="M683.1 271l3.7 0l0 -5.1l-3.7 0Z" fill="rgb(227,73,2)" fill-opacity="0.3"></path>
<path d="M688.5 271l3.7 0l0 -5.1l-3.7 0Z" fill="rgb(227,73,2)" fill-opacity="0.3"></path>
<path d="M693.9 271l3.7 0l0 -4.2l-3.7 0Z" fill="rgb(227,73,2)" fill-opacity="0.3"></path>
<path d="M699.3 271l3.7 0l0 -3.9l-3.7 0Z" fill="rgb(227,73,2)" fill-opacity="0.3"></path>
<path d="M704.8 271l3.7 0l0 -3.7l-3.7 0Z" fill="rgb(227,73,2)" fill-opacity="0.3"></path>
<path d="M710.2 271l3.7 0l0 -3.1l-3.7 0Z" fill="rgb(227,73,2)" fill-opacity="0.3"></path>
<path d="M715.6 271l3.7 0l0 -2.8l-3.7 0Z" fill="rgb(227,73,2)" fill-opacity="0.3"></path>
<path d="M721 271l3.7 0l0 -2.5l-3.7 0Z" fill="rgb(227,73,2)" fill-opacity="0.3"></path>
<path d="M726.5 271l3.7 0l0 -2.5l-3.7 0Z" fill="rgb(227,73,2)" fill-opacity="0.3"></path>
<path d="M731.9 271l3.7 0l0 -2.3l-3.7 0Z" fill="rgb(227,73,2)" fill-opacity="0.3"></path>
<path d="M737.3 271l3.7 0l0 -2.3l-3.7 0Z" fill="rgb(227,73,2)" fill-opacity="0.3"></path>
<path d="M742.8 271l3.7 0l0 -2.3l-3.7 0Z" fill="rgb(227,73,2)" fill-opacity="0.3"></path>
<path d="M748.2 271l3.7 0l0 -2.3l-3.7 0Z" fill="rgb(227,73,2)" fill-opacity="0.3"></path>
<path d="M753.6 271l3.7 0l0 -2.3l-3.7 0Z" fill="rgb(227,73,2)" fill-opacity="0.3"></path>
<path d="M759 271l3.7 0l0 -2.3l-3.7 0Z" fill="rgb(227,73,2)" fill-opacity="0.3"></path>
<path d="M764.5 271l3.7 0l0 -2l-3.7 0Z" fill="rgb(227,73,2)" fill-opacity="0.3"></path>
<path d="M769.9 271l3.7 0l0 -2l-3.7 0Z" fill="rgb(227,73,2)" fill-opacity="0.3"></path>
<path d="M775.3 271l3.7 0l0 -2l-3.7 0Z" fill="rgb(227,73,2)" fill-opacity="0.3"></path>
<path d="M780.7 271l3.7 0l0 -2l-3.7 0Z" fill="rgb(227,73,2)" fill-opacity="0.3"></path>
<path d="M786.2 271l3.7 0l0 -2l-3.7 0Z" fill="rgb(227,73,2)" fill-opacity="0.3"></path>
<path d="M791.6 271l3.7 0l0 -2l-3.7 0Z" fill="rgb(227,73,2)" fill-opacity="0.3"></path>
<path d="M797 271l3.7 0l0 -2l-3.7 0Z" fill="rgb(227,73,2)" fill-opacity="0.3"></path>
<path d="M802.4 271l3.7 0l0 -2l-3.7 0Z" fill="rgb(227,73,2)" fill-opacity="0.3"></path>
<path d="M807.9 271l3.7 0l0 -2l-3.7 0Z" fill="rgb(227,73,2)" fill-opacity="0.3"></path>
<path d="M813.3 271l3.7 0l0 -2l-3.7 0Z" fill="rgb(227,73,2)" fill-opacity="0.3"></path>
<path d="M818.7 271l3.7 0l0 -2l-3.7 0Z" fill="rgb(227,73,2)" fill-opacity="0.3"></path>
<path d="M824.1 271l3.7 0l0 -1.7l-3.7 0Z" fill="rgb(227,73,2)" fill-opacity="0.3"></path>
<path d="M829.6 271l3.7 0l0 -1.7l-3.7 0Z" fill="rgb(227,73,2)" fill-opacity="0.3"></path>
<path d="M835 271l3.7 0l0 -1.7l-3.7 0Z" fill="rgb(227,73,2)" fill-opacity="0.3"></path>
<path d="M840.4 271l3.7 0l0 -1.7l-3.7 0Z" fill="rgb(227,73,2)" fill-opacity="0.3"></path>
<path d="M845.9 271l3.7 0l0 -1.7l-3.7 0Z" fill="rgb(227,73,2)" fill-opacity="0.3"></path>
<path d="M851.3 271l3.7 0l0 -1.4l-3.7 0Z" fill="rgb(227,73,2)" fill-opacity="0.3"></path>
<path d="M856.7 271l3.7 0l0 -1.4l-3.7 0Z" fill="rgb(227,73,2)" fill-opacity="0.3"></path>
<path d="M862.1 271l3.7 0l0 -1.4l-3.7 0Z" fill="rgb(227,73,2)" fill-opacity="0.3"></path>
<path d="M867.6 271l3.7 0l0 -1.1l-3.7 0Z" fill="rgb(227,73,2)" fill-opacity="0.3"></path>
<path d="M873 271l3.7 0l0 -1.1l-3.7 0Z" fill="rgb(227,73,2)" fill-opacity="0.3"></path>
<path d="M878.4 271l3.7 0l0 -1.1l-3.7 0Z" fill="rgb(227,73,2)" fill-opacity="0.3"></path>
<path d="M883.8 271l3.7 0l0 -1.1l-3.7 0Z" fill="rgb(227,73,2)" fill-opacity="0.3"></path>
<path d="M889.3 271l3.7 0l0 -1.1l-3.7 0Z" fill="rgb(227,73,2)" fill-opacity="0.3"></path>
<path d="M894.7 271l3.7 0l0 -0.8l-3.7 0Z" fill="rgb(227,73,2)" fill-opacity="0.3"></path>
<path d="M900.1 271l3.7 0l0 -0.8l-3.7 0Z" fill="rgb(227,73,2)" fill-opacity="0.3"></path>
<path d="M905.5 271l3.7 0l0 -0.6l-3.7 0Z" fill="rgb(227,73,2)" fill-opacity="0.3"></path>
<path d="M911 271l3.7 0l0 -0.6l-3.7 0Z" fill="rgb(227,73,2)" fill-opacity="0.3"></path>
<path d="M916.4 271l3.7 0l0 -0.3l-3.7 0Z" fill="rgb(227,73,2)" fill-opacity="0.3"></path>
<path d="M921.8 271l3.7 0l0 -0.3l-3.7 0Z" fill="rgb(227,73,2)" fill-opacity="0.3"></path>
<path d="M927.3 271l3.7 0l0 -0.3l-3.7 0Z" fill="rgb(227,73,2)" fill-opacity="0.3"></path>
<path d="M-5 -5l226.9 0l0 24l-226.9 0Z" transform="translate(391.54 5)" fill="rgb(0,0,0)" fill-opacity="0" stroke="#ccc" stroke-width="0"></path>
<path d="M3.5 0L21.5 0A3.5 3.5 0 0 1 25 3.5L25 10.5A3.5 3.5 0 0 1 21.5 14L3.5 14A3.5 3.5 0 0 1 0 10.5L0 3.5A3.5 3.5 0 0 1 3.5 0" transform="translate(391.54 5)" fill="rgb(227,73,2)" fill-opacity="0.3"></path>
<text dominant-baseline="central" text-anchor="start" style="font-size:12px;font-family:sans-serif;" xml:space="preserve" x="30" y="7" transform="translate(391.54 5)" fill="#333">Times completed</text>
<path d="M0 7L25 7" transform="translate(524.1 5)" fill="#000" stroke="#E34902" stroke-width="2" stroke-linecap="butt" stroke-miterlimit="10"></path>
<path d="M18.1 7A5.6 5.6 0 1 1 18.1 6.4A5.6 5.6 0 0 1 18.1 7" transform="translate(524.1 5)" fill="#fff" stroke="#E34902" stroke-width="2" stroke-linecap="butt" stroke-miterlimit="10"></path>
<text dominant-baseline="central" text-anchor="start" style="font-size:12px;font-family:sans-serif;" x="30" y="7" transform="translate(524.1 5)" fill="#333">Eddington</text>
<path d="M-0.54 -0.89A0.6 0.6 0 1 1 0.54 -0.89C0.39 -0.56 0 -0.42 0 0C0 -0.42 -0.39 -0.56 -0.54 -0.89Z" transform="matrix(25,0,0,25,467.8671,244.9)" fill="rgb(227,73,2)" fill-opacity="0.8"></path>
<text dominant-baseline="central" text-anchor="middle" style="font-size:12px;font-family:sans-serif;" transform="translate(467.8671 218.7571)" fill="#eee" stroke="rgb(227,73,2)" stroke-width="2" paint-order="stroke" stroke-opacity="0.8" stroke-miterlimit="2">76</text>
<g clip-path="url(#zr0-c0)">
<path d="M60.9 270.7L66.3 270.4L71.7 270.2L77.2 269.9L82.6 269.6L88 269.3L93.4 269L98.9 268.7L104.3 268.5L109.7 268.2L115.1 267.9L120.6 267.6L126 267.3L131.4 267.1L136.8 266.8L142.3 266.5L147.7 266.2L153.1 265.9L158.6 265.7L164 265.4L169.4 265.1L174.8 264.8L180.3 264.5L185.7 264.2L191.1 264L196.5 263.7L202 263.4L207.4 263.1L212.8 262.8L218.2 262.6L223.7 262.3L229.1 262L234.5 261.7L240 261.4L245.4 261.2L250.8 260.9L256.2 260.6L261.7 260.3L267.1 260L272.5 259.7L277.9 259.5L283.4 259.2L288.8 258.9L294.2 258.6L299.6 258.3L305.1 258.1L310.5 257.8L315.9 257.5L321.3 257.2L326.8 256.9L332.2 256.7L337.6 256.4L343.1 256.1L348.5 255.8L353.9 255.5L359.3 255.2L364.8 255L370.2 254.7L375.6 254.4L381 254.1L386.5 253.8L391.9 253.6L397.3 253.3L402.7 253L408.2 252.7L413.6 252.4L419 252.2L424.5 251.9L429.9 251.6L435.3 251.3L440.7 251L446.2 250.7L451.6 250.5L457 250.2L462.4 249.9L467.9 249.6L473.3 249.3L478.7 249.1L484.1 248.8L489.6 248.5L495 248.2L500.4 247.9L505.9 247.6L511.3 247.4L516.7 247.1L522.1 246.8L527.6 246.5L533 246.2L538.4 246L543.8 245.7L549.3 245.4L554.7 245.1L560.1 244.8L565.5 244.6L571 244.3L576.4 244L581.8 243.7L587.3 243.4L592.7 243.1L598.1 242.9L603.5 242.6L609 242.3L614.4 242L619.8 241.7L625.2 241.5L630.7 241.2L636.1 240.9L641.5 240.6L646.9 240.3L652.4 240.1L657.8 239.8L663.2 239.5L668.7 239.2L674.1 238.9L679.5 238.6L684.9 238.4L690.4 238.1L695.8 237.8L701.2 237.5L706.6 237.2L712.1 237L717.5 236.7L722.9 236.4L728.3 236.1L733.8 235.8L739.2 235.6L744.6 235.3L750 235L755.5 234.7L760.9 234.4L766.3 234.1L771.8 233.9L777.2 233.6L782.6 233.3L788 233L793.5 232.7L798.9 232.5L804.3 232.2L809.7 231.9L815.2 231.6L820.6 231.3L826 231.1L831.4 230.8L836.9 230.5L842.3 230.2L847.7 229.9L853.2 229.6L858.6 229.4L864 229.1L869.4 228.8L874.9 228.5L880.3 228.2L885.7 228L891.1 227.7L896.6 227.4L902 227.1L907.4 226.8L912.8 226.5L918.3 226.3L923.7 226L929.1 225.7" fill="none" stroke="#E34902" stroke-width="2" stroke-linejoin="bevel"></path>
</g>
<defs >
<clipPath id="zr0-c0">
<path d="M57 59l876 0l0 213l-876 0Z" fill="#000"></path>
</clipPath>
</defs>
</svg>