<svg width="1000" height="300" xmlns="http://www.w3.org/2000/svg" xmlns:xlink="http://www.w3.org/1999/xlink" version="1.1" baseProfile="full" viewBox="0 0 1000 300">
<rect width="1000" height="300" x="0" y="0" id="0" fill="#ffffff"></rect>
<path d="M58.2 271.5L931.8 271.5" fill="none" stroke="#E0E6F1"></path>
<path d="M58.2 227.5L931.8 227.5" fill="none" stroke="#E0E6F1"></path>
<path d="M58.2 183.5L931.8 183.5" fill="none" stroke="#E0E6F1"></path>
<path d="M58.2 139.5L931.8 139.5" fill="none" stroke="#E0E6F1"></path>
<path d="M58.2 95.5L931.8 95.5" fill="none" stroke="#E0E6F1"></path>
<path d="M58.2 60.5L931.8 60.5" fill="none" stroke="#E0E6F1"></path>
<path d="M58.2 271.5L931.8 271.5" fill="none" stroke="#6E7079" stroke-linecap="round"></path>
<path d="M61.5 271L61.5 276" fill="none" stroke="#6E7079"></path>
<path d="M109.5 271L109.5 276" fill="none" stroke="#6E7079"></path>
<path d="M158.5 271L158.5 276" fill="none" stroke="#6E7079"></path>
<path d="M207.5 271L207.5 276" fill="none" stroke="#6E7079"></path>
<path d="M256.5 271L256.5 276" fill="none" stroke="#6E7079"></path>
<path d="M305.5 271L305.5 276" fill="none" stroke="#6E7079"></path>
<path d="M354.5 271L354.5 276" fill="none" stroke="#6E7079"></path>
<path d="M402.5 271L402.5 276" fill="none" stroke="#6E7079"></path>
<path d="M451.5 271L451.5 276" fill="none" stroke="#6E7079"></path>
<path d="M500.5 271L500.5 276" fill="none" stroke="#6E7079"></path>
<path d="M549.5 271L549.5 276" fill="none" stroke="#6E7079"></path>
<path d="M598.5 271L598.5 276" fill="none" stroke="#6E7079"></path>
<path d="M647.5 271L647.5 276" fill="none" stroke="#6E7079"></path>
<path d="M696.5 271L696.5 276" fill="none" stroke="#6E7079"></path>
<path d="M744.5 271L744.5 276" fill="none" stroke="#6E7079"></path>
<path d="M793.5 271L793.5 276" fill="none" stroke="#6E7079"></path>
<path d="M842.5 271L842.5 276" fill="none" stroke="#6E7079"></path>
<path d="M891.5 271L891.5 276" fill="none" stroke="#6E7079"></path>
<text dominant-baseline="central" text-anchor="end" style="font-size:12px;font-family:sans-serif;" transform="translate(50.16 271)" fill="#6E7079">0</text>
<text dominant-baseline="central" text-anchor="end" style="font-size:12px;font-family:sans-serif;" transform="translate(50.16 227.0417)" fill="#6E7079">150</text>
<text dominant-baseline="central" text-anchor="end" style="font-size:12px;font-family:sans-serif;" transform="translate(50.16 183.0833)" fill="#6E7079">300</text>
<text dominant-baseline="central" text-anchor="end" style="font-size:12px;font-family:sans-serif;" transform="translate(50.16 139.125)" fill="#6E7079">450</text>
<text dominant-baseline="central" text-anchor="end" style="font-size:12px;font-family:sans-serif;" transform="translate(50.16 95.1667)" fill="#6E7079">600</text>
<text dominant-baseline="central" text-anchor="end" style="font-size:12px;font-family:sans-serif;" transform="translate(50.16 60)" fill="#6E7079">720</text>
<text dominant-baseline="central" text-anchor="start" style="font-size:12px;font-family:sans-serif;" transform="translate(939.84 271)" fill="#6E7079">0</text>
<text dominant-baseline="central" text-anchor="start" style="font-size:12px;font-family:sans-serif;" transform="translate(939.84 227.0417)" fill="#6E7079">150</text>
<text dominant-baseline="central" text-anchor="start" style="font-size:12px;font-family:sans-serif;" transform="translate(939.84 183.0833)" fill="#6E7079">300</text>
<text dominant-baseline="central" text-anchor="start" style="font-size:12px;font-family:sans-serif;" transform="translate(939.84 139.125)" fill="#6E7079">450</text>
<text dominant-baseline="central" text-anchor="start" style="font-size:12px;font-family:sans-serif;" transform="translate(939.84 95.1667)" fill="#6E7079">600</text>
<text dominant-baseline="central" text-anchor="start" style="font-size:12px;font-family:sans-serif;" transform="translate(939.84 60)" fill="#6E7079">720</text>
<text dominant-baseline="central" text-anchor="middle" style="font-size:12px;font-family:sans-serif;" y="6" transform="translate(60.8733 279)" fill="#6E7079">1km</text>
<text dominant-baseline="central" text-anchor="middle" style="font-size:12px;font-family:sans-serif;" y="6" transform="translate(109.7125 279)" fill="#6E7079">10km</text>
<text dominant-baseline="central" text-anchor="middle" style="font-size:12px;font-family:sans-serif;" y="6" transform="translate(158.5518 279)" fill="#6E7079">19km</text>
<text dominant-baseline="central" text-anchor="middle" style="font-size:12px;font-family:sans-serif;" y="6" transform="translate(207.3911 279)" fill="#6E7079">28km</text>
<text dominant-baseline="central" text-anchor="middle" style="font-size:12px;font-family:sans-serif;" y="6" transform="translate(256.2303 279)" fill="#6E7079">37km</text>
<text dominant-baseline="central" text-anchor="middle" style="font-size:12px;font-family:sans-serif;" y="6" transform="translate(305.0696 279)" fill="#6E7079">46km</text>
<text dominant-baseline="central" text-anchor="middle" style="font-size:12px;font-family:sans-serif;" y="6" transform="translate(353.9088 279)" fill="#6E7079">55km</text>
<text dominant-baseline="central" text-anchor="middle" style="font-size:12px;font-family:sans-serif;" y="6" transform="translate(402.7481 279)" fill="#6E7079">64km</text>
<text dominant-baseline="central" text-anchor="middle" style="font-size:12px;font-family:sans-serif;" y="6" transform="translate(451.5873 279)" fill="#6E7079">73km</text>
<text dominant-baseline="central" text-anchor="middle" style="font-size:12px;font-family:sans-serif;" y="6" transform="translate(500.4266 279)" fill="#6E7079">82km</text>
<text dominant-baseline="central" text-anchor="middle" style="font-size:12px;font-family:sans-serif;" y="6" transform="translate(549.2658 279)" fill="#6E7079">91km</text>
<text dominant-baseline="central" text-anchor="middle" style="font-size:12px;font-family:sans-serif;" y="6" transform="translate(598.1051 279)" fill="#6E7079">100km</text>
<text dominant-baseline="central" text-anchor="middle" style="font-size:12px;font-family:sans-serif;" y="6" transform="translate(646.9443 279)" fill="#6E7079">109km</text>
<text dominant-baseline="central" text-anchor="middle" style="font-size:12px;font-family:sans-serif;" y="6" transform="translate(695.7836 279)" fill="#6E7079">118km</text>
<text dominant-baseline="central" text-anchor="middle" style="font-size:12px;font-family:sans-serif;" y="6" transform="translate(744.6229 279)" fill="#6E7079">127km</text>
<text dominant-baseline="central" text-anchor="middle" style="font-size:12px;font-family:sans-serif;" y="6" transform="translate(793.4621 279)" fill="#6E7079">136km</text>
<text dominant-baseline="central" text-anchor="middle" style="font-size:12px;font-family:sans-serif;" y="6" transform="translate(842.3014 279)" fill="#6E7079">145km</text>
<text dominant-baseline="central" text-anchor="middle" style="font-size:12px;font-family:sans-serif;" y="6" transform="translate(891.1406 279)" fill="#6E7079">154km</text>
<path d="M59 271l3.7 0l0 -202.5l-3.7 0Z" fill="rgb(227,73,2)" fill-opacity="0.3"></path>
<path d="M64.4 271l3.7 0l0 -202.5l-3.7 0Z" fill="rgb(227,73,2)" fill-opacity="0.3"></path>
<path d="M69.9 271l3.7 0l0 -202.5l-3.7 0Z" fill="rgb(227,73,2)" fill-opacity="0.3"></path>
<path d="M75.3 271l3.7 0l0 -201.9l-3.7 0Z" fill="rgb(227,73,2)" fill-opacity="0.3"></path>
<path d="M80.7 271l3.7 0l0 -201.9l-3.7 0Z" fill="rgb(227,73,2)" fill-opacity="0.3"></path>
<path d="M86.1 271l3.7 0l0 -201l-3.7 0Z" fill="rgb(227,73,2)" fill-opacity="0.3"></path>
<path d="M91.6 271l3.7 0l0 -200.7l-3.7 0Z" fill="rgb(227,73,2)" fill-opacity="0.3"></path>
<path d="M97 271l3.7 0l0 -199.6l-3.7 0Z" fill="rgb(227,73,2)" fill-opacity="0.3"></path>
<path d="M102.4 271l3.7 0l0 -198.4l-3.7 0Z" fill="rgb(227,73,2)" fill-opacity="0.3"></path>
<path d="M107.8 271l3.7 0l0 -195.8l-3.7 0Z" fill="rgb(227,73,2)" fill-opacity="0.3"></path>
<path d="M113.3 271l3.7 0l0 -180.5l-3.7 0Z" fill="rgb(227,73,2)" fill-opacity="0.3"></path>
<path d="M118.7 271l3.7 0l0 -173.5l-3.7 0Z" fill="rgb(227,73,2)" fill-opacity="0.3"></path>
<path d="M124.1 271l3.7 0l0 -167.3l-3.7 0Z" fill="rgb(227,73,2)" fill-opacity="0.3"></path>
<path d="M129.5 271l3.7 0l0 -161.2l-3.7 0Z" fill="rgb(227,73,2)" fill-opacity="0.3"></path>
<path d="M135 271l3.7 0l0 -157.7l-3.7 0Z" fill="rgb(227,73,2)" fill-opacity="0.3"></path>
<path d="M140.4 271l3.7 0l0 -151.5l-3.7 0Z" fill="rgb(227,73,2)" fill-opacity="0.3"></path>
<path d="M145.8 271l3.7 0l0 -146.5l-3.7 0Z" fill="rgb(227,73,2)" fill-opacity="0.3"></path>
<path d="M151.3 271l3.7 0l0 -142.7l-3.7 0Z" fill="rgb(227,73,2)" fill-opacity="0.3"></path>
<path d="M156.7 271l3.7 0l0 -139.2l-3.7 0Z" fill="rgb(227,73,2)" fill-opacity="0.3"></path>
<path d="M162.1 271l3.7 0l0 -136.9l-3.7 0Z" fill="rgb(227,73,2)" fill-opacity="0.3"></path>
<path d="M167.5 271l3.7 0l0 -128.7l-3.7 0Z" fill="rgb(227,73,2)" fill-opacity="0.3"></path>
<path d="M173 271l3.7 0l0 -121.6l-3.7 0Z" fill="rgb(227,73,2)" fill-opacity="0.3"></path>
<path d="M178.4 271l3.7 0l0 -116.6l-3.7 0Z" fill="rgb(227,73,2)" fill-opacity="0.3"></path>
<path d="M183.8 271l3.7 0l0 -111.1l-3.7 0Z" fill="rgb(227,73,2)" fill-opacity="0.3"></path>
<path d="M189.2 271l3.7 0l0 -106.4l-3.7 0Z" fill="rgb(227,73,2)" fill-opacity="0.3"></path>
<path d="M194.7 271l3.7 0l0 -97l-3.7 0Z" fill="rgb(227,73,2)" fill-opacity="0.3"></path>
<path d="M200.1 271l3.7 0l0 -92.3l-3.7 0Z" fill="rgb(227,73,2)" fill-opacity="0.3"></path>
<path d="M205.5 271l3.7 0l0 -88.5l-3.7 0Z" fill="rgb(227,73,2)" fill-opacity="0.3"></path>
<path d="M210.9 271l3.7 0l0 -85l-3.7 0Z" fill="rgb(227,73,2)" fill-opacity="0.3"></path>
<path d="M216.4 271l3.7 0l0 -81.8l-3.7 0Z" fill="rgb(227,73,2)" fill-opacity="0.3"></path>
<path d="M221.8 271l3.7 0l0 -76.8l-3.7 0Z" fill="rgb(227,73,2)" fill-opacity="0.3"></path>
<path d="M227.2 271l3.7 0l0 -73.8l-3.7 0Z" fill="rgb(227,73,2)" fill-opacity="0.3"></path>
<path d="M232.7 271l3.7 0l0 -70.9l-3.7 0Z" fill="rgb(227,73,2)" fill-opacity="0.3"></path>
<path d="M238.1 271l3.7 0l0 -69.5l-3.7 0Z" fill="rgb(227,73,2)" fill-opacity="0.3"></path>
<path d="M243.5 271l3.7 0l0 -68.3l-3.7 0Z" fill="rgb(227,73,2)" fill-opacity="0.3"></path>
<path d="M248.9 271l3.7 0l0 -66.2l-3.7 0Z" fill="rgb(227,73,2)" fill-opacity="0.3"></path>
<path d="M254.4 271l3.7 0l0 -64.2l-3.7 0Z" fill="rgb(227,73,2)" fill-opacity="0.3"></path>
<path d="M259.8 271l3.7 0l0 -62.4l-3.7 0Z" fill="rgb(227,73,2)" fill-opacity="0.3"></path>
<path d="M265.2 271l3.7 0l0 -61.2l-3.7 0Z" fill="rgb(227,73,2)" fill-opacity="0.3"></path>
<path d="M270.6 271l3.7 0l0 -60.7l-3.7 0Z" fill="rgb(227,73,2)" fill-opacity="0.3"></path>
<path d="M276.1 271l3.7 0l0 -55.7l-3.7 0Z" fill="rgb(227,73,2)" fill-opacity="0.3"></path>
<path d="M281.5 271l3.7 0l0 -54.5l-3.7 0Z" fill="rgb(227,73,2)" fill-opacity="0.3"></path>
<path d="M286.9 271l3.7 0l0 -52.7l-3.7 0Z" fill="rgb(227,73,2)" fill-opacity="0.3"></path>
<path d="M292.3 271l3.7 0l0 -51.3l-3.7 0Z" fill="rgb(227,73,2)" fill-opacity="0.3"></path>
<path d="M297.8 271l3.7 0l0 -48.9l-3.7 0Z" fill="rgb(227,73,2)" fill-opacity="0.3"></path>
<path d="M303.2 271l3.7 0l0 -47.8l-3.7 0Z" fill="rgb(227,73,2)" fill-opacity="0.3"></path>
<path d="M308.6 271l3.7 0l0 -47.5l-3.7 0Z" fill="rgb(227,73,2)" fill-opacity="0.3"></path>
<path d="M314.1 271l3.7 0l0 -45.7l-3.7 0Z" fill="rgb(227,73,2)" fill-opacity="0.3"></path>
<path d="M319.5 271l3.7 0l0 -45.4l-3.7 0Z" fill="rgb(227,73,2)" fill-opacity="0.3"></path>
<path d="M324.9 271l3.7 0l0 -45.1l-3.7 0Z" fill="rgb(227,73,2)" fill-opacity="0.3"></path>
<path d="M330.3 271l3.7 0l0 -41.9l-3.7 0Z" fill="rgb(227,73,2)" fill-opacity="0.3"></path>
<path d="M335.8 271l3.7 0l0 -41l-3.7 0Z" fill="rgb(227,73,2)" fill-opacity="0.3"></path>
<path d="M341.2 271l3.7 0l0 -38.4l-3.7 0Z" fill="rgb(227,73,2)" fill-opacity="0.3"></path>
<path d="M346.6 271l3.7 0l0 -36.6l-3.7 0Z" fill="rgb(227,73,2)" fill-opacity="0.3"></path>
<path d="M352 271l3.7 0l0 -36.3l-3.7 0Z" fill="rgb(227,73,2)" fill-opacity="0.3"></path>
<path d="M357.5 271l3.7 0l0 -33.7l-3.7 0Z" fill="rgb(227,73,2)" fill-opacity="0.3"></path>
<path d="M362.9 271l3.7 0l0 -33.1l-3.7 0Z" fill="rgb(227,73,2)" fill-opacity="0.3"></path>
<path d="M368.3 271l3.7 0l0 -32.5l-3.7 0Z" fill="rgb(227,73,2)" fill-opacity="0.3"></path>
<path d="M373.7 271l3.7 0l0 -31.9l-3.7 0Z" fill="rgb(227,73,2)" fill-opacity="0.3"></path>
<path d="M379.2 271l3.7 0l0 -31.7l-3.7 0Z" fill="rgb(227,73,2)" fill-opacity="0.3"></path>
<path d="M384.6 271l3.7 0l0 -30.2l-3.7 0Z" fill="rgb(227,73,2)" fill-opacity="0.3"></path>
<path d="M390 271l3.7 0l0 -29.6l-3.7 0Z" fill="rgb(227,73,2)" fill-opacity="0.3"></path>
<path d="M395.4 271l3.7 0l0 -29.3l-3.7 0Z" fill="rgb(227,73,2)" fill-opacity="0.3"></path>
<path d="M400.9 271l3.7 0l0 -28.7l-3.7 0Z" fill="rgb(227,73,2)" fill-opacity="0.3"></path>
<path d="M406.3 271l3.7 0l0 -27.5l-3.7 0Z" fill="rgb(227,73,2)" fill-opacity="0.3"></path>
<path d="M411.7 271l3.7 0l0 -26.7l-3.7 0Z" fill="rgb(227,73,2)" fill-opacity="0.3"></path>
<path d="M417.2 271l3.7 0l0 -26.7l-3.7 0Z" fill="rgb(227,73,2)" fill-opacity="0.3"></path>
<path d="M422.6 271l3.7 0l0 -25.8l-3.7 0Z" fill="rgb(227,73,2)" fill-opacity="0.3"></path>
<path d="M428 271l3.7 0l0 -24.9l-3.7 0Z" fill="rgb(227,73,2)" fill-opacity="0.3"></path>
<path d="M433.4 271l3.7 0l0 -24l-3.7 0Z" fill="rgb(227,73,2)" fill-opacity="0.3"></path>
<path d="M438.9 271l3.7 0l0 -23.4l-3.7 0Z" fill="rgb(227,73,2)" fill-opacity="0.3"></path>
<path d="M444.3 271l3.7 0l0 -23.2l-3.7 0Z" fill="rgb(227,73,2)" fill-opacity="0.3"></path>
<path d="M449.7 271l3.7 0l0 -22.6l-3.7 0Z" fill="rgb(227,73,2)" fill-opacity="0.3"></path>
<path d="M455.1 271l3.7 0l0 -22.3l-3.7 0Z" fill="rgb(227,73,2)" fill-opacity="0.3"></path>
<path d="M460.6 271l3.7 0l0 -22l-3.7 0Z" fill="rgb(227,73,2)" fill-opacity="0.8"></path>
<path d="M466 271l3.7 0l0 -21.1l-3.7 0Z" fill="rgb(227,73,2)" fill-opacity="0.3"></path>
<path d="M471.4 271l3.7 0l0 -20.5l-3.7 0Z" fill="rgb(227,73,2)" fill-opacity="0.3"></path>
<path d="M476.8 271l3.7 0l0 -19.6l-3.7 0Z" fill="rgb(227,73,2)" fill-opacity="0.3"></path>
<path d="M482.3 271l3.7 0l0 -19l-3.7 0Z" fill="rgb(227,73,2)" fill-opacity="0.3"></path>
<path d="M487.7 271l3.7 0l0 -18.8l-3.7 0Z" fill="rgb(227,73,2)" fill-opacity="0.3"></path>
<path d="M493.1 271l3.7 0l0 -17.3l-3.7 0Z" fill="rgb(227,73,2)" fill-opacity="0.3"></path>
<path d="M498.6 271l3.7 0l0 -16.1l-3.7 0Z" fill="rgb(227,73,2)" fill-opacity="0.3"></path>
<path d="M504 271l3.7 0l0 -15.2l-3.7 0Z" fill="rgb(227,73,2)" fill-opacity="0.3"></path>
<path d="M509.4 271l3.7 0l0 -14.1l-3.7 0Z" fill="rgb(227,73,2)" fill-opacity="0.3"></path>
<path d="M514.8 271l3.7 0l0 -14.1l-3.7 0Z" fill="rgb(227,73,2)" fill-opacity="0.3"></path>
<path d="M520.3 271l3.7 0l0 -13.2l-3.7 0Z" fill="rgb(227,73,2)" fill-opacity="0.3"></path>
<path d="M525.7 271l3.7 0l0 -12.9l-3.7 0Z" fill="rgb(227,73,2)" fill-opacity="0.3"></path>
<path d="M531.1 271l3.7 0l0 -12.9l-3.7 0Z" fill="rgb(227,73,2)" fill-opacity="0.3"></path>
<path d="M536.5 271l3.7 0l0 -12.9l-3.7 0Z" fill="rgb(227,73,2)" fill-opacity="0.3"></path>
<path d="M542 271l3.7 0l0 -12.6l-3.7 0Z" fill="rgb(227,73,2)" fill-opacity="0.3"></path>
<path d="M547.4 271l3.7 0l0 -12.3l-3.7 0Z" fill="rgb(227,73,2)" fill-opacity="0.3"></path>
<path d="M552.8 271l3.7 0l0 -12.3l-3.7 0Z" fill="rgb(227,73,2)" fill-opacity="0.3"></path>
<path d="M558.2 271l3.7 0l0 -12l-3.7 0Z" fill="rgb(227,73,2)" fill-opacity="0.3"></path>
<path d="M563.7 271l3.7 0l0 -12l-3.7 0Z" fill="rgb(227,73,2)" fill-opacity="0.3"></path>
<path d="M569.1 271l3.7 0l0 -12l-3.7 0Z" fill="rgb(227,73,2)" fill-opacity="0.3"></path>
<path d="M574.5 271l3.7 0l0 -12l-3.7 0Z" fill="rgb(227,73,2)" fill-opacity="0.3"></path>
<path d="M580 271l3.7 0l0 -12l-3.7 0Z" fill="rgb(227,73,2)" fill-opacity="0.3"></path>
<path d="M585.4 271l3.7 0l0 -11.7l-3.7 0Z" fill="rgb(227,73,2)" fill-opacity="0.3"></path>
<path d="M590.8 271l3.7 0l0 -11.7l-3.7 0Z" fill="rgb(227,73,2)" fill-opacity="0.3"></path>
<path d="M596.2 271l3.7 0l0 -11.7l-3.7 0Z" fill="rgb(227,73,2)" fill-opacity="0.3"></path>
<path d="M601.7 271l3.7 0l0 -9.7l-3.7 0Z" fill="rgb(227,73,2)" fill-opacity="0.3"></path>
<path d="M607.1 271l3.7 0l0 -9.4l-3.7 0Z" fill="rgb(227,73,2)" fill-opacity="0.3"></path>
<path d="M612.5 271l3.7 0l0 -9.1l-3.7 0Z" fill="rgb(227,73,2)" fill-opacity="0.3"></path>
<path d="M617.9 271l3.7 0l0 -8.8l-3.7 0Z" fill="rgb(227,73,2)" fill-opacity="0.3"></path>
<path d="M623.4 271l3.7 0l0 -8.8l-3.7 0Z" fill="rgb(227,73,2)" fill-opacity="0.3"></path>
<path d="M628.8 271l3.7 0l0 -8.8l-3.7 0Z" fill="rgb(227,73,2)" fill-opacity="0.3"></path>
<path d="M634.2 271l3.7 0l0 -7.9l-3.7 0Z" fill="rgb(227,73,2)" fill-opacity="0.3"></path>
<path d="M639.6 271l3.7 0l0 -7.6l-3.7 0Z" fill="rgb(227,73,2)" fill-opacity="0.3"></path>
<path d="M645.1 271l3.7 0l0 -7.3l-3.7 0Z" fill="rgb(227,73,2)" fill-opacity="0.3"></path>
<path d="M650.5 271l3.7 0l0 -7l-3.7 0Z" fill="rgb(227,73,2)" fill-opacity="0.3"></path>
<path d="M655.9 271l3.7 0l0 -6.4l-3.7 0Z" fill="rgb(227,73,2)" fill-opacity="0.3"></path>
<path d="M661.4 271l3.7 0l0 -5.6l-3.7 0Z" fill="rgb(227,73,2)" fill-opacity="0.3"></path>
<path d="M666.8 271l3.7 0l0 -5.3l-3.7 0Z" fill="rgb(227,73,2)" fill-opacity="0.3"></path>
<path d="M672.2 271l3.7 0l0 -5.3l-3.7 0Z" fill="rgb(227,73,2)" fill-opacity="0.3"></path>
<path d="M677.6 271l3.7 0l0 -5l-3.7 0Z" fill="rgb(227,73,2)" fill-opacity="0.3"></path>
<path d="M683.1 271l3.7 0l0 -5l-3.7 0Z" fill="rgb(227,73,2)" fill-opacity="0.3"></path>
<path d="M688.5 271l3.7 0l0 -5l-3.7 0Z" fill="rgb(227,73,2)" fill-opacity="0.3"></path>
<path d="M693.9 271l3.7 0l0 -4.1l-3.7 0Z" fill="rgb(227,73,2)" fill-opacity="0.3"></path>
<path d="M699.3 271l3.7 0l0 -3.8l-3.7 0Z" fill="rgb(227,73,2)" fill-opacity="0.3"></path>
<path d="M704.8 271l3.7 0l0 -3.5l-3.7 0Z" fill="rgb(227,73,2)" fill-opacity="0.3"></path>
<path d="M710.2 271l3.7 0l0 -2.9l-3.7 0Z" fill="rgb(227,73,2)" fill-opacity="0.3"></path>
<path d="M715.6 271l3.7 0l0 -2.6l-3.7 0Z" fill="rgb(227,73,2)" fill-opacity="0.3"></path>
<path d="M721 271l3.7 0l0 -2.3l-3.7 0Z" fill="rgb(227,73,2)" fill-opacity="0.3"></path>
<path d="M726.5 271l3.7 0l0 -2.3l-3.7 0Z" fill="rgb(227,73,2)" fill-opacity="0.3"></path>
<path d="M731.9 271l3.7 0l0 -2.1l-3.7 0Z" fill="rgb(227,73,2)" fill-opacity="0.3"></path>
<path d="M737.3 271l3.7 0l0 -2.1l-3.7 0Z" fill="rgb(227,73,2)" fill-opacity="0.3"></path>
<path d="M742.8 271l3.7 0l0 -2.1l-3.7 0Z" fill="rgb(227,73,2)" fill-opacity="0.3"></path>
<path d="M748.2 271l3.7 0l0 -2.1l-3.7 0Z" fill="rgb(227,73,2)" fill-opacity="0.3"></path>
<path d="M753.6 271l3.7 0l0 -2.1l-3.7 0Z" fill="rgb(227,73,2)" fill-opacity="0.3"></path>
<path d="M759 271l3.7 0l0 -2.1l-3.7 0Z" fill="rgb(227,73,2)" fill-opacity="0.3"></path>
<path d="M764.5 271l3.7 0l0 -1.8l-3.7 0Z" fill="rgb(227,73,2)" fill-opacity="0.3"></path>
<path d="M769.9 271l3.7 0l0 -1.8l-3.7 0Z" fill="rgb(227,73,2)" fill-opacity="0.3"></path>
<path d="M775.3 271l3.7 0l0 -1.8l-3.7 0Z" fill="rgb(227,73,2)" fill-opacity="0.3"></path>
<path d="M780.7 271l3.7 0l0 -1.8l-3.7 0Z" fill="rgb(227,73,2)" fill-opacity="0.3"></path>
<path d="M786.2 271l3.7 0l0 -1.8l-3.7 0Z" fill="rgb(227,73,2)" fill-opacity="0.3"></path>
<path d="M791.6 271l3.7 0l0 -1.8l-3.7 0Z" fill="rgb(227,73,2)" fill-opacity="0.3"></path>
<path d="M797 271l3.7 0l0 -1.8l-3.7 0Z" fill="rgb(227,73,2)" fill-opacity="0.3"></path>
<path d="M802.4 271l3.7 0l0 -1.8l-3.7 0Z" fill="rgb(227,73,2)" fill-opacity="0.3"></path>
<path d="M807.9 271l3.7 0l0 -1.8l-3.7 0Z" fill="rgb(227,73,2)" fill-opacity="0.3"></path>
<path d="M813.3 271l3.7 0l0 -1.8l-3.7 0Z" fill="rgb(227,73,2)" fill-opacity="0.3"></path>
<path d="M818.7 271l3.7 0l0 -1.8l-3.7 0Z" fill="rgb(227,73,2)" fill-opacity="0.3"></path>
<path d="M824.1 271l3.7 0l0 -1.5l-3.7 0Z" fill="rgb(227,73,2)" fill-opacity="0.3"></path>
<path d="M829.6 271l3.7 0l0 -1.5l-3.7 0Z" fill="rgb(227,73,2)" fill-opacity="0.3"></path>
<path d="M835 271l3.7 0l0 -1.5l-3.7 0Z" fill="rgb(227,73,2)" fill-opacity="0.3"></path>
<path d="M840.4 271l3.7 0l0 -1.5l-3.7 0Z" fill="rgb(227,73,2)" fill-opacity="0.3"></path>
<path d="M845.9 271l3.7 0l0 -1.5l-3.7 0Z" fill="rgb(227,73,2)" fill-opacity="0.3"></path>
<path d="M851.3 271l3.7 0l0 -1.5l-3.7 0Z" fill="rgb(227,73,2)" fill-opacity="0.3"></path>
<path d="M856.7 271l3.7 0l0 -1.5l-3.7 0Z" fill="rgb(227,73,2)" fill-opacity="0.3"></path>
<path d="M862.1 271l3.7 0l0 -1.5l-3.7 0Z" fill="rgb(227,73,2)" fill-opacity="0.3"></path>
<path d="M867.6 271l3.7 0l0 -1.2l-3.7 0Z" fill="rgb(227,73,2)" fill-opacity="0.3"></path>
<path d="M873 271l3.7 0l0 -1.2l-3.7 0Z" fill="rgb(227,73,2)" fill-opacity="0.3"></path>
<path d="M878.4 271l3.7 0l0 -1.2l-3.7 0Z" fill="rgb(227,73,2)" fill-opacity="0.3"></path>
<path d="M883.8 271l3.7 0l0 -1.2l-3.7 0Z" fill="rgb(227,73,2)" fill-opacity="0.3"></path>
<path d="M889.3 271l3.7 0l0 -1.2l-3.7 0Z" fill="rgb(227,73,2)" fill-opacity="0.3"></path>
<path d="M894.7 271l3.7 0l0 -0.9l-3.7 0Z" fill="rgb(227,73,2)" fill-opacity="0.3"></path>
<path d="M900.1 271l3.7 0l0 -0.9l-3.7 0Z" fill="rgb(227,73,2)" fill-opacity="0.3"></path>
<path d="M905.5 271l3.7 0l0 -0.6l-3.7 0Z" fill="rgb(227,73,2)" fill-opacity="0.3"></path>
<path d="M911 271l3.7 0l0 -0.6l-3.7 0Z" fill="rgb(227,73,2)" fill-opacity="0.3"></path>
<path d="M916.4 271l3.7 0l0 -0.3l-3.7 0Z" fill="rgb(227,73,2)" fill-opacity="0.3"></path>
<path d="M921.8 271l3.7 0l0 -0.3l-3.7 0Z" fill="rgb(227,73,2)" fill-opacity="0.3"></path>
<path d="M927.3 271l3.7 0l0 -0.3l-3.7 0Z" fill="rgb(227,73,2)" fill-opacity="0.3"></path>
<path d="M-5 -5l226.9 0l0 24l-226.9 0Z" transform="translate(391.54 5)" fill="rgb(0,0,0)" fill-opacity="0" stroke="#ccc" stroke-width="0"></path>
<path d="M3.5 0L21.5 0A3.5 3.5 0 0 1 25 3.5L25 10.5A3.5 3.5 0 0 1 21.5 14L3.5 14A3.5 3.5 0 0 1 0 10.5L0 3.5A3.5 3.5 0 0 1 3.5 0" transform="translate(391.54 5)" fill="rgb(227,73,2)" fill-opacity="0.3"></path>
<text dominant-baseline="central" text-anchor="start" style="font-size:12px;font-family:sans-serif;" xml:space="preserve" x="30" y="7" transform="translate(391.54 5)" fill="#333">Times completed</text>
<path d="M0 7L25 7" transform="translate(524.1 5)" fill="#000" stroke="#E34902" stroke-width="2" stroke-linecap="butt" stroke-miterlimit="10"></path>
<path d="M18.1 7A5.6 5.6 0 1 1 18.1 6.4A5.6 5.6 0 0 1 18.1 7" transform="translate(524.1 5)" fill="#fff" stroke="#E34902" stroke-width="2" stroke-linecap="butt" stroke-miterlimit="10"></path>
<text dominant-baseline="central" text-anchor="start" style="font-size:12px;font-family:sans-serif;" x="30" y="7" transform="translate(524.1 5)" fill="#333">Eddington</text>
<path d="M-0.54 -0.89A0.6 0.6 0 1 1 0.54 -0.89C0.39 -0.56 0 -0.42 0 0C0 -0.42 -0.39 -0.56 -0.54 -0.89Z" transform="matrix(25,0,0,25,462.4405,244.3139)" fill="rgb(227,73,2)" fill-opacity="0.8"></path>
<text dominant-baseline="central" text-anchor="middle" style="font-size:12px;font-family:sans-serif;" transform="translate(462.4405 218.171)" fill="#eee" stroke="rgb(227,73,2)" stroke-width="2" paint-order="stroke" stroke-opacity="0.8" stroke-miterlimit="2">75</text>
<g clip-path="url(#zr0-c0)">
<path d="M60.9 270.7L66.3 270.4L71.7 270.1L77.2 269.8L82.6 269.5L88 269.2L93.4 268.9L98.9 268.7L104.3 268.4L109.7 268.1L115.1 267.8L120.6 267.5L126 267.2L131.4 266.9L136.8 266.6L142.3 266.3L147.7 266L153.1 265.7L158.6 265.4L164 265.1L169.4 264.8L174.8 264.6L180.3 264.3L185.7 264L191.1 263.7L196.5 263.4L202 263.1L207.4 262.8L212.8 262.5L218.2 262.2L223.7 261.9L229.1 261.6L234.5 261.3L240 261L245.4 260.7L250.8 260.5L256.2 260.2L261.7 259.9L267.1 259.6L272.5 259.3L277.9 259L283.4 258.7L288.8 258.4L294.2 258.1L299.6 257.8L305.1 257.5L310.5 257.2L315.9 256.9L321.3 256.6L326.8 256.3L332.2 256.1L337.6 255.8L343.1 255.5L348.5 255.2L353.9 254.9L359.3 254.6L364.8 254.3L370.2 254L375.6 253.7L381 253.4L386.5 253.1L391.9 252.8L397.3 252.5L402.7 252.2L408.2 252L413.6 251.7L419 251.4L424.5 251.1L429.9 250.8L435.3 250.5L440.7 250.2L446.2 249.9L451.6 249.6L457 249.3L462.4 249L467.9 248.7L473.3 248.4L478.7 248.1L484.1 247.8L489.6 247.6L495 247.3L500.4 247L505.9 246.7L511.3 246.4L516.7 246.1L522.1 245.8L527.6 245.5L533 245.2L538.4 244.9L543.8 244.6L549.3 244.3L554.7 244L560.1 243.7L565.5 243.5L571 243.2L576.4 242.9L581.8 242.6L587.3 242.3L592.7 242L598.1 241.7L603.5 241.4L609 241.1L614.4 240.8L619.8 240.5L625.2 240.2L630.7 239.9L636.1 239.6L641.5 239.4L646.9 239.1L652.4 238.8L657.8 238.5L663.2 238.2L668.7 237.9L674.1 237.6L679.5 237.3L684.9 237L690.4 236.7L695.8 236.4L701.2 236.1L706.6 235.8L712.1 235.5L717.5 235.2L722.9 235L728.3 234.7L733.8 234.4L739.2 234.1L744.6 233.8L750 233.5L755.5 233.2L760.9 232.9L766.3 232.6L771.8 232.3L777.2 232L782.6 231.7L788 231.4L793.5 231.1L798.9 230.9L804.3 230.6L809.7 230.3L815.2 230L820.6 229.7L826 229.4L831.4 229.1L836.9 228.8L842.3 228.5L847.7 228.2L853.2 227.9L858.6 227.6L864 227.3L869.4 227L874.9 226.7L880.3 226.5L885.7 226.2L891.1 225.9L896.6 225.6L902 225.3L907.4 225L912.8 224.7L918.3 224.4L923.7 224.1L929.1 223.8" fill="none" stroke="#E34902" stroke-width="2" stroke-linejoin="bevel"></path>
</g>
<defs >
<clipPath id="zr0-c0">
<path d="M57 59l876 0l0 213l-876 0Z" fill="#000"></path>
</clipPath>
</defs>
</svg>