<svg width="1000" height="300" xmlns="http://www.w3.org/2000/svg" xmlns:xlink="http://www.w3.org/1999/xlink" version="1.1" baseProfile="full" viewBox="0 0 1000 300">
<rect width="1000" height="300" x="0" y="0" id="0" fill="#ffffff"></rect>
<polyline points="544.3 46.6 550.2 32.8 565.2 32.8" fill="none" stroke="#5470c6"></polyline>
<polyline points="602.1 102.8 615.7 96.5 630.7 96.5" fill="none" stroke="#91cc75"></polyline>
<polyline points="604.7 191.3 618.6 196.8 633.6 196.8" fill="none" stroke="#fac858"></polyline>
<polyline points="533 257.5 537.4 271.9 552.4 271.9" fill="none" stroke="#ee6666"></polyline>
<polyline points="449.5 250.5 442.8 263.9 427.8 263.9" fill="none" stroke="#73c0de"></polyline>
<polyline points="388.7 166.1 373.8 168.2 358.8 168.2" fill="none" stroke="#3ba272"></polyline>
<polyline points="441.2 54.1 433.4 41.3 418.4 41.3" fill="none" stroke="#fc8452"></polyline>
<path d="M500 37.5A112.5 112.5 0 0 1 581.5 72.4L500 150Z" fill="#5470c6" stroke="#fff" stroke-width="2" stroke-linejoin="round"></path>
<path d="M581.5 72.4A112.5 112.5 0 0 1 611.9 138.1L500 150Z" fill="#91cc75" stroke="#fff" stroke-width="2" stroke-linejoin="round"></path>
<path d="M611.9 138.1A112.5 112.5 0 0 1 573.7 235L500 150Z" fill="#fac858" stroke="#fff" stroke-width="2" stroke-linejoin="round"></path>
<path d="M573.7 235A112.5 112.5 0 0 1 486.7 261.7L500 150Z" fill="#ee6666" stroke="#fff" stroke-width="2" stroke-linejoin="round"></path>
<path d="M486.7 261.7A112.5 112.5 0 0 1 418.3 227.4L500 150Z" fill="#73c0de" stroke="#fff" stroke-width="2" stroke-linejoin="round"></path>
<path d="M418.3 227.4A112.5 112.5 0 0 1 399.8 98.9L500 150Z" fill="#3ba272" stroke="#fff" stroke-width="2" stroke-linejoin="round"></path>
<path d="M399.8 98.9A112.5 112.5 0 0 1 500 37.5L500 150Z" fill="#fc8452" stroke="#fff" stroke-width="2" stroke-linejoin="round"></path>
<path d="M0 -15l42.8 0l0 30l-42.8 0Z" transform="translate(570.2317 32.812)" fill="none"></path>
<text dominant-baseline="central" text-anchor="start" style="font-size:12px;font-family:sans-serif;font-weight:bold;" y="-7.5" transform="translate(570.2317 32.812)" fill="#333" stroke="rgb(255,255,255)" stroke-width="2" paint-order="stroke" stroke-miterlimit="2">Monday</text>
<text dominant-baseline="central" text-anchor="start" style="font-size:12px;font-family:sans-serif;" y="7.5" transform="translate(570.2317 32.812)" fill="#333" stroke="rgb(255,255,255)" stroke-width="2" paint-order="stroke" stroke-miterlimit="2">12.89%</text>
<path d="M0 -15l46.2 0l0 30l-46.2 0Z" transform="translate(635.7211 96.4754)" fill="none"></path>
<text dominant-baseline="central" text-anchor="start" style="font-size:12px;font-family:sans-serif;font-weight:bold;" y="-7.5" transform="translate(635.7211 96.4754)" fill="#333" stroke="rgb(255,255,255)" stroke-width="2" paint-order="stroke" stroke-miterlimit="2">Tuesday</text>
<text dominant-baseline="central" text-anchor="start" style="font-size:12px;font-family:sans-serif;" y="7.5" transform="translate(635.7211 96.4754)" fill="#333" stroke="rgb(255,255,255)" stroke-width="2" paint-order="stroke" stroke-miterlimit="2">10.43%</text>
<path d="M0 -15l63.6 0l0 30l-63.6 0Z" transform="translate(638.6054 196.7869)" fill="none"></path>
<text dominant-baseline="central" text-anchor="start" style="font-size:12px;font-family:sans-serif;font-weight:bold;" y="-7.5" transform="translate(638.6054 196.7869)" fill="#333" stroke="rgb(255,255,255)" stroke-width="2" paint-order="stroke" stroke-miterlimit="2">Wednesday</text>
<text dominant-baseline="central" text-anchor="start" style="font-size:12px;font-family:sans-serif;" y="7.5" transform="translate(638.6054 196.7869)" fill="#333" stroke="rgb(255,255,255)" stroke-width="2" paint-order="stroke" stroke-miterlimit="2">15.32%</text>
<path d="M0 -15l50.2 0l0 30l-50.2 0Z" transform="translate(557.4136 271.8871)" fill="none"></path>
<text dominant-baseline="central" text-anchor="start" style="font-size:12px;font-family:sans-serif;font-weight:bold;" y="-7.5" transform="translate(557.4136 271.8871)" fill="#333" stroke="rgb(255,255,255)" stroke-width="2" paint-order="stroke" stroke-miterlimit="2">Thursday</text>
<text dominant-baseline="central" text-anchor="start" style="font-size:12px;font-family:sans-serif;" y="7.5" transform="translate(557.4136 271.8871)" fill="#333" stroke="rgb(255,255,255)" stroke-width="2" paint-order="stroke" stroke-miterlimit="2">13.24%</text>
<path d="M-40.9 -15l40.9 0l0 30l-40.9 0Z" transform="translate(422.7953 263.9468)" fill="none"></path>
<text dominant-baseline="central" text-anchor="end" style="font-size:12px;font-family:sans-serif;font-weight:bold;" y="-7.5" transform="translate(422.7953 263.9468)" fill="#333" stroke="rgb(255,255,255)" stroke-width="2" paint-order="stroke" stroke-miterlimit="2">Friday</text>
<text dominant-baseline="central" text-anchor="end" style="font-size:12px;font-family:sans-serif;" y="7.5" transform="translate(422.7953 263.9468)" fill="#333" stroke="rgb(255,255,255)" stroke-width="2" paint-order="stroke" stroke-miterlimit="2">11.05%</text>
<path d="M-48.2 -15l48.2 0l0 30l-48.2 0Z" transform="translate(353.8118 168.2425)" fill="none"></path>
<text dominant-baseline="central" text-anchor="end" style="font-size:12px;font-family:sans-serif;font-weight:bold;" y="-7.5" transform="translate(353.8118 168.2425)" fill="#333" stroke="rgb(255,255,255)" stroke-width="2" paint-order="stroke" stroke-miterlimit="2">Saturday</text>
<text dominant-baseline="central" text-anchor="end" style="font-size:12px;font-family:sans-serif;" y="7.5" transform="translate(353.8118 168.2425)" fill="#333" stroke="rgb(255,255,255)" stroke-width="2" paint-order="stroke" stroke-miterlimit="2">19.57%</text>
<path d="M-40.9 -15l40.9 0l0 30l-40.9 0Z" transform="translate(413.3814 41.2884)" fill="none"></path>
<text dominant-baseline="central" text-anchor="end" style="font-size:12px;font-family:sans-serif;font-weight:bold;" y="-7.5" transform="translate(413.3814 41.2884)" fill="#333" stroke="rgb(255,255,255)" stroke-width="2" paint-order="stroke" stroke-miterlimit="2">Sunday</text>
<text dominant-baseline="central" text-anchor="end" style="font-size:12px;font-family:sans-serif;" y="7.5" transform="translate(413.3814 41.2884)" fill="#333" stroke="rgb(255,255,255)" stroke-width="2" paint-order="stroke" stroke-miterlimit="2">17.5%</text>
</svg>